<?xml version="1.0" encoding="utf-8"?>
<!-- Generator: Adobe Illustrator 16.0.0, SVG Export Plug-In . SVG Version: 6.00 Build 0)  -->
<!DOCTYPE svg PUBLIC "-//W3C//DTD SVG 1.1//EN" "http://www.w3.org/Graphics/SVG/1.1/DTD/svg11.dtd" [
	<!ENTITY ns_extend "http://ns.adobe.com/Extensibility/1.0/">
	<!ENTITY ns_ai "http://ns.adobe.com/AdobeIllustrator/10.0/">
	<!ENTITY ns_graphs "http://ns.adobe.com/Graphs/1.0/">
	<!ENTITY ns_vars "http://ns.adobe.com/Variables/1.0/">
	<!ENTITY ns_imrep "http://ns.adobe.com/ImageReplacement/1.0/">
	<!ENTITY ns_sfw "http://ns.adobe.com/SaveForWeb/1.0/">
	<!ENTITY ns_custom "http://ns.adobe.com/GenericCustomNamespace/1.0/">
	<!ENTITY ns_adobe_xpath "http://ns.adobe.com/XPath/1.0/">
]>
<svg version="1.1" id="Layer_1" xmlns:x="&ns_extend;" xmlns:i="&ns_ai;" xmlns:graph="&ns_graphs;"
	 xmlns="http://www.w3.org/2000/svg" xmlns:xlink="http://www.w3.org/1999/xlink" x="0px" y="0px" width="200px" height="200px"
	 viewBox="0 0 200 200" enable-background="new 0 0 200 200" xml:space="preserve">
<metadata>
	<sfw  xmlns="&ns_sfw;">
		<slices></slices>
		<sliceSourceBounds  height="91.564" width="191.833" y="-145.782" x="4.084" bottomLeftOrigin="true"></sliceSourceBounds>
	</sfw>
</metadata>
<g>
	
		<linearGradient id="SVGID_1_" gradientUnits="userSpaceOnUse" x1="330.5703" y1="137.1953" x2="330.5703" y2="120.9326" gradientTransform="matrix(1 0 0 1 -211.3359 0)">
		<stop  offset="0" style="stop-color:#3F3F3F"/>
		<stop  offset="0.0222" style="stop-color:#5C5C5C"/>
		<stop  offset="0.0537" style="stop-color:#7F7F7F"/>
		<stop  offset="0.0707" style="stop-color:#8C8C8C"/>
		<stop  offset="0.0953" style="stop-color:#7B7B7B"/>
		<stop  offset="0.15" style="stop-color:#5C5C5C"/>
		<stop  offset="0.212" style="stop-color:#404040"/>
		<stop  offset="0.2819" style="stop-color:#2A2A2A"/>
		<stop  offset="0.3636" style="stop-color:#191919"/>
		<stop  offset="0.4647" style="stop-color:#0E0E0E"/>
		<stop  offset="0.6065" style="stop-color:#070707"/>
		<stop  offset="1" style="stop-color:#050505"/>
	</linearGradient>
	<path fill="url(#SVGID_1_)" d="M188.522,135.283c0,1.058-0.98,1.912-2.188,1.912H52.134c-1.208,0-2.186-0.854-2.186-1.912v-12.438
		c0-1.057,0.978-1.912,2.186-1.912h134.201c1.207,0,2.188,0.855,2.188,1.912V135.283z"/>
	<g>
		
			<linearGradient id="SVGID_2_" gradientUnits="userSpaceOnUse" x1="300.9316" y1="138.3271" x2="300.9316" y2="124.9346" gradientTransform="matrix(1 0 0 1 -211.3359 0)">
			<stop  offset="0.0054" style="stop-color:#B0B0B0"/>
			<stop  offset="0.1848" style="stop-color:#3F3F3F"/>
			<stop  offset="0.3635" style="stop-color:#414141"/>
			<stop  offset="0.4278" style="stop-color:#484848"/>
			<stop  offset="0.4737" style="stop-color:#535353"/>
			<stop  offset="0.5108" style="stop-color:#646464"/>
			<stop  offset="0.5422" style="stop-color:#7A7A7A"/>
			<stop  offset="0.5598" style="stop-color:#8A8A8A"/>
			<stop  offset="0.6685" style="stop-color:#C9C9C9"/>
			<stop  offset="0.6886" style="stop-color:#B4B4B4"/>
			<stop  offset="0.7278" style="stop-color:#909090"/>
			<stop  offset="0.7692" style="stop-color:#727272"/>
			<stop  offset="0.813" style="stop-color:#5C5C5C"/>
			<stop  offset="0.8602" style="stop-color:#4C4C4C"/>
			<stop  offset="0.9131" style="stop-color:#424242"/>
			<stop  offset="0.9837" style="stop-color:#3F3F3F"/>
		</linearGradient>
		<path fill="url(#SVGID_2_)" d="M101.972,137.373c0,0.528-0.422,0.954-0.941,0.954H78.161c-0.52,0-0.94-0.426-0.94-0.954v-11.481
			c0-0.527,0.421-0.957,0.94-0.957h22.869c0.52,0,0.941,0.43,0.941,0.957V137.373z"/>
		<rect x="85.343" y="124.935" fill="#3F3F3F" width="0.343" height="13.393"/>
		<rect x="94.427" y="124.935" fill="#3F3F3F" width="0.345" height="13.393"/>
	</g>
	<path fill="#B2B2B2" d="M195.917,61.939v64.735c0,4.259-3.465,7.723-7.723,7.723h-11.227c-0.865,0.072-111.03,0.108-144.773,0.117
		l-2.706,0.034c-11.893,0.205-21.935-0.061-24.354-5.433c-2.58-5.739,1.701-57.988,4.65-66.58c1.216-3.528,5.993-6.923,32.513-7.855
		c12.723-0.448,25.241-0.128,27.871-0.011c0.008,0,0.012-0.01,0.024-0.01l100.774-0.441h17.227
		C192.452,54.218,195.917,57.682,195.917,61.939z"/>
	
		<linearGradient id="SVGID_3_" gradientUnits="userSpaceOnUse" x1="285.4941" y1="131.6299" x2="285.4941" y2="57.1865" gradientTransform="matrix(-1 0 0 1 385.6113 0)">
		<stop  offset="0" style="stop-color:#FFFFFF"/>
		<stop  offset="0.074" style="stop-color:#ECECEF"/>
		<stop  offset="0.1757" style="stop-color:#D8D8DF"/>
		<stop  offset="0.2446" style="stop-color:#D1D1D9"/>
		<stop  offset="0.5537" style="stop-color:#E1E1E6"/>
		<stop  offset="1" style="stop-color:#F5F5F5"/>
	</linearGradient>
	<path fill="url(#SVGID_3_)" d="M188.194,55.406c3.605,0,6.533,2.93,6.533,6.533v64.735c0,3.604-2.928,6.533-6.533,6.533h-11.227
		c-0.924,0.076-120.762,0.114-144.773,0.119l-2.723,0.034c-11.046,0.19-21.135-0.027-23.252-4.733
		c-2.426-5.393,1.89-57.54,4.69-65.705c0.964-2.804,5.405-6.139,31.43-7.055c14.105-0.497,27.933-0.033,28.159,0.004
		c-0.1-0.016-0.202-0.023-0.301-0.023l100.773-0.442H188.194z"/>
	
		<linearGradient id="SVGID_4_" gradientUnits="userSpaceOnUse" x1="267.9785" y1="134.79" x2="267.9785" y2="117.374" gradientTransform="matrix(1 0 0 1 -211.3359 0)">
		<stop  offset="0" style="stop-color:#3F3F3F"/>
		<stop  offset="0.1364" style="stop-color:#353535"/>
		<stop  offset="0.698" style="stop-color:#121212"/>
		<stop  offset="1" style="stop-color:#050505"/>
	</linearGradient>
	<path fill="url(#SVGID_4_)" d="M40.917,134.79c0-9.617,7.041-17.416,15.729-17.416c8.684,0,15.725,7.799,15.725,17.416H40.917z"/>
	<g>
		
			<radialGradient id="SVGID_5_" cx="267.7832" cy="133.4307" r="12.3511" gradientTransform="matrix(1 0 0 1 -211.3359 0)" gradientUnits="userSpaceOnUse">
			<stop  offset="0" style="stop-color:#000000"/>
			<stop  offset="0.4184" style="stop-color:#020202"/>
			<stop  offset="0.5691" style="stop-color:#090909"/>
			<stop  offset="0.6765" style="stop-color:#141414"/>
			<stop  offset="0.7628" style="stop-color:#252525"/>
			<stop  offset="0.8364" style="stop-color:#3B3B3B"/>
			<stop  offset="0.8478" style="stop-color:#3F3F3F"/>
			<stop  offset="0.8803" style="stop-color:#454545"/>
			<stop  offset="0.9217" style="stop-color:#545454"/>
			<stop  offset="0.9676" style="stop-color:#6E6E6E"/>
			<stop  offset="1" style="stop-color:#858585"/>
		</radialGradient>
		<circle fill="url(#SVGID_5_)" cx="56.447" cy="133.432" r="12.351"/>
		
			<radialGradient id="SVGID_6_" cx="267.6348" cy="127.4873" r="9.2706" gradientTransform="matrix(1 0 0 1 -211.3359 0)" gradientUnits="userSpaceOnUse">
			<stop  offset="0" style="stop-color:#615E5E"/>
			<stop  offset="0.538" style="stop-color:#8A8A8A"/>
			<stop  offset="1" style="stop-color:#5E5C5C"/>
		</radialGradient>
		<path fill="url(#SVGID_6_)" d="M56.303,122.146c6.328,0,11.476,5.044,11.65,11.336c0-0.108,0.006-0.218,0.006-0.326
			c0-6.44-5.22-11.662-11.656-11.662c-6.443,0-11.664,5.222-11.664,11.662c0,0.108,0.007,0.218,0.007,0.326
			C44.818,127.189,49.971,122.146,56.303,122.146z"/>
		<g>
			
				<linearGradient id="SVGID_7_" gradientUnits="userSpaceOnUse" x1="267.832" y1="141.1162" x2="267.832" y2="125.7451" gradientTransform="matrix(1 0 0 1 -211.3359 0)">
				<stop  offset="0" style="stop-color:#BDBDBD"/>
				<stop  offset="0.08" style="stop-color:#A7A7A7"/>
				<stop  offset="0.1781" style="stop-color:#939393"/>
				<stop  offset="0.2446" style="stop-color:#8C8C8C"/>
				<stop  offset="0.7181" style="stop-color:#B6B6B6"/>
				<stop  offset="1" style="stop-color:#C9C9C9"/>
			</linearGradient>
			<circle fill="url(#SVGID_7_)" cx="56.498" cy="133.432" r="7.687"/>
			
				<linearGradient id="SVGID_8_" gradientUnits="userSpaceOnUse" x1="268.3496" y1="125.7451" x2="268.3496" y2="135.4229" gradientTransform="matrix(1 0 0 1 -211.3359 0)">
				<stop  offset="0" style="stop-color:#F5F5F5"/>
				<stop  offset="0.2541" style="stop-color:#D5D5D5"/>
				<stop  offset="0.5647" style="stop-color:#B4B4B4"/>
				<stop  offset="0.8245" style="stop-color:#A0A0A0"/>
				<stop  offset="1" style="stop-color:#999999"/>
			</linearGradient>
			<path fill="url(#SVGID_8_)" d="M56.496,125.745c-2.847,0-5.326,1.552-6.654,3.851c2.774,2.97,7.539,6.491,14.1,5.719
				c0.15-0.604,0.243-1.23,0.243-1.883C64.185,129.187,60.739,125.745,56.496,125.745z"/>
		</g>
		<circle fill="#262626" cx="56.471" cy="133.751" r="3.588"/>
		<g>
			
				<linearGradient id="SVGID_9_" gradientUnits="userSpaceOnUse" x1="267.832" y1="136.748" x2="267.832" y2="130.1133" gradientTransform="matrix(1 0 0 1 -211.3359 0)">
				<stop  offset="0" style="stop-color:#3F3F3F"/>
				<stop  offset="0.1364" style="stop-color:#353535"/>
				<stop  offset="0.698" style="stop-color:#121212"/>
				<stop  offset="1" style="stop-color:#050505"/>
			</linearGradient>
			<circle fill="url(#SVGID_9_)" cx="56.497" cy="133.432" r="3.317"/>
			
				<linearGradient id="SVGID_10_" gradientUnits="userSpaceOnUse" x1="268.0557" y1="130.1133" x2="268.0557" y2="134.2891" gradientTransform="matrix(1 0 0 1 -211.3359 0)">
				<stop  offset="0" style="stop-color:#FFFFFF"/>
				<stop  offset="0.1038" style="stop-color:#E3E3E3"/>
				<stop  offset="0.3349" style="stop-color:#A9A9A9"/>
				<stop  offset="0.5482" style="stop-color:#7B7B7B"/>
				<stop  offset="0.737" style="stop-color:#5A5A5A"/>
				<stop  offset="0.894" style="stop-color:#464646"/>
				<stop  offset="1" style="stop-color:#3F3F3F"/>
			</linearGradient>
			<path fill="url(#SVGID_10_)" d="M56.496,130.113c-1.228,0-2.298,0.669-2.871,1.663c1.197,1.28,3.254,2.799,6.083,2.466
				c0.066-0.259,0.106-0.529,0.106-0.811C59.814,131.601,58.328,130.113,56.496,130.113z"/>
		</g>
		<g>
			<g>
				<g>
					
						<radialGradient id="SVGID_11_" cx="267.834" cy="139.2959" r="0.7554" gradientTransform="matrix(1 0 0 1 -211.3359 0)" gradientUnits="userSpaceOnUse">
						<stop  offset="0" style="stop-color:#050505"/>
						<stop  offset="0.4096" style="stop-color:#070707"/>
						<stop  offset="0.5603" style="stop-color:#0E0E0E"/>
						<stop  offset="0.6682" style="stop-color:#1A1A1A"/>
						<stop  offset="0.7552" style="stop-color:#2A2A2A"/>
						<stop  offset="0.8261" style="stop-color:#3F3F3F"/>
						<stop  offset="0.8632" style="stop-color:#454545"/>
						<stop  offset="0.9105" style="stop-color:#545454"/>
						<stop  offset="0.963" style="stop-color:#6E6E6E"/>
						<stop  offset="1" style="stop-color:#858585"/>
					</radialGradient>
					<circle fill="url(#SVGID_11_)" cx="56.498" cy="139.296" r="0.755"/>
				</g>
				<g>
					
						<radialGradient id="SVGID_12_" cx="267.834" cy="127.5684" r="0.7549" gradientTransform="matrix(1 0 0 1 -211.3359 0)" gradientUnits="userSpaceOnUse">
						<stop  offset="0" style="stop-color:#050505"/>
						<stop  offset="0.4096" style="stop-color:#070707"/>
						<stop  offset="0.5603" style="stop-color:#0E0E0E"/>
						<stop  offset="0.6682" style="stop-color:#1A1A1A"/>
						<stop  offset="0.7552" style="stop-color:#2A2A2A"/>
						<stop  offset="0.8261" style="stop-color:#3F3F3F"/>
						<stop  offset="0.8632" style="stop-color:#454545"/>
						<stop  offset="0.9105" style="stop-color:#545454"/>
						<stop  offset="0.963" style="stop-color:#6E6E6E"/>
						<stop  offset="1" style="stop-color:#858585"/>
					</radialGradient>
					<circle fill="url(#SVGID_12_)" cx="56.498" cy="127.569" r="0.755"/>
				</g>
			</g>
			<g>
				<g>
					
						<radialGradient id="SVGID_13_" cx="234.084" cy="397.4951" r="0.7544" gradientTransform="matrix(0.7071 -0.7071 0.7071 0.7071 -385.9463 22.022)" gradientUnits="userSpaceOnUse">
						<stop  offset="0" style="stop-color:#050505"/>
						<stop  offset="0.4096" style="stop-color:#070707"/>
						<stop  offset="0.5603" style="stop-color:#0E0E0E"/>
						<stop  offset="0.6682" style="stop-color:#1A1A1A"/>
						<stop  offset="0.7552" style="stop-color:#2A2A2A"/>
						<stop  offset="0.8261" style="stop-color:#3F3F3F"/>
						<stop  offset="0.8632" style="stop-color:#454545"/>
						<stop  offset="0.9105" style="stop-color:#545454"/>
						<stop  offset="0.963" style="stop-color:#6E6E6E"/>
						<stop  offset="1" style="stop-color:#858585"/>
					</radialGradient>
					<circle fill="url(#SVGID_13_)" cx="60.643" cy="137.577" r="0.755"/>
				</g>
				<g>
					
						<radialGradient id="SVGID_14_" cx="234.083" cy="385.7646" r="0.7557" gradientTransform="matrix(0.7071 -0.7071 0.7071 0.7071 -385.9463 22.022)" gradientUnits="userSpaceOnUse">
						<stop  offset="0" style="stop-color:#050505"/>
						<stop  offset="0.4096" style="stop-color:#070707"/>
						<stop  offset="0.5603" style="stop-color:#0E0E0E"/>
						<stop  offset="0.6682" style="stop-color:#1A1A1A"/>
						<stop  offset="0.7552" style="stop-color:#2A2A2A"/>
						<stop  offset="0.8261" style="stop-color:#3F3F3F"/>
						<stop  offset="0.8632" style="stop-color:#454545"/>
						<stop  offset="0.9105" style="stop-color:#545454"/>
						<stop  offset="0.963" style="stop-color:#6E6E6E"/>
						<stop  offset="1" style="stop-color:#858585"/>
					</radialGradient>
					<circle fill="url(#SVGID_14_)" cx="52.351" cy="129.286" r="0.755"/>
				</g>
			</g>
			<g>
				<g>
					
						<radialGradient id="SVGID_15_" cx="27.5537" cy="556.0156" r="0.7554" gradientTransform="matrix(0 -1 1 0 -493.6563 160.9863)" gradientUnits="userSpaceOnUse">
						<stop  offset="0" style="stop-color:#050505"/>
						<stop  offset="0.4096" style="stop-color:#070707"/>
						<stop  offset="0.5603" style="stop-color:#0E0E0E"/>
						<stop  offset="0.6682" style="stop-color:#1A1A1A"/>
						<stop  offset="0.7552" style="stop-color:#2A2A2A"/>
						<stop  offset="0.8261" style="stop-color:#3F3F3F"/>
						<stop  offset="0.8632" style="stop-color:#454545"/>
						<stop  offset="0.9105" style="stop-color:#545454"/>
						<stop  offset="0.963" style="stop-color:#6E6E6E"/>
						<stop  offset="1" style="stop-color:#858585"/>
					</radialGradient>
					<path fill="url(#SVGID_15_)" d="M62.36,132.678c0.414,0,0.755,0.338,0.755,0.754c0,0.417-0.339,0.756-0.755,0.756
						c-0.417,0-0.756-0.339-0.756-0.756C61.604,133.016,61.943,132.678,62.36,132.678z"/>
				</g>
				<g>
					
						<radialGradient id="SVGID_16_" cx="27.5537" cy="544.291" r="0.7554" gradientTransform="matrix(0 -1 1 0 -493.6563 160.9863)" gradientUnits="userSpaceOnUse">
						<stop  offset="0" style="stop-color:#050505"/>
						<stop  offset="0.4096" style="stop-color:#070707"/>
						<stop  offset="0.5603" style="stop-color:#0E0E0E"/>
						<stop  offset="0.6682" style="stop-color:#1A1A1A"/>
						<stop  offset="0.7552" style="stop-color:#2A2A2A"/>
						<stop  offset="0.8261" style="stop-color:#3F3F3F"/>
						<stop  offset="0.8632" style="stop-color:#454545"/>
						<stop  offset="0.9105" style="stop-color:#545454"/>
						<stop  offset="0.963" style="stop-color:#6E6E6E"/>
						<stop  offset="1" style="stop-color:#858585"/>
					</radialGradient>
					<circle fill="url(#SVGID_16_)" cx="50.634" cy="133.433" r="0.755"/>
				</g>
			</g>
			<g>
				<g>
					
						<radialGradient id="SVGID_17_" cx="-230.5347" cy="522.2236" r="0.7549" gradientTransform="matrix(-0.7071 -0.7071 0.7071 -0.7071 -471.6328 335.5967)" gradientUnits="userSpaceOnUse">
						<stop  offset="0" style="stop-color:#050505"/>
						<stop  offset="0.4096" style="stop-color:#070707"/>
						<stop  offset="0.5603" style="stop-color:#0E0E0E"/>
						<stop  offset="0.6682" style="stop-color:#1A1A1A"/>
						<stop  offset="0.7552" style="stop-color:#2A2A2A"/>
						<stop  offset="0.8261" style="stop-color:#3F3F3F"/>
						<stop  offset="0.8632" style="stop-color:#454545"/>
						<stop  offset="0.9105" style="stop-color:#545454"/>
						<stop  offset="0.963" style="stop-color:#6E6E6E"/>
						<stop  offset="1" style="stop-color:#858585"/>
					</radialGradient>
					<circle fill="url(#SVGID_17_)" cx="60.643" cy="129.285" r="0.755"/>
				</g>
				<g>
					
						<radialGradient id="SVGID_18_" cx="-230.5249" cy="510.5078" r="0.7555" gradientTransform="matrix(-0.7071 -0.7071 0.7071 -0.7071 -471.6328 335.5967)" gradientUnits="userSpaceOnUse">
						<stop  offset="0" style="stop-color:#050505"/>
						<stop  offset="0.4096" style="stop-color:#070707"/>
						<stop  offset="0.5603" style="stop-color:#0E0E0E"/>
						<stop  offset="0.6682" style="stop-color:#1A1A1A"/>
						<stop  offset="0.7552" style="stop-color:#2A2A2A"/>
						<stop  offset="0.8261" style="stop-color:#3F3F3F"/>
						<stop  offset="0.8632" style="stop-color:#454545"/>
						<stop  offset="0.9105" style="stop-color:#545454"/>
						<stop  offset="0.963" style="stop-color:#6E6E6E"/>
						<stop  offset="1" style="stop-color:#858585"/>
					</radialGradient>
					<circle fill="url(#SVGID_18_)" cx="52.351" cy="137.577" r="0.756"/>
				</g>
			</g>
		</g>
	</g>
	
		<linearGradient id="SVGID_19_" gradientUnits="userSpaceOnUse" x1="360.3232" y1="134.79" x2="360.3232" y2="117.374" gradientTransform="matrix(1 0 0 1 -211.3359 0)">
		<stop  offset="0" style="stop-color:#3F3F3F"/>
		<stop  offset="0.1364" style="stop-color:#353535"/>
		<stop  offset="0.698" style="stop-color:#121212"/>
		<stop  offset="1" style="stop-color:#050505"/>
	</linearGradient>
	<path fill="url(#SVGID_19_)" d="M133.261,134.79c0-9.617,7.041-17.416,15.727-17.416s15.727,7.799,15.727,17.416H133.261z"/>
	<path fill="#8C8C8C" d="M40.746,127.383c0,1.01,0.2,1.824,0.45,1.824l0,0c0.251,0,0.453-0.814,0.453-1.824V85.3
		c0-1.009-0.202-1.825-0.453-1.825l0,0c-0.25,0-0.45,0.815-0.45,1.825V127.383z"/>
	<g>
		<path fill="#8C8C8C" d="M183.28,110.673c0-0.254-0.047-0.461-0.111-0.461l0,0c-0.061,0-0.111,0.207-0.111,0.461v10.622
			c0,0.255,0.051,0.462,0.111,0.462l0,0c0.064,0,0.111-0.207,0.111-0.462V110.673z"/>
		<path fill="#8C8C8C" d="M182.349,110.673c0-0.254-0.049-0.461-0.111-0.461l0,0c-0.063,0-0.113,0.207-0.113,0.461v10.622
			c0,0.255,0.051,0.462,0.113,0.462l0,0c0.063,0,0.111-0.207,0.111-0.462V110.673z"/>
		<path fill="#8C8C8C" d="M181.415,110.673c0-0.254-0.047-0.461-0.111-0.461l0,0c-0.061,0-0.111,0.207-0.111,0.461v10.622
			c0,0.255,0.051,0.462,0.111,0.462l0,0c0.064,0,0.111-0.207,0.111-0.462V110.673z"/>
		<path fill="#8C8C8C" d="M180.483,110.673c0-0.254-0.049-0.461-0.111-0.461l0,0c-0.063,0-0.113,0.207-0.113,0.461v10.622
			c0,0.255,0.051,0.462,0.113,0.462l0,0c0.063,0,0.111-0.207,0.111-0.462V110.673z"/>
		<path fill="#8C8C8C" d="M179.55,110.673c0-0.254-0.049-0.461-0.111-0.461l0,0c-0.063,0-0.113,0.207-0.113,0.461v10.622
			c0,0.255,0.051,0.462,0.113,0.462l0,0c0.063,0,0.111-0.207,0.111-0.462V110.673z"/>
		<path fill="#8C8C8C" d="M178.618,110.673c0-0.254-0.051-0.461-0.111-0.461l0,0c-0.064,0-0.115,0.207-0.115,0.461v10.622
			c0,0.255,0.051,0.462,0.115,0.462l0,0c0.061,0,0.111-0.207,0.111-0.462V110.673z"/>
		<path fill="#8C8C8C" d="M177.687,110.673c0-0.254-0.049-0.461-0.111-0.461l0,0c-0.063,0-0.113,0.207-0.113,0.461v10.622
			c0,0.255,0.051,0.462,0.113,0.462l0,0c0.063,0,0.111-0.207,0.111-0.462V110.673z"/>
		<path fill="#8C8C8C" d="M176.753,110.673c0-0.254-0.049-0.461-0.111-0.461l0,0c-0.064,0-0.113,0.207-0.113,0.461v10.622
			c0,0.255,0.049,0.462,0.113,0.462l0,0c0.063,0,0.111-0.207,0.111-0.462V110.673z"/>
		<path fill="#8C8C8C" d="M175.819,110.673c0-0.254-0.051-0.461-0.109-0.461l0,0c-0.064,0-0.115,0.207-0.115,0.461v10.622
			c0,0.255,0.051,0.462,0.115,0.462l0,0c0.059,0,0.109-0.207,0.109-0.462V110.673z"/>
		<path fill="#8C8C8C" d="M174.888,110.673c0-0.254-0.049-0.461-0.111-0.461l0,0c-0.063,0-0.113,0.207-0.113,0.461v10.622
			c0,0.255,0.051,0.462,0.113,0.462l0,0c0.063,0,0.111-0.207,0.111-0.462V110.673z"/>
		<path fill="#8C8C8C" d="M173.956,110.673c0-0.254-0.051-0.461-0.111-0.461l0,0c-0.064,0-0.115,0.207-0.115,0.461v10.622
			c0,0.255,0.051,0.462,0.115,0.462l0,0c0.061,0,0.111-0.207,0.111-0.462V110.673z"/>
		<path fill="#8C8C8C" d="M173.022,110.673c0-0.254-0.051-0.461-0.111-0.461l0,0c-0.064,0-0.113,0.207-0.113,0.461v10.622
			c0,0.255,0.049,0.462,0.113,0.462l0,0c0.061,0,0.111-0.207,0.111-0.462V110.673z"/>
		<path fill="#8C8C8C" d="M172.091,110.673c0-0.254-0.051-0.461-0.113-0.461l0,0c-0.063,0-0.111,0.207-0.111,0.461v10.622
			c0,0.255,0.049,0.462,0.111,0.462l0,0c0.063,0,0.113-0.207,0.113-0.462V110.673z"/>
		<path fill="#8C8C8C" d="M171.157,110.673c0-0.254-0.049-0.461-0.111-0.461l0,0c-0.064,0-0.111,0.207-0.111,0.461v10.622
			c0,0.255,0.047,0.462,0.111,0.462l0,0c0.063,0,0.111-0.207,0.111-0.462V110.673z"/>
		<path fill="#8C8C8C" d="M170.224,110.673c0-0.254-0.049-0.461-0.109-0.461l0,0c-0.064,0-0.113,0.207-0.113,0.461v10.622
			c0,0.255,0.049,0.462,0.113,0.462l0,0c0.061,0,0.109-0.207,0.109-0.462V110.673z"/>
	</g>
	<g>
		
			<radialGradient id="SVGID_20_" cx="360.127" cy="133.4307" r="12.3511" gradientTransform="matrix(1 0 0 1 -211.3359 0)" gradientUnits="userSpaceOnUse">
			<stop  offset="0" style="stop-color:#000000"/>
			<stop  offset="0.4184" style="stop-color:#020202"/>
			<stop  offset="0.5691" style="stop-color:#090909"/>
			<stop  offset="0.6765" style="stop-color:#141414"/>
			<stop  offset="0.7628" style="stop-color:#252525"/>
			<stop  offset="0.8364" style="stop-color:#3B3B3B"/>
			<stop  offset="0.8478" style="stop-color:#3F3F3F"/>
			<stop  offset="0.8803" style="stop-color:#454545"/>
			<stop  offset="0.9217" style="stop-color:#545454"/>
			<stop  offset="0.9676" style="stop-color:#6E6E6E"/>
			<stop  offset="1" style="stop-color:#858585"/>
		</radialGradient>
		<path fill="url(#SVGID_20_)" d="M161.142,133.432c0,6.821-5.531,12.351-12.35,12.351c-6.824,0-12.352-5.529-12.352-12.351
			c0-6.823,5.527-12.353,12.352-12.353C155.61,121.079,161.142,126.608,161.142,133.432z"/>
		
			<radialGradient id="SVGID_21_" cx="359.9795" cy="127.4873" r="9.2706" gradientTransform="matrix(1 0 0 1 -211.3359 0)" gradientUnits="userSpaceOnUse">
			<stop  offset="0" style="stop-color:#615E5E"/>
			<stop  offset="0.538" style="stop-color:#8A8A8A"/>
			<stop  offset="1" style="stop-color:#5E5C5C"/>
		</radialGradient>
		<path fill="url(#SVGID_21_)" d="M148.644,122.146c6.33,0,11.479,5.044,11.654,11.336c0-0.108,0.006-0.218,0.006-0.326
			c0-6.44-5.223-11.662-11.66-11.662c-6.439,0-11.66,5.222-11.66,11.662c0,0.108,0.004,0.218,0.006,0.326
			C137.161,127.189,142.312,122.146,148.644,122.146z"/>
		<g>
			
				<linearGradient id="SVGID_22_" gradientUnits="userSpaceOnUse" x1="360.1768" y1="141.1162" x2="360.1768" y2="125.7451" gradientTransform="matrix(1 0 0 1 -211.3359 0)">
				<stop  offset="0" style="stop-color:#BDBDBD"/>
				<stop  offset="0.08" style="stop-color:#A7A7A7"/>
				<stop  offset="0.1781" style="stop-color:#939393"/>
				<stop  offset="0.2446" style="stop-color:#8C8C8C"/>
				<stop  offset="0.7181" style="stop-color:#B6B6B6"/>
				<stop  offset="1" style="stop-color:#C9C9C9"/>
			</linearGradient>
			<path fill="url(#SVGID_22_)" d="M156.528,133.432c0,4.243-3.445,7.685-7.686,7.685c-4.248,0-7.689-3.441-7.689-7.685
				c0-4.245,3.441-7.687,7.689-7.687C153.083,125.745,156.528,129.187,156.528,133.432z"/>
			
				<linearGradient id="SVGID_23_" gradientUnits="userSpaceOnUse" x1="360.6924" y1="125.7451" x2="360.6924" y2="135.4229" gradientTransform="matrix(1 0 0 1 -211.3359 0)">
				<stop  offset="0" style="stop-color:#F5F5F5"/>
				<stop  offset="0.2541" style="stop-color:#D5D5D5"/>
				<stop  offset="0.5647" style="stop-color:#B4B4B4"/>
				<stop  offset="0.8245" style="stop-color:#A0A0A0"/>
				<stop  offset="1" style="stop-color:#999999"/>
			</linearGradient>
			<path fill="url(#SVGID_23_)" d="M148.843,125.745c-2.848,0-5.328,1.552-6.658,3.851c2.777,2.97,7.541,6.491,14.1,5.719
				c0.15-0.604,0.244-1.23,0.244-1.883C156.528,129.187,153.083,125.745,148.843,125.745z"/>
		</g>
		<circle fill="#262626" cx="148.815" cy="133.751" r="3.59"/>
		<g>
			
				<linearGradient id="SVGID_24_" gradientUnits="userSpaceOnUse" x1="360.1758" y1="136.748" x2="360.1758" y2="130.1133" gradientTransform="matrix(1 0 0 1 -211.3359 0)">
				<stop  offset="0" style="stop-color:#3F3F3F"/>
				<stop  offset="0.1364" style="stop-color:#353535"/>
				<stop  offset="0.698" style="stop-color:#121212"/>
				<stop  offset="1" style="stop-color:#050505"/>
			</linearGradient>
			<path fill="url(#SVGID_24_)" d="M152.157,133.432c0,1.831-1.484,3.316-3.314,3.316c-1.836,0-3.32-1.485-3.32-3.316
				s1.484-3.318,3.32-3.318C150.673,130.113,152.157,131.601,152.157,133.432z"/>
			
				<linearGradient id="SVGID_25_" gradientUnits="userSpaceOnUse" x1="360.3994" y1="130.1133" x2="360.3994" y2="134.2891" gradientTransform="matrix(1 0 0 1 -211.3359 0)">
				<stop  offset="0" style="stop-color:#FFFFFF"/>
				<stop  offset="0.1038" style="stop-color:#E3E3E3"/>
				<stop  offset="0.3349" style="stop-color:#A9A9A9"/>
				<stop  offset="0.5482" style="stop-color:#7B7B7B"/>
				<stop  offset="0.737" style="stop-color:#5A5A5A"/>
				<stop  offset="0.894" style="stop-color:#464646"/>
				<stop  offset="1" style="stop-color:#3F3F3F"/>
			</linearGradient>
			<path fill="url(#SVGID_25_)" d="M148.843,130.113c-1.232,0-2.301,0.669-2.873,1.663c1.195,1.28,3.252,2.799,6.084,2.466
				c0.064-0.259,0.104-0.529,0.104-0.811C152.157,131.601,150.673,130.113,148.843,130.113z"/>
		</g>
		<g>
			<g>
				<g>
					
						<radialGradient id="SVGID_26_" cx="360.1758" cy="139.2959" r="0.7554" gradientTransform="matrix(1 0 0 1 -211.3359 0)" gradientUnits="userSpaceOnUse">
						<stop  offset="0" style="stop-color:#050505"/>
						<stop  offset="0.4096" style="stop-color:#070707"/>
						<stop  offset="0.5603" style="stop-color:#0E0E0E"/>
						<stop  offset="0.6682" style="stop-color:#1A1A1A"/>
						<stop  offset="0.7552" style="stop-color:#2A2A2A"/>
						<stop  offset="0.8261" style="stop-color:#3F3F3F"/>
						<stop  offset="0.8632" style="stop-color:#454545"/>
						<stop  offset="0.9105" style="stop-color:#545454"/>
						<stop  offset="0.963" style="stop-color:#6E6E6E"/>
						<stop  offset="1" style="stop-color:#858585"/>
					</radialGradient>
					<path fill="url(#SVGID_26_)" d="M149.595,139.296c0,0.415-0.338,0.756-0.752,0.756c-0.42,0-0.758-0.341-0.758-0.756
						c0-0.418,0.338-0.756,0.758-0.756C149.257,138.54,149.595,138.878,149.595,139.296z"/>
				</g>
				<g>
					
						<radialGradient id="SVGID_27_" cx="360.1758" cy="127.5684" r="0.7549" gradientTransform="matrix(1 0 0 1 -211.3359 0)" gradientUnits="userSpaceOnUse">
						<stop  offset="0" style="stop-color:#050505"/>
						<stop  offset="0.4096" style="stop-color:#070707"/>
						<stop  offset="0.5603" style="stop-color:#0E0E0E"/>
						<stop  offset="0.6682" style="stop-color:#1A1A1A"/>
						<stop  offset="0.7552" style="stop-color:#2A2A2A"/>
						<stop  offset="0.8261" style="stop-color:#3F3F3F"/>
						<stop  offset="0.8632" style="stop-color:#454545"/>
						<stop  offset="0.9105" style="stop-color:#545454"/>
						<stop  offset="0.963" style="stop-color:#6E6E6E"/>
						<stop  offset="1" style="stop-color:#858585"/>
					</radialGradient>
					<path fill="url(#SVGID_27_)" d="M149.595,127.569c0,0.416-0.338,0.754-0.752,0.754c-0.42,0-0.758-0.338-0.758-0.754
						c0-0.419,0.338-0.756,0.758-0.756C149.257,126.813,149.595,127.15,149.595,127.569z"/>
				</g>
			</g>
			<g>
				<g>
					
						<radialGradient id="SVGID_28_" cx="299.3838" cy="462.7881" r="0.7569" gradientTransform="matrix(0.7071 -0.7071 0.7071 0.7071 -385.9463 22.022)" gradientUnits="userSpaceOnUse">
						<stop  offset="0" style="stop-color:#050505"/>
						<stop  offset="0.4096" style="stop-color:#070707"/>
						<stop  offset="0.5603" style="stop-color:#0E0E0E"/>
						<stop  offset="0.6682" style="stop-color:#1A1A1A"/>
						<stop  offset="0.7552" style="stop-color:#2A2A2A"/>
						<stop  offset="0.8261" style="stop-color:#3F3F3F"/>
						<stop  offset="0.8632" style="stop-color:#454545"/>
						<stop  offset="0.9105" style="stop-color:#545454"/>
						<stop  offset="0.963" style="stop-color:#6E6E6E"/>
						<stop  offset="1" style="stop-color:#858585"/>
					</radialGradient>
					<circle fill="url(#SVGID_28_)" cx="152.985" cy="137.577" r="0.756"/>
				</g>
				<g>
					
						<radialGradient id="SVGID_29_" cx="299.3945" cy="451.0498" r="0.7566" gradientTransform="matrix(0.7071 -0.7071 0.7071 0.7071 -385.9463 22.022)" gradientUnits="userSpaceOnUse">
						<stop  offset="0" style="stop-color:#050505"/>
						<stop  offset="0.4096" style="stop-color:#070707"/>
						<stop  offset="0.5603" style="stop-color:#0E0E0E"/>
						<stop  offset="0.6682" style="stop-color:#1A1A1A"/>
						<stop  offset="0.7552" style="stop-color:#2A2A2A"/>
						<stop  offset="0.8261" style="stop-color:#3F3F3F"/>
						<stop  offset="0.8632" style="stop-color:#454545"/>
						<stop  offset="0.9105" style="stop-color:#545454"/>
						<stop  offset="0.963" style="stop-color:#6E6E6E"/>
						<stop  offset="1" style="stop-color:#858585"/>
					</radialGradient>
					<circle fill="url(#SVGID_29_)" cx="144.694" cy="129.286" r="0.755"/>
				</g>
			</g>
			<g>
				<g>
					
						<radialGradient id="SVGID_30_" cx="27.5537" cy="648.3594" r="0.7549" gradientTransform="matrix(0 -1 1 0 -493.6563 160.9863)" gradientUnits="userSpaceOnUse">
						<stop  offset="0" style="stop-color:#050505"/>
						<stop  offset="0.4096" style="stop-color:#070707"/>
						<stop  offset="0.5603" style="stop-color:#0E0E0E"/>
						<stop  offset="0.6682" style="stop-color:#1A1A1A"/>
						<stop  offset="0.7552" style="stop-color:#2A2A2A"/>
						<stop  offset="0.8261" style="stop-color:#3F3F3F"/>
						<stop  offset="0.8632" style="stop-color:#454545"/>
						<stop  offset="0.9105" style="stop-color:#545454"/>
						<stop  offset="0.963" style="stop-color:#6E6E6E"/>
						<stop  offset="1" style="stop-color:#858585"/>
					</radialGradient>
					<circle fill="url(#SVGID_30_)" cx="154.704" cy="133.433" r="0.755"/>
				</g>
				<g>
					
						<radialGradient id="SVGID_31_" cx="27.5537" cy="636.6338" r="0.7554" gradientTransform="matrix(0 -1 1 0 -493.6563 160.9863)" gradientUnits="userSpaceOnUse">
						<stop  offset="0" style="stop-color:#050505"/>
						<stop  offset="0.4096" style="stop-color:#070707"/>
						<stop  offset="0.5603" style="stop-color:#0E0E0E"/>
						<stop  offset="0.6682" style="stop-color:#1A1A1A"/>
						<stop  offset="0.7552" style="stop-color:#2A2A2A"/>
						<stop  offset="0.8261" style="stop-color:#3F3F3F"/>
						<stop  offset="0.8632" style="stop-color:#454545"/>
						<stop  offset="0.9105" style="stop-color:#545454"/>
						<stop  offset="0.963" style="stop-color:#6E6E6E"/>
						<stop  offset="1" style="stop-color:#858585"/>
					</radialGradient>
					<circle fill="url(#SVGID_31_)" cx="142.976" cy="133.433" r="0.755"/>
				</g>
			</g>
			<g>
				<g>
					
						<radialGradient id="SVGID_32_" cx="-295.8271" cy="587.5273" r="0.7557" gradientTransform="matrix(-0.7071 -0.7071 0.7071 -0.7071 -471.6328 335.5967)" gradientUnits="userSpaceOnUse">
						<stop  offset="0" style="stop-color:#050505"/>
						<stop  offset="0.4096" style="stop-color:#070707"/>
						<stop  offset="0.5603" style="stop-color:#0E0E0E"/>
						<stop  offset="0.6682" style="stop-color:#1A1A1A"/>
						<stop  offset="0.7552" style="stop-color:#2A2A2A"/>
						<stop  offset="0.8261" style="stop-color:#3F3F3F"/>
						<stop  offset="0.8632" style="stop-color:#454545"/>
						<stop  offset="0.9105" style="stop-color:#545454"/>
						<stop  offset="0.963" style="stop-color:#6E6E6E"/>
						<stop  offset="1" style="stop-color:#858585"/>
					</radialGradient>
					<circle fill="url(#SVGID_32_)" cx="152.985" cy="129.285" r="0.756"/>
				</g>
				<g>
					
						<radialGradient id="SVGID_33_" cx="-295.8311" cy="575.7949" r="0.7564" gradientTransform="matrix(-0.7071 -0.7071 0.7071 -0.7071 -471.6328 335.5967)" gradientUnits="userSpaceOnUse">
						<stop  offset="0" style="stop-color:#050505"/>
						<stop  offset="0.4096" style="stop-color:#070707"/>
						<stop  offset="0.5603" style="stop-color:#0E0E0E"/>
						<stop  offset="0.6682" style="stop-color:#1A1A1A"/>
						<stop  offset="0.7552" style="stop-color:#2A2A2A"/>
						<stop  offset="0.8261" style="stop-color:#3F3F3F"/>
						<stop  offset="0.8632" style="stop-color:#454545"/>
						<stop  offset="0.9105" style="stop-color:#545454"/>
						<stop  offset="0.963" style="stop-color:#6E6E6E"/>
						<stop  offset="1" style="stop-color:#858585"/>
					</radialGradient>
					<circle fill="url(#SVGID_33_)" cx="144.694" cy="137.577" r="0.756"/>
				</g>
			</g>
		</g>
	</g>
	<g>
		<path fill="#8C8C8C" d="M119.476,64.538c-46.227,0-71.287,0.041-74.483,0.125c0,0-4.183,0.098-4.21,0.097h-15.53
			c-0.915,0-1.829,0.201-2.686,0.585c-2.714,0.993-4.539,3.622-4.539,6.542v31.328c0,1.239,0.241,4.338,2.471,6.396
			c1.306,1.208,3.018,1.768,4.954,1.616c3.765-0.296,5.645-3.542,7.302-6.406c0.652-1.125,1.268-2.188,1.967-3.048l1.618-2.202
			c2.375-3.37,5.628-7.988,10.407-8.087l27.69-0.488c3.392-0.061,4.704-0.083,5.224-0.192c-0.037,0.036-0.104,0.103-0.104,0.103
			l108.596,0.084c2.508,0,4.549-2.064,4.549-4.602V69.166c0-2.539-2.041-4.604-4.549-4.604c0,0,0,0.075,0,0.094
			c-0.973-0.089-2.633-0.097-5.834-0.098L166.87,64.55L119.476,64.538z M166.87,65.44L166.87,65.44l15.447,0.009
			c4.252,0.002,6.012,0.003,6.586,0.247c0,0,0.033-0.065,0.041-0.079c1.623,0.377,2.865,1.787,2.865,3.549v17.223
			c0,2.046-1.643,3.712-3.658,3.712L79.546,90.015c0,0-32.814,0.58-32.815,0.58c-5.232,0.106-8.635,4.938-11.115,8.459l-1.6,2.175
			c-0.73,0.896-1.362,1.989-2.032,3.147c-1.549,2.673-3.303,5.705-6.6,5.962c-1.682,0.132-3.162-0.345-4.282-1.38
			c-1.971-1.821-2.184-4.622-2.184-5.743V71.887c0-2.548,1.591-4.841,3.984-5.717c0.77-0.345,1.56-0.519,2.35-0.519l15.404-0.018
			c0.089,0.026,0.109,0.032,3.238-0.053l1.119-0.027c3.192-0.082,28.243-0.123,74.462-0.123L166.87,65.44z"/>
	</g>
	
		<linearGradient id="SVGID_34_" gradientUnits="userSpaceOnUse" x1="280.2461" y1="109.0264" x2="280.2461" y2="66.7642" gradientTransform="matrix(-1 0 0 1 385.6113 0)">
		<stop  offset="0.0105" style="stop-color:#8C8C8C"/>
		<stop  offset="0.0319" style="stop-color:#7B7B7B"/>
		<stop  offset="0.0793" style="stop-color:#5C5C5C"/>
		<stop  offset="0.1331" style="stop-color:#404040"/>
		<stop  offset="0.1938" style="stop-color:#2A2A2A"/>
		<stop  offset="0.2647" style="stop-color:#191919"/>
		<stop  offset="0.3524" style="stop-color:#0E0E0E"/>
		<stop  offset="0.4753" style="stop-color:#070707"/>
		<stop  offset="0.8168" style="stop-color:#050505"/>
		<stop  offset="0.9739" style="stop-color:#050505"/>
		<stop  offset="1" style="stop-color:#050505"/>
	</linearGradient>
	<path fill="url(#SVGID_34_)" d="M23.369,67.412c0.574-0.267,1.211-0.426,1.883-0.426h15.53c0.038,0,0.074,0.012,0.109,0.013
		c1.517-0.057,2.929-0.08,4.154-0.11c7.671-0.198,143.105-0.1,143.105-0.1c1.283,0,2.322,1.063,2.322,2.377v17.223
		c0,1.311-1.039,2.375-2.322,2.375L79.558,88.679c0,0-25.644,0.43-32.855,0.58c-7.214,0.148-11.17,7.995-13.722,11.124
		s-3.927,8.328-7.701,8.625c-3.774,0.295-5.023-3.168-5.023-5.793V71.887C20.256,69.805,21.562,68.053,23.369,67.412z"/>
	<path fill="#8C8C8C" d="M5.778,110.045h3.699c3.356,0,6.087-2.73,6.087-6.088V71.59c0-3.098-2.332-5.633-5.331-6.011
		c0.065-0.319,0.131-0.613,0.196-0.895c3.397,0.467,6.026,3.381,6.026,6.906v32.367c0,3.848-3.13,6.98-6.979,6.98H5.74
		C5.751,110.641,5.765,110.346,5.778,110.045z"/>
	
		<linearGradient id="SVGID_35_" gradientUnits="userSpaceOnUse" x1="375.5762" y1="108.71" x2="375.5762" y2="66.8892" gradientTransform="matrix(-1 0 0 1 385.6113 0)">
		<stop  offset="0.0054" style="stop-color:#8C8C8C"/>
		<stop  offset="0.0318" style="stop-color:#7B7B7B"/>
		<stop  offset="0.0904" style="stop-color:#5C5C5C"/>
		<stop  offset="0.1566" style="stop-color:#404040"/>
		<stop  offset="0.2316" style="stop-color:#2A2A2A"/>
		<stop  offset="0.319" style="stop-color:#191919"/>
		<stop  offset="0.4272" style="stop-color:#0E0E0E"/>
		<stop  offset="0.5789" style="stop-color:#070707"/>
		<stop  offset="1" style="stop-color:#050505"/>
	</linearGradient>
	<path fill="url(#SVGID_35_)" d="M9.98,66.889c2.384,0.254,4.248,2.249,4.248,4.701v32.367c0,2.624-2.127,4.752-4.751,4.752H5.842
		C6.574,94.15,8.366,75.652,9.98,66.889z"/>
	
		<linearGradient id="SVGID_36_" gradientUnits="userSpaceOnUse" x1="344.4814" y1="91.397" x2="344.4814" y2="66.9751" gradientTransform="matrix(-1 0 0 1 385.6113 0)">
		<stop  offset="0" style="stop-color:#E6E5E9"/>
		<stop  offset="0.2446" style="stop-color:#D1D1D9"/>
		<stop  offset="0.5537" style="stop-color:#E1E1E6"/>
		<stop  offset="1" style="stop-color:#F5F5F5"/>
	</linearGradient>
	<path fill="url(#SVGID_36_)" d="M41.582,90.804c-0.31,0.187-0.612,0.382-0.904,0.594V66.986h0.104c0.038,0,0.074,0.012,0.109,0.013
		c0.235-0.008,0.462-0.016,0.69-0.023V90.804z"/>
	
		<linearGradient id="SVGID_37_" gradientUnits="userSpaceOnUse" x1="270.043" y1="81.1255" x2="270.043" y2="66.7632" gradientTransform="matrix(-1 0 0 1 385.6113 0)">
		<stop  offset="0" style="stop-color:#E6E5E9"/>
		<stop  offset="0.2446" style="stop-color:#D1D1D9"/>
		<stop  offset="0.5537" style="stop-color:#E1E1E6"/>
		<stop  offset="1" style="stop-color:#F5F5F5"/>
	</linearGradient>
	<path fill="url(#SVGID_37_)" d="M77.896,66.781v21.926c0.358-0.005,0.657-0.011,0.906-0.016V66.78
		C78.495,66.78,78.199,66.781,77.896,66.781z M116.021,66.764c-0.303,0-0.604,0-0.906,0v21.943h0.906V66.764z M153.239,66.771
		c-0.299,0-0.604,0-0.904,0v21.965l0.904,0.002V66.771z"/>
	<path fill="#8C8C8C" d="M41.029,106.342H170.86c3.135,0,14.266,0.133,14.266,0.297s-11.131,0.297-14.266,0.297H41.029V106.342z"/>
	<path fill="#8C8C8C" d="M74.029,106.483c0.028,0,0.056-0.009,0.084-0.009v21.174c0,0.585-0.135,1.055-0.298,1.055
		c-0.161,0-0.295-0.47-0.295-1.055v-21.165H74.029z"/>
	<path fill="#8C8C8C" d="M101.448,106.483c0.029,0,0.057-0.009,0.084-0.009v21.174c0,0.585-0.131,1.055-0.295,1.055
		s-0.299-0.47-0.299-1.055v-21.165H101.448z"/>
	<path fill="#8C8C8C" d="M128.868,106.483c0.027,0,0.055-0.009,0.082-0.009v21.174c0,0.585-0.133,1.055-0.295,1.055
		c-0.164,0-0.297-0.47-0.297-1.055v-21.165H128.868z"/>
	<path fill="#8C8C8C" d="M166.087,106.483c0.029,0,0.053-0.009,0.082-0.009v21.174c0,0.585-0.133,1.055-0.295,1.055
		c-0.164,0-0.297-0.47-0.297-1.055v-21.165H166.087z"/>
	
		<linearGradient id="SVGID_38_" gradientUnits="userSpaceOnUse" x1="372.5957" y1="133.2949" x2="372.5957" y2="125.4668" gradientTransform="matrix(-1 0 0 1 385.6113 0)">
		<stop  offset="0" style="stop-color:#FFFFFF"/>
		<stop  offset="0.074" style="stop-color:#ECECEF"/>
		<stop  offset="0.1757" style="stop-color:#D8D8DF"/>
		<stop  offset="0.2446" style="stop-color:#D1D1D9"/>
		<stop  offset="0.5537" style="stop-color:#E1E1E6"/>
		<stop  offset="1" style="stop-color:#F5F5F5"/>
	</linearGradient>
	<path fill="url(#SVGID_38_)" d="M19.768,125.466c0,0,0.625,1.411,0.594,3.867c-0.033,2.456-0.594,3.961-0.594,3.961h-0.189
		c-6.694-0.319-11.905-1.437-13.358-4.667c-0.256-0.565-0.438-1.66-0.551-3.161H19.768z"/>
	<path fill="#B2B2B2" d="M10.491,120.389c0,0-2.902,3.91-3.471,3.91H5.35c-0.566,0-1.026-0.481-1.026-1.08v-9.441
		c0-0.597,0.46-1.078,1.026-1.078h1.671c0.568,0,0.972,0.58,1.324,1.636C8.697,115.39,10.491,120.389,10.491,120.389z"/>
	
		<linearGradient id="SVGID_39_" gradientUnits="userSpaceOnUse" x1="215.4199" y1="118.5586" x2="221.1602" y2="118.5586" gradientTransform="matrix(1 0 0 1 -211.3359 0)">
		<stop  offset="0" style="stop-color:#FFFFFF"/>
		<stop  offset="0.074" style="stop-color:#ECECEF"/>
		<stop  offset="0.1757" style="stop-color:#D8D8DF"/>
		<stop  offset="0.2446" style="stop-color:#D1D1D9"/>
		<stop  offset="0.5537" style="stop-color:#E1E1E6"/>
		<stop  offset="1" style="stop-color:#F5F5F5"/>
	</linearGradient>
	<path fill="url(#SVGID_39_)" d="M9.824,120.233c0,0-2.7,3.469-3.23,3.469H5.039c-0.527,0-0.955-0.428-0.955-0.958v-8.371
		c0-0.53,0.428-0.958,0.955-0.958h1.555c0.53,0,0.776,0.05,1.181,1.291C8.177,115.947,9.824,120.233,9.824,120.233z"/>
	
		<linearGradient id="SVGID_40_" gradientUnits="userSpaceOnUse" x1="366.3545" y1="118.459" x2="371.3643" y2="118.459" gradientTransform="matrix(-1 0 0 1 385.6113 0)">
		<stop  offset="0" style="stop-color:#FFBF00"/>
		<stop  offset="0.0189" style="stop-color:#FFA900"/>
		<stop  offset="0.063" style="stop-color:#FF7C00"/>
		<stop  offset="0.1023" style="stop-color:#FF5B00"/>
		<stop  offset="0.135" style="stop-color:#FF4700"/>
		<stop  offset="0.1571" style="stop-color:#FF4000"/>
		<stop  offset="0.1905" style="stop-color:#FF4E0B"/>
		<stop  offset="0.4346" style="stop-color:#FFB15B"/>
		<stop  offset="0.8534" style="stop-color:#FF6D00"/>
		<stop  offset="1" style="stop-color:#FF7F00"/>
	</linearGradient>
	<path fill="url(#SVGID_40_)" d="M14.247,118.805c0,0.573,0.463,1.035,1.037,1.035h2.936c0.572,0,1.037-0.462,1.037-1.035v-0.692
		c0-0.571-0.465-1.035-1.037-1.035h-2.936c-0.574,0-1.037,0.464-1.037,1.035V118.805z"/>
	<path fill="#C77500" d="M15.284,116.904c-0.667,0-1.21,0.542-1.21,1.208v0.692c0,0.666,0.543,1.21,1.21,1.21h2.936
		c0.666,0,1.21-0.544,1.21-1.21v-0.692c0-0.666-0.544-1.208-1.21-1.208H15.284z M18.22,119.669h-2.936
		c-0.476,0-0.864-0.388-0.864-0.864v-0.692c0-0.476,0.389-0.862,0.864-0.862h2.936c0.476,0,0.862,0.387,0.862,0.862v0.692
		C19.082,119.281,18.695,119.669,18.22,119.669z"/>
	<path fill="#8C8C8C" d="M13.823,83.577c0.771-0.002,1.397,0.624,1.399,1.396l0.019,9.135c0.054,0.399-0.065,0.795-0.331,1.1
		c-0.263,0.306-0.646,0.474-1.048,0.474l-1.226,0.001c-1.909,0.006-3.468-1.547-3.469-3.458l-0.012-5.172
		c-0.005-1.911,1.55-3.47,3.46-3.473L13.823,83.577z"/>
	
		<linearGradient id="SVGID_41_" gradientUnits="userSpaceOnUse" x1="372.4375" y1="94.3398" x2="372.4375" y2="83.7798" gradientTransform="matrix(-1 0.0019 0.0019 1 384.1582 -0.1348)">
		<stop  offset="0" style="stop-color:#FFFFFF"/>
		<stop  offset="0.074" style="stop-color:#ECECEF"/>
		<stop  offset="0.1757" style="stop-color:#D8D8DF"/>
		<stop  offset="0.2446" style="stop-color:#D1D1D9"/>
		<stop  offset="0.5537" style="stop-color:#E1E1E6"/>
		<stop  offset="1" style="stop-color:#F5F5F5"/>
	</linearGradient>
	<path fill="url(#SVGID_41_)" d="M12.437,84.352l1.59-0.003l0.02,10.365c0,0.065,0.016,0.128,0.022,0.194l-1.61,0.003
		c-1.505,0.003-2.726-1.046-2.729-2.341l-0.012-5.867C9.714,85.407,10.933,84.354,12.437,84.352z"/>
</g>
</svg>
