<?xml version="1.0" encoding="utf-8"?>
<!-- Generator: Adobe Illustrator 16.0.0, SVG Export Plug-In . SVG Version: 6.00 Build 0)  -->
<!DOCTYPE svg PUBLIC "-//W3C//DTD SVG 1.1//EN" "http://www.w3.org/Graphics/SVG/1.1/DTD/svg11.dtd" [
	<!ENTITY ns_extend "http://ns.adobe.com/Extensibility/1.0/">
	<!ENTITY ns_ai "http://ns.adobe.com/AdobeIllustrator/10.0/">
	<!ENTITY ns_graphs "http://ns.adobe.com/Graphs/1.0/">
	<!ENTITY ns_vars "http://ns.adobe.com/Variables/1.0/">
	<!ENTITY ns_imrep "http://ns.adobe.com/ImageReplacement/1.0/">
	<!ENTITY ns_sfw "http://ns.adobe.com/SaveForWeb/1.0/">
	<!ENTITY ns_custom "http://ns.adobe.com/GenericCustomNamespace/1.0/">
	<!ENTITY ns_adobe_xpath "http://ns.adobe.com/XPath/1.0/">
]>
<svg version="1.1" id="Layer_1" xmlns:x="&ns_extend;" xmlns:i="&ns_ai;" xmlns:graph="&ns_graphs;"
	 xmlns="http://www.w3.org/2000/svg" xmlns:xlink="http://www.w3.org/1999/xlink" x="0px" y="0px" width="200px" height="200px"
	 viewBox="0 0 200 200" enable-background="new 0 0 200 200" xml:space="preserve">
<metadata>
	<sfw  xmlns="&ns_sfw;">
		<slices></slices>
		<sliceSourceBounds  height="71.688" width="190.44" y="-135.844" x="4.78" bottomLeftOrigin="true"></sliceSourceBounds>
	</sfw>
</metadata>
<g>
	
		<linearGradient id="SVGID_1_" gradientUnits="userSpaceOnUse" x1="95.9297" y1="122.8613" x2="95.9297" y2="64.1558" gradientTransform="matrix(-1 0 0 1 195.2461 0)">
		<stop  offset="0.0109" style="stop-color:#ADA8BA"/>
		<stop  offset="0.3844" style="stop-color:#AFADB3"/>
		<stop  offset="1" style="stop-color:#B0B0B0"/>
	</linearGradient>
	<path fill="url(#SVGID_1_)" d="M58.284,85.229c-0.086,0.005-0.28,0.017-0.28,0.017c-4.209,0.263-15.394,0.962-26.173,4.413
		c-6.667,2.135-22.445,7.537-25.062,11.621c-1.223,1.91-1.862,4.937-1.862,8.185c0,2.232,0.303,4.566,0.926,6.717
		c0.37,1.275,1.494,5.151,10.312,5.151c0,0,20.37,1.527,21.243,1.527h107.693c1.304,0,18.686-1.942,18.686-1.942
		c0.504,0,0.994-0.112,1.459-0.323c0.029-0.006,24.604-3.15,24.604-3.15c1.004,0,1.995-0.768,2.788-2.161
		c0.684-1.198,1.108-2.688,1.108-3.885V86.662c0-2.414-1.748-4.378-3.896-4.378c0,0-16.068,0-16.191,0
		c-4.546-3.126-25.806-15.742-41.608-17.163l-1.134-0.103C115.274,63.6,86.214,60.96,58.284,85.229z M6.77,101.28L6.77,101.28
		C6.769,101.28,6.769,101.28,6.77,101.28z"/>
	
		<linearGradient id="SVGID_2_" gradientUnits="userSpaceOnUse" x1="19.127" y1="121.1641" x2="19.127" y2="107.5361" gradientTransform="matrix(-1 0 0 1 195.2461 0)">
		<stop  offset="0.0109" style="stop-color:#ADA8BA"/>
		<stop  offset="0.3844" style="stop-color:#AFADB3"/>
		<stop  offset="1" style="stop-color:#B0B0B0"/>
	</linearGradient>
	<path fill="url(#SVGID_2_)" d="M195.22,110.071c0,1.827-1.986,7.474-4.092,7.474l-25.498,3.284
		c-0.452,0.214-0.945,0.334-1.468,0.334h-4.387l-2.756-12.153l37.094-1.475C194.113,107.535,195.22,108.241,195.22,110.071z"/>
	
		<radialGradient id="SVGID_3_" cx="94.8032" cy="94.751" r="69.6008" gradientTransform="matrix(-0.997 0 0 1 193.9648 0)" gradientUnits="userSpaceOnUse">
		<stop  offset="0" style="stop-color:#615E5E"/>
		<stop  offset="0.538" style="stop-color:#8A8A8A"/>
		<stop  offset="1" style="stop-color:#5E5C5C"/>
	</radialGradient>
	<path fill="url(#SVGID_3_)" d="M6.255,118.608c0.688,1.718,7.497,3.646,10.484,3.823c2.988,0.178,19.943,1.33,20.829,1.33h107.366
		c1.307,0,19.609-2.05,20.042-2.255l24.569-3.138c2.031,0,3.677-3.519,3.677-5.811V87.938c0-2.29-1.646-4.147-3.677-4.147h-16.205
		c-5.233-3.611-26.012-15.7-41.437-17.083c-15.422-1.383-44.946-4.733-73.424,20.006c-3.845,0.243-15.355,0.88-26.39,4.407
		C21.056,94.647,9.345,99.28,7.215,102.601C5.088,105.92,5.563,116.893,6.255,118.608z M37.569,123.762h107.366
		c1.307,0,19.609-2.05,20.042-2.255L37.569,123.762z"/>
	
		<linearGradient id="SVGID_4_" gradientUnits="userSpaceOnUse" x1="178.9561" y1="122.0928" x2="178.9561" y2="113.916" gradientTransform="matrix(-1 0 0 1 195.2461 0)">
		<stop  offset="0.0109" style="stop-color:#ADA8BA"/>
		<stop  offset="0.3844" style="stop-color:#AFADB3"/>
		<stop  offset="1" style="stop-color:#B0B0B0"/>
	</linearGradient>
	<path fill="url(#SVGID_4_)" d="M5.265,113.915c0,0-0.558,0.417-0.477,1.27c0.078,0.85-0.081,1.917,1.354,3.335
		c1.431,1.417,8.28,4.115,20.543,3.477l1.113-7.734L5.265,113.915z"/>
	
		<linearGradient id="SVGID_5_" gradientUnits="userSpaceOnUse" x1="95.9336" y1="122.6563" x2="95.9336" y2="64.6343" gradientTransform="matrix(-1 0 0 1 195.2461 0)">
		<stop  offset="0" style="stop-color:#FFFFFF"/>
		<stop  offset="0.0247" style="stop-color:#ECECEF"/>
		<stop  offset="0.0586" style="stop-color:#D8D8DF"/>
		<stop  offset="0.0815" style="stop-color:#D1D1D9"/>
		<stop  offset="0.2437" style="stop-color:#EAEAEC"/>
		<stop  offset="0.3533" style="stop-color:#F5F5F5"/>
		<stop  offset="0.397" style="stop-color:#F1F1F2"/>
		<stop  offset="0.441" style="stop-color:#E6E5E7"/>
		<stop  offset="0.4511" style="stop-color:#E2E1E4"/>
		<stop  offset="0.4891" style="stop-color:#FFFFFF"/>
		<stop  offset="0.6141" style="stop-color:#DEDEE2"/>
		<stop  offset="0.8859" style="stop-color:#F5F5F5"/>
		<stop  offset="1" style="stop-color:#D1D1D9"/>
	</linearGradient>
	<path fill="url(#SVGID_5_)" d="M6.034,116.154c1.448,4.98,8.08,4.98,10.117,4.98c0,0,20.351,1.521,21.237,1.521h107.693
		c1.313,0,19.666-2.051,20.104-2.254l24.645-3.14c2.036,0,3.688-3.518,3.688-5.809V86.832c0-2.292-1.651-4.15-3.688-4.15h-16.256
		c-5.246-3.61-26.093-15.699-41.562-17.081c-15.472-1.384-45.083-4.732-73.648,20.008c-3.856,0.242-15.403,0.877-26.47,4.403
		c-11.069,3.528-22.814,8.161-24.95,11.481C4.807,104.814,4.581,111.175,6.034,116.154z"/>
	
		<linearGradient id="SVGID_6_" gradientUnits="userSpaceOnUse" x1="150.6016" y1="101.0801" x2="150.6016" y2="122.6543" gradientTransform="matrix(-1 0 0 1 195.2461 0)">
		<stop  offset="0.0109" style="stop-color:#ADA8BA"/>
		<stop  offset="0.1365" style="stop-color:#C0BCCA"/>
		<stop  offset="0.3309" style="stop-color:#D7D5DD"/>
		<stop  offset="0.5341" style="stop-color:#E8E7EA"/>
		<stop  offset="0.75" style="stop-color:#F2F2F2"/>
		<stop  offset="1" style="stop-color:#F5F5F5"/>
	</linearGradient>
	<path fill="url(#SVGID_6_)" d="M24.795,121.774c0.905-11.162,9.421-20.693,19.808-20.693c10.91,0,19.767,9.638,19.891,21.574h-24.3
		c-0.376-0.157-0.722-0.374-1.028-0.654l-8.202,0.224C29.019,122.084,26.856,121.927,24.795,121.774z"/>
	
		<linearGradient id="SVGID_7_" gradientUnits="userSpaceOnUse" x1="179.3379" y1="121.8516" x2="179.3379" y2="113.8809" gradientTransform="matrix(-1 0 0 1 195.2461 0)">
		<stop  offset="0" style="stop-color:#FFFFFF"/>
		<stop  offset="0.074" style="stop-color:#ECECEF"/>
		<stop  offset="0.1757" style="stop-color:#D8D8DF"/>
		<stop  offset="0.2446" style="stop-color:#D1D1D9"/>
		<stop  offset="0.5225" style="stop-color:#E1E1E6"/>
		<stop  offset="0.9239" style="stop-color:#F5F5F5"/>
		<stop  offset="1" style="stop-color:#D1D1D9"/>
	</linearGradient>
	<path fill="url(#SVGID_7_)" d="M5.516,113.88c0,0-0.528,0.409-0.451,1.238c0.075,0.83-0.077,1.866,1.275,3.251
		c1.353,1.382,7.809,4.011,19.371,3.388l1.049-7.538L5.516,113.88z"/>
	
		<linearGradient id="SVGID_8_" gradientUnits="userSpaceOnUse" x1="19.2954" y1="121.1641" x2="19.2954" y2="107.6924" gradientTransform="matrix(-1 0 0 1 195.2461 0)">
		<stop  offset="0" style="stop-color:#FFFFFF"/>
		<stop  offset="0.074" style="stop-color:#ECECEF"/>
		<stop  offset="0.1757" style="stop-color:#D8D8DF"/>
		<stop  offset="0.2446" style="stop-color:#D1D1D9"/>
		<stop  offset="0.5225" style="stop-color:#E1E1E6"/>
		<stop  offset="0.9239" style="stop-color:#F5F5F5"/>
		<stop  offset="1" style="stop-color:#D1D1D9"/>
	</linearGradient>
	<path fill="url(#SVGID_8_)" d="M195.038,110.198c0,1.808-1.984,7.388-4.087,7.388c0,0-26.19,3.399-26.211,3.324
		c-0.018-0.074-5.123,0.253-5.123,0.253l-2.753-12.014l37.068-1.458C193.933,107.691,195.038,108.388,195.038,110.198z"/>
	
		<linearGradient id="SVGID_9_" gradientUnits="userSpaceOnUse" x1="40.1968" y1="102.6221" x2="51.3754" y2="126.5763" gradientTransform="matrix(-1 0 0 1 195.2461 0)">
		<stop  offset="0.0109" style="stop-color:#ADA8BA"/>
		<stop  offset="0.1365" style="stop-color:#C0BCCA"/>
		<stop  offset="0.3309" style="stop-color:#D7D5DD"/>
		<stop  offset="0.5341" style="stop-color:#E8E7EA"/>
		<stop  offset="0.75" style="stop-color:#F2F2F2"/>
		<stop  offset="1" style="stop-color:#F5F5F5"/>
	</linearGradient>
	<path fill="url(#SVGID_9_)" d="M127.394,122.55c0.715-11.635,9.324-20.83,19.847-20.83c9.94,0,18.173,8.202,19.657,18.92
		l-1.738,0.226c-0.437,0.209-34.543,1.601-34.791,1.683C130.119,122.63,127.394,122.55,127.394,122.55z"/>
	<path fill="#3B3B3B" d="M63.731,86.784c-2.414-0.354,16.863-14.487,29.105-16.918c12.239-2.432,30.128-2.748,40.837-0.958
		c10.707,1.791,26.92,7.916,26.457,11.75c-0.464,3.837-3.634,4.998-3.634,4.998l-76.484,1.141
		C80.013,86.796,66.147,87.138,63.731,86.784z"/>
	
		<linearGradient id="SVGID_10_" gradientUnits="userSpaceOnUse" x1="150.9404" y1="123.7627" x2="150.9404" y2="104.4072" gradientTransform="matrix(-1 0 0 1 195.2461 0)">
		<stop  offset="0" style="stop-color:#3F3F3F"/>
		<stop  offset="0.1364" style="stop-color:#353535"/>
		<stop  offset="0.698" style="stop-color:#121212"/>
		<stop  offset="1" style="stop-color:#050505"/>
	</linearGradient>
	<path fill="url(#SVGID_10_)" d="M26.502,123.063c0.498-10.365,8.219-18.619,17.715-18.657c9.749-0.037,17.699,8.604,17.891,19.355
		H40.09c-0.196-0.118-0.384-0.252-0.558-0.408c0,0-4.766-0.02-9.528-0.06C28.866,123.219,27.679,123.143,26.502,123.063z"/>
	<g>
		
			<radialGradient id="SVGID_11_" cx="446.0967" cy="121.8457" r="13.9976" gradientTransform="matrix(1 0 0 1 -401.7012 0)" gradientUnits="userSpaceOnUse">
			<stop  offset="0" style="stop-color:#000000"/>
			<stop  offset="0.4184" style="stop-color:#020202"/>
			<stop  offset="0.5691" style="stop-color:#090909"/>
			<stop  offset="0.6765" style="stop-color:#141414"/>
			<stop  offset="0.7628" style="stop-color:#252525"/>
			<stop  offset="0.8364" style="stop-color:#3B3B3B"/>
			<stop  offset="0.8478" style="stop-color:#3F3F3F"/>
			<stop  offset="0.8803" style="stop-color:#454545"/>
			<stop  offset="0.9217" style="stop-color:#545454"/>
			<stop  offset="0.9676" style="stop-color:#6E6E6E"/>
			<stop  offset="1" style="stop-color:#858585"/>
		</radialGradient>
		<path fill="url(#SVGID_11_)" d="M58.393,121.848c0,7.729-6.268,13.996-13.996,13.996c-7.734,0-13.999-6.267-13.999-13.996
			c0-7.734,6.264-14,13.999-14C52.125,107.848,58.393,114.113,58.393,121.848z"/>
		
			<radialGradient id="SVGID_12_" cx="445.9277" cy="115.1094" r="10.5066" gradientTransform="matrix(1 0 0 1 -401.7012 0)" gradientUnits="userSpaceOnUse">
			<stop  offset="0" style="stop-color:#615E5E"/>
			<stop  offset="0.538" style="stop-color:#8A8A8A"/>
			<stop  offset="1" style="stop-color:#5E5C5C"/>
		</radialGradient>
		<path fill="url(#SVGID_12_)" d="M44.228,109.053c7.172,0,13.01,5.72,13.207,12.85c0-0.122,0.007-0.246,0.007-0.369
			c0-7.299-5.917-13.216-13.214-13.216c-7.299,0-13.215,5.917-13.215,13.216c0,0.123,0.008,0.247,0.008,0.369
			C31.214,114.772,37.052,109.053,44.228,109.053z"/>
		<g>
			
				<linearGradient id="SVGID_13_" gradientUnits="userSpaceOnUse" x1="446.1504" y1="130.5537" x2="446.1504" y2="113.1357" gradientTransform="matrix(1 0 0 1 -401.7012 0)">
				<stop  offset="0" style="stop-color:#BDBDBD"/>
				<stop  offset="0.08" style="stop-color:#A7A7A7"/>
				<stop  offset="0.1781" style="stop-color:#939393"/>
				<stop  offset="0.2446" style="stop-color:#8C8C8C"/>
				<stop  offset="0.7181" style="stop-color:#B6B6B6"/>
				<stop  offset="1" style="stop-color:#C9C9C9"/>
			</linearGradient>
			<path fill="url(#SVGID_13_)" d="M53.162,121.848c0,4.808-3.9,8.706-8.711,8.706c-4.813,0-8.712-3.898-8.712-8.706
				c0-4.811,3.9-8.712,8.712-8.712C49.262,113.136,53.162,117.037,53.162,121.848z"/>
			
				<linearGradient id="SVGID_14_" gradientUnits="userSpaceOnUse" x1="446.7363" y1="113.1357" x2="446.7363" y2="124.1025" gradientTransform="matrix(1 0 0 1 -401.7012 0)">
				<stop  offset="0" style="stop-color:#F5F5F5"/>
				<stop  offset="0.2541" style="stop-color:#D5D5D5"/>
				<stop  offset="0.5647" style="stop-color:#B4B4B4"/>
				<stop  offset="0.8245" style="stop-color:#A0A0A0"/>
				<stop  offset="1" style="stop-color:#999999"/>
			</linearGradient>
			<path fill="url(#SVGID_14_)" d="M44.451,113.136c-3.226,0-6.036,1.756-7.543,4.362c3.145,3.366,8.543,7.357,15.979,6.481
				c0.17-0.687,0.275-1.395,0.275-2.132C53.162,117.037,49.262,113.136,44.451,113.136z"/>
		</g>
		<path fill="#262626" d="M48.49,122.21c0,2.244-1.821,4.067-4.069,4.067c-2.249,0-4.065-1.823-4.065-4.067
			c0-2.243,1.816-4.068,4.065-4.068C46.668,118.142,48.49,119.967,48.49,122.21z"/>
		<g>
			
				<linearGradient id="SVGID_15_" gradientUnits="userSpaceOnUse" x1="446.1523" y1="125.6055" x2="446.1523" y2="118.0859" gradientTransform="matrix(1 0 0 1 -401.7012 0)">
				<stop  offset="0" style="stop-color:#3F3F3F"/>
				<stop  offset="0.1364" style="stop-color:#353535"/>
				<stop  offset="0.698" style="stop-color:#121212"/>
				<stop  offset="1" style="stop-color:#050505"/>
			</linearGradient>
			<path fill="url(#SVGID_15_)" d="M48.212,121.848c0,2.072-1.686,3.758-3.762,3.758c-2.077,0-3.76-1.686-3.76-3.758
				c0-2.077,1.683-3.762,3.76-3.762C46.527,118.086,48.212,119.771,48.212,121.848z"/>
			
				<linearGradient id="SVGID_16_" gradientUnits="userSpaceOnUse" x1="446.4063" y1="118.0859" x2="446.4063" y2="122.8203" gradientTransform="matrix(1 0 0 1 -401.7012 0)">
				<stop  offset="0" style="stop-color:#FFFFFF"/>
				<stop  offset="0.1038" style="stop-color:#E3E3E3"/>
				<stop  offset="0.3349" style="stop-color:#A9A9A9"/>
				<stop  offset="0.5482" style="stop-color:#7B7B7B"/>
				<stop  offset="0.737" style="stop-color:#5A5A5A"/>
				<stop  offset="0.894" style="stop-color:#464646"/>
				<stop  offset="1" style="stop-color:#3F3F3F"/>
			</linearGradient>
			<path fill="url(#SVGID_16_)" d="M44.451,118.086c-1.392,0-2.604,0.759-3.255,1.886c1.356,1.45,3.688,3.175,6.893,2.795
				c0.076-0.297,0.124-0.603,0.124-0.919C48.212,119.771,46.527,118.086,44.451,118.086z"/>
		</g>
		<g>
			<g>
				<g>
					
						<radialGradient id="SVGID_17_" cx="446.1523" cy="128.4912" r="0.856" gradientTransform="matrix(1 0 0 1 -401.7012 0)" gradientUnits="userSpaceOnUse">
						<stop  offset="0" style="stop-color:#050505"/>
						<stop  offset="0.4096" style="stop-color:#070707"/>
						<stop  offset="0.5603" style="stop-color:#0E0E0E"/>
						<stop  offset="0.6682" style="stop-color:#1A1A1A"/>
						<stop  offset="0.7552" style="stop-color:#2A2A2A"/>
						<stop  offset="0.8261" style="stop-color:#3F3F3F"/>
						<stop  offset="0.8632" style="stop-color:#454545"/>
						<stop  offset="0.9105" style="stop-color:#545454"/>
						<stop  offset="0.963" style="stop-color:#6E6E6E"/>
						<stop  offset="1" style="stop-color:#858585"/>
					</radialGradient>
					<path fill="url(#SVGID_17_)" d="M45.306,128.492c0,0.469-0.385,0.855-0.855,0.855c-0.472,0-0.856-0.387-0.856-0.855
						c0-0.472,0.384-0.857,0.856-0.857C44.921,127.635,45.306,128.021,45.306,128.492z"/>
				</g>
				<g>
					
						<radialGradient id="SVGID_18_" cx="446.1523" cy="115.2012" r="0.8564" gradientTransform="matrix(1 0 0 1 -401.7012 0)" gradientUnits="userSpaceOnUse">
						<stop  offset="0" style="stop-color:#050505"/>
						<stop  offset="0.4096" style="stop-color:#070707"/>
						<stop  offset="0.5603" style="stop-color:#0E0E0E"/>
						<stop  offset="0.6682" style="stop-color:#1A1A1A"/>
						<stop  offset="0.7552" style="stop-color:#2A2A2A"/>
						<stop  offset="0.8261" style="stop-color:#3F3F3F"/>
						<stop  offset="0.8632" style="stop-color:#454545"/>
						<stop  offset="0.9105" style="stop-color:#545454"/>
						<stop  offset="0.963" style="stop-color:#6E6E6E"/>
						<stop  offset="1" style="stop-color:#858585"/>
					</radialGradient>
					<circle fill="url(#SVGID_18_)" cx="44.45" cy="115.202" r="0.856"/>
				</g>
			</g>
			<g>
				<g>
					
						<radialGradient id="SVGID_19_" cx="368.3291" cy="516.165" r="0.8571" gradientTransform="matrix(0.7071 -0.7071 0.7071 0.7071 -576.3115 22.022)" gradientUnits="userSpaceOnUse">
						<stop  offset="0" style="stop-color:#050505"/>
						<stop  offset="0.4096" style="stop-color:#070707"/>
						<stop  offset="0.5603" style="stop-color:#0E0E0E"/>
						<stop  offset="0.6682" style="stop-color:#1A1A1A"/>
						<stop  offset="0.7552" style="stop-color:#2A2A2A"/>
						<stop  offset="0.8261" style="stop-color:#3F3F3F"/>
						<stop  offset="0.8632" style="stop-color:#454545"/>
						<stop  offset="0.9105" style="stop-color:#545454"/>
						<stop  offset="0.963" style="stop-color:#6E6E6E"/>
						<stop  offset="1" style="stop-color:#858585"/>
					</radialGradient>
					<path fill="url(#SVGID_19_)" d="M49.754,125.94c0.334,0.333,0.334,0.875,0,1.21c-0.334,0.331-0.879,0.331-1.213,0
						c-0.329-0.335-0.329-0.877,0-1.21C48.877,125.605,49.42,125.605,49.754,125.94z"/>
				</g>
				<g>
					
						<radialGradient id="SVGID_20_" cx="368.3301" cy="502.8779" r="0.8565" gradientTransform="matrix(0.7071 -0.7071 0.7071 0.7071 -576.3115 22.022)" gradientUnits="userSpaceOnUse">
						<stop  offset="0" style="stop-color:#050505"/>
						<stop  offset="0.4096" style="stop-color:#070707"/>
						<stop  offset="0.5603" style="stop-color:#0E0E0E"/>
						<stop  offset="0.6682" style="stop-color:#1A1A1A"/>
						<stop  offset="0.7552" style="stop-color:#2A2A2A"/>
						<stop  offset="0.8261" style="stop-color:#3F3F3F"/>
						<stop  offset="0.8632" style="stop-color:#454545"/>
						<stop  offset="0.9105" style="stop-color:#545454"/>
						<stop  offset="0.963" style="stop-color:#6E6E6E"/>
						<stop  offset="1" style="stop-color:#858585"/>
					</radialGradient>
					<circle fill="url(#SVGID_20_)" cx="39.751" cy="117.148" r="0.856"/>
				</g>
			</g>
			<g>
				<g>
					
						<radialGradient id="SVGID_21_" cx="39.1401" cy="735.1162" r="0.8557" gradientTransform="matrix(0 -1 1 0 -684.0215 160.9863)" gradientUnits="userSpaceOnUse">
						<stop  offset="0" style="stop-color:#050505"/>
						<stop  offset="0.4096" style="stop-color:#070707"/>
						<stop  offset="0.5603" style="stop-color:#0E0E0E"/>
						<stop  offset="0.6682" style="stop-color:#1A1A1A"/>
						<stop  offset="0.7552" style="stop-color:#2A2A2A"/>
						<stop  offset="0.8261" style="stop-color:#3F3F3F"/>
						<stop  offset="0.8632" style="stop-color:#454545"/>
						<stop  offset="0.9105" style="stop-color:#545454"/>
						<stop  offset="0.963" style="stop-color:#6E6E6E"/>
						<stop  offset="1" style="stop-color:#858585"/>
					</radialGradient>
					<path fill="url(#SVGID_21_)" d="M51.096,120.991c0.469,0,0.855,0.382,0.855,0.856c0,0.472-0.383,0.854-0.855,0.854
						c-0.472,0-0.858-0.382-0.858-0.854C50.238,121.373,50.624,120.991,51.096,120.991z"/>
				</g>
				<g>
					
						<radialGradient id="SVGID_22_" cx="39.1401" cy="721.8271" r="0.8557" gradientTransform="matrix(0 -1 1 0 -684.0215 160.9863)" gradientUnits="userSpaceOnUse">
						<stop  offset="0" style="stop-color:#050505"/>
						<stop  offset="0.4096" style="stop-color:#070707"/>
						<stop  offset="0.5603" style="stop-color:#0E0E0E"/>
						<stop  offset="0.6682" style="stop-color:#1A1A1A"/>
						<stop  offset="0.7552" style="stop-color:#2A2A2A"/>
						<stop  offset="0.8261" style="stop-color:#3F3F3F"/>
						<stop  offset="0.8632" style="stop-color:#454545"/>
						<stop  offset="0.9105" style="stop-color:#545454"/>
						<stop  offset="0.963" style="stop-color:#6E6E6E"/>
						<stop  offset="1" style="stop-color:#858585"/>
					</radialGradient>
					<path fill="url(#SVGID_22_)" d="M37.805,120.991c0.471,0,0.856,0.379,0.856,0.856c0,0.472-0.385,0.854-0.856,0.854
						c-0.472,0-0.856-0.382-0.856-0.854C36.949,121.373,37.333,120.991,37.805,120.991z"/>
				</g>
			</g>
			<g>
				<g>
					
						<radialGradient id="SVGID_23_" cx="-348.4326" cy="657.2764" r="0.8581" gradientTransform="matrix(-0.7071 -0.7071 0.7071 -0.7071 -661.9976 335.5967)" gradientUnits="userSpaceOnUse">
						<stop  offset="0" style="stop-color:#050505"/>
						<stop  offset="0.4096" style="stop-color:#070707"/>
						<stop  offset="0.5603" style="stop-color:#0E0E0E"/>
						<stop  offset="0.6682" style="stop-color:#1A1A1A"/>
						<stop  offset="0.7552" style="stop-color:#2A2A2A"/>
						<stop  offset="0.8261" style="stop-color:#3F3F3F"/>
						<stop  offset="0.8632" style="stop-color:#454545"/>
						<stop  offset="0.9105" style="stop-color:#545454"/>
						<stop  offset="0.963" style="stop-color:#6E6E6E"/>
						<stop  offset="1" style="stop-color:#858585"/>
					</radialGradient>
					<path fill="url(#SVGID_23_)" d="M48.542,116.541c0.334-0.333,0.879-0.333,1.213,0c0.334,0.337,0.334,0.879,0,1.213
						c-0.334,0.332-0.879,0.332-1.213,0C48.212,117.42,48.212,116.878,48.542,116.541z"/>
				</g>
				<g>
					
						<radialGradient id="SVGID_24_" cx="-348.4316" cy="643.9932" r="0.8556" gradientTransform="matrix(-0.7071 -0.7071 0.7071 -0.7071 -661.9976 335.5967)" gradientUnits="userSpaceOnUse">
						<stop  offset="0" style="stop-color:#050505"/>
						<stop  offset="0.4096" style="stop-color:#070707"/>
						<stop  offset="0.5603" style="stop-color:#0E0E0E"/>
						<stop  offset="0.6682" style="stop-color:#1A1A1A"/>
						<stop  offset="0.7552" style="stop-color:#2A2A2A"/>
						<stop  offset="0.8261" style="stop-color:#3F3F3F"/>
						<stop  offset="0.8632" style="stop-color:#454545"/>
						<stop  offset="0.9105" style="stop-color:#545454"/>
						<stop  offset="0.963" style="stop-color:#6E6E6E"/>
						<stop  offset="1" style="stop-color:#858585"/>
					</radialGradient>
					<path fill="url(#SVGID_24_)" d="M39.146,125.94c0.334-0.335,0.874-0.335,1.21,0c0.334,0.333,0.334,0.875,0,1.21
						c-0.336,0.331-0.876,0.331-1.21,0C38.813,126.815,38.813,126.273,39.146,125.94z"/>
				</g>
			</g>
		</g>
	</g>
	
		<linearGradient id="SVGID_25_" gradientUnits="userSpaceOnUse" x1="48.0146" y1="123.6621" x2="48.0146" y2="103.9258" gradientTransform="matrix(-1 0 0 1 195.2461 0)">
		<stop  offset="0" style="stop-color:#3F3F3F"/>
		<stop  offset="0.1364" style="stop-color:#353535"/>
		<stop  offset="0.698" style="stop-color:#121212"/>
		<stop  offset="1" style="stop-color:#050505"/>
	</linearGradient>
	<path fill="url(#SVGID_25_)" d="M147.279,103.925c9.212,0,16.79,7.741,17.728,17.669c-2.476,0.379-14.18,1.691-18.291,2.067
		h-17.259C129.457,112.762,137.436,103.925,147.279,103.925z"/>
	<g>
		
			<radialGradient id="SVGID_26_" cx="548.9824" cy="121.3623" r="13.9971" gradientTransform="matrix(1 0 0 1 -401.7012 0)" gradientUnits="userSpaceOnUse">
			<stop  offset="0" style="stop-color:#000000"/>
			<stop  offset="0.4184" style="stop-color:#020202"/>
			<stop  offset="0.5691" style="stop-color:#090909"/>
			<stop  offset="0.6765" style="stop-color:#141414"/>
			<stop  offset="0.7628" style="stop-color:#252525"/>
			<stop  offset="0.8364" style="stop-color:#3B3B3B"/>
			<stop  offset="0.8478" style="stop-color:#3F3F3F"/>
			<stop  offset="0.8803" style="stop-color:#454545"/>
			<stop  offset="0.9217" style="stop-color:#545454"/>
			<stop  offset="0.9676" style="stop-color:#6E6E6E"/>
			<stop  offset="1" style="stop-color:#858585"/>
		</radialGradient>
		<path fill="url(#SVGID_26_)" d="M161.277,121.363c0,7.729-6.269,13.997-13.998,13.997c-7.73,0-13.994-6.268-13.994-13.997
			c0-7.733,6.264-13.999,13.994-13.999C155.009,107.364,161.277,113.63,161.277,121.363z"/>
		
			<radialGradient id="SVGID_27_" cx="548.8135" cy="114.626" r="10.506" gradientTransform="matrix(1 0 0 1 -401.7012 0)" gradientUnits="userSpaceOnUse">
			<stop  offset="0" style="stop-color:#615E5E"/>
			<stop  offset="0.538" style="stop-color:#8A8A8A"/>
			<stop  offset="1" style="stop-color:#5E5C5C"/>
		</radialGradient>
		<path fill="url(#SVGID_27_)" d="M147.114,108.569c7.172,0,13.007,5.717,13.204,12.85c0-0.122,0.008-0.246,0.008-0.369
			c0-7.3-5.917-13.217-13.212-13.217c-7.299,0-13.216,5.917-13.216,13.217c0,0.123,0.003,0.247,0.003,0.369
			C134.099,114.286,139.938,108.569,147.114,108.569z"/>
		<g>
			
				<linearGradient id="SVGID_28_" gradientUnits="userSpaceOnUse" x1="549.0371" y1="130.0713" x2="549.0371" y2="112.6514" gradientTransform="matrix(1 0 0 1 -401.7012 0)">
				<stop  offset="0" style="stop-color:#BDBDBD"/>
				<stop  offset="0.08" style="stop-color:#A7A7A7"/>
				<stop  offset="0.1781" style="stop-color:#939393"/>
				<stop  offset="0.2446" style="stop-color:#8C8C8C"/>
				<stop  offset="0.7181" style="stop-color:#B6B6B6"/>
				<stop  offset="1" style="stop-color:#C9C9C9"/>
			</linearGradient>
			<circle fill="url(#SVGID_28_)" cx="147.336" cy="121.363" r="8.711"/>
			
				<linearGradient id="SVGID_29_" gradientUnits="userSpaceOnUse" x1="549.6211" y1="112.6514" x2="549.6211" y2="123.6172" gradientTransform="matrix(1 0 0 1 -401.7012 0)">
				<stop  offset="0" style="stop-color:#F5F5F5"/>
				<stop  offset="0.2541" style="stop-color:#D5D5D5"/>
				<stop  offset="0.5647" style="stop-color:#B4B4B4"/>
				<stop  offset="0.8245" style="stop-color:#A0A0A0"/>
				<stop  offset="1" style="stop-color:#999999"/>
			</linearGradient>
			<path fill="url(#SVGID_29_)" d="M147.334,112.651c-3.225,0-6.034,1.756-7.541,4.363c3.144,3.364,8.543,7.357,15.978,6.479
				c0.172-0.686,0.276-1.395,0.276-2.131C156.047,116.552,152.146,112.651,147.334,112.651z"/>
		</g>
		<path fill="#262626" d="M151.376,121.726c0,2.245-1.821,4.067-4.068,4.067c-2.251,0-4.067-1.822-4.067-4.067
			s1.816-4.069,4.067-4.069C149.555,117.656,151.376,119.48,151.376,121.726z"/>
		<g>
			
				<linearGradient id="SVGID_30_" gradientUnits="userSpaceOnUse" x1="549.0371" y1="125.1221" x2="549.0371" y2="117.6016" gradientTransform="matrix(1 0 0 1 -401.7012 0)">
				<stop  offset="0" style="stop-color:#3F3F3F"/>
				<stop  offset="0.1364" style="stop-color:#353535"/>
				<stop  offset="0.698" style="stop-color:#121212"/>
				<stop  offset="1" style="stop-color:#050505"/>
			</linearGradient>
			<path fill="url(#SVGID_30_)" d="M151.096,121.363c0,2.072-1.683,3.759-3.762,3.759c-2.077,0-3.757-1.687-3.757-3.759
				c0-2.076,1.68-3.762,3.757-3.762C149.413,117.602,151.096,119.287,151.096,121.363z"/>
			
				<linearGradient id="SVGID_31_" gradientUnits="userSpaceOnUse" x1="549.2891" y1="117.6016" x2="549.2891" y2="122.335" gradientTransform="matrix(1 0 0 1 -401.7012 0)">
				<stop  offset="0" style="stop-color:#FFFFFF"/>
				<stop  offset="0.1038" style="stop-color:#E3E3E3"/>
				<stop  offset="0.3349" style="stop-color:#A9A9A9"/>
				<stop  offset="0.5482" style="stop-color:#7B7B7B"/>
				<stop  offset="0.737" style="stop-color:#5A5A5A"/>
				<stop  offset="0.894" style="stop-color:#464646"/>
				<stop  offset="1" style="stop-color:#3F3F3F"/>
			</linearGradient>
			<path fill="url(#SVGID_31_)" d="M147.334,117.602c-1.389,0-2.602,0.759-3.253,1.885c1.354,1.45,3.688,3.175,6.893,2.796
				c0.076-0.298,0.122-0.602,0.122-0.919C151.096,119.287,149.413,117.602,147.334,117.602z"/>
		</g>
		<g>
			<g>
				<g>
					
						<radialGradient id="SVGID_32_" cx="549.0371" cy="128.0068" r="0.8555" gradientTransform="matrix(1 0 0 1 -401.7012 0)" gradientUnits="userSpaceOnUse">
						<stop  offset="0" style="stop-color:#050505"/>
						<stop  offset="0.4096" style="stop-color:#070707"/>
						<stop  offset="0.5603" style="stop-color:#0E0E0E"/>
						<stop  offset="0.6682" style="stop-color:#1A1A1A"/>
						<stop  offset="0.7552" style="stop-color:#2A2A2A"/>
						<stop  offset="0.8261" style="stop-color:#3F3F3F"/>
						<stop  offset="0.8632" style="stop-color:#454545"/>
						<stop  offset="0.9105" style="stop-color:#545454"/>
						<stop  offset="0.963" style="stop-color:#6E6E6E"/>
						<stop  offset="1" style="stop-color:#858585"/>
					</radialGradient>
					<circle fill="url(#SVGID_32_)" cx="147.335" cy="128.008" r="0.855"/>
				</g>
				<g>
					
						<radialGradient id="SVGID_33_" cx="549.0371" cy="114.7168" r="0.8555" gradientTransform="matrix(1 0 0 1 -401.7012 0)" gradientUnits="userSpaceOnUse">
						<stop  offset="0" style="stop-color:#050505"/>
						<stop  offset="0.4096" style="stop-color:#070707"/>
						<stop  offset="0.5603" style="stop-color:#0E0E0E"/>
						<stop  offset="0.6682" style="stop-color:#1A1A1A"/>
						<stop  offset="0.7552" style="stop-color:#2A2A2A"/>
						<stop  offset="0.8261" style="stop-color:#3F3F3F"/>
						<stop  offset="0.8632" style="stop-color:#454545"/>
						<stop  offset="0.9105" style="stop-color:#545454"/>
						<stop  offset="0.963" style="stop-color:#6E6E6E"/>
						<stop  offset="1" style="stop-color:#858585"/>
					</radialGradient>
					<path fill="url(#SVGID_33_)" d="M148.19,114.716c0,0.474-0.383,0.857-0.856,0.857c-0.47,0-0.854-0.384-0.854-0.857
						c0-0.471,0.384-0.856,0.854-0.856C147.808,113.859,148.19,114.245,148.19,114.716z"/>
				</g>
			</g>
			<g>
				<g>
					
						<radialGradient id="SVGID_34_" cx="441.4355" cy="588.5898" r="0.8596" gradientTransform="matrix(0.7071 -0.7071 0.7071 0.7071 -576.3115 22.022)" gradientUnits="userSpaceOnUse">
						<stop  offset="0" style="stop-color:#050505"/>
						<stop  offset="0.4096" style="stop-color:#070707"/>
						<stop  offset="0.5603" style="stop-color:#0E0E0E"/>
						<stop  offset="0.6682" style="stop-color:#1A1A1A"/>
						<stop  offset="0.7552" style="stop-color:#2A2A2A"/>
						<stop  offset="0.8261" style="stop-color:#3F3F3F"/>
						<stop  offset="0.8632" style="stop-color:#454545"/>
						<stop  offset="0.9105" style="stop-color:#545454"/>
						<stop  offset="0.963" style="stop-color:#6E6E6E"/>
						<stop  offset="1" style="stop-color:#858585"/>
					</radialGradient>
					<path fill="url(#SVGID_34_)" d="M152.641,125.455c0.334,0.334,0.334,0.875,0,1.212c-0.335,0.331-0.879,0.331-1.214,0
						c-0.331-0.337-0.331-0.878,0-1.212C151.764,125.122,152.306,125.122,152.641,125.455z"/>
				</g>
				<g>
					
						<radialGradient id="SVGID_35_" cx="441.4346" cy="575.2969" r="0.8569" gradientTransform="matrix(0.7071 -0.7071 0.7071 0.7071 -576.3115 22.022)" gradientUnits="userSpaceOnUse">
						<stop  offset="0" style="stop-color:#050505"/>
						<stop  offset="0.4096" style="stop-color:#070707"/>
						<stop  offset="0.5603" style="stop-color:#0E0E0E"/>
						<stop  offset="0.6682" style="stop-color:#1A1A1A"/>
						<stop  offset="0.7552" style="stop-color:#2A2A2A"/>
						<stop  offset="0.8261" style="stop-color:#3F3F3F"/>
						<stop  offset="0.8632" style="stop-color:#454545"/>
						<stop  offset="0.9105" style="stop-color:#545454"/>
						<stop  offset="0.963" style="stop-color:#6E6E6E"/>
						<stop  offset="1" style="stop-color:#858585"/>
					</radialGradient>
					<path fill="url(#SVGID_35_)" d="M143.243,116.061c0.334,0.332,0.334,0.874,0,1.208c-0.335,0.333-0.879,0.333-1.214,0
						c-0.331-0.332-0.331-0.876,0-1.21C142.364,115.725,142.908,115.725,143.243,116.061z"/>
				</g>
			</g>
			<g>
				<g>
					
						<radialGradient id="SVGID_36_" cx="39.6235" cy="838.002" r="0.8562" gradientTransform="matrix(0 -1 1 0 -684.0215 160.9863)" gradientUnits="userSpaceOnUse">
						<stop  offset="0" style="stop-color:#050505"/>
						<stop  offset="0.4096" style="stop-color:#070707"/>
						<stop  offset="0.5603" style="stop-color:#0E0E0E"/>
						<stop  offset="0.6682" style="stop-color:#1A1A1A"/>
						<stop  offset="0.7552" style="stop-color:#2A2A2A"/>
						<stop  offset="0.8261" style="stop-color:#3F3F3F"/>
						<stop  offset="0.8632" style="stop-color:#454545"/>
						<stop  offset="0.9105" style="stop-color:#545454"/>
						<stop  offset="0.963" style="stop-color:#6E6E6E"/>
						<stop  offset="1" style="stop-color:#858585"/>
					</radialGradient>
					<path fill="url(#SVGID_36_)" d="M153.979,120.508c0.472,0,0.858,0.38,0.858,0.855c0,0.471-0.385,0.854-0.858,0.854
						c-0.471,0-0.855-0.384-0.855-0.854C153.124,120.888,153.509,120.508,153.979,120.508z"/>
				</g>
				<g>
					
						<radialGradient id="SVGID_37_" cx="39.6235" cy="824.7139" r="0.8557" gradientTransform="matrix(0 -1 1 0 -684.0215 160.9863)" gradientUnits="userSpaceOnUse">
						<stop  offset="0" style="stop-color:#050505"/>
						<stop  offset="0.4096" style="stop-color:#070707"/>
						<stop  offset="0.5603" style="stop-color:#0E0E0E"/>
						<stop  offset="0.6682" style="stop-color:#1A1A1A"/>
						<stop  offset="0.7552" style="stop-color:#2A2A2A"/>
						<stop  offset="0.8261" style="stop-color:#3F3F3F"/>
						<stop  offset="0.8632" style="stop-color:#454545"/>
						<stop  offset="0.9105" style="stop-color:#545454"/>
						<stop  offset="0.963" style="stop-color:#6E6E6E"/>
						<stop  offset="1" style="stop-color:#858585"/>
					</radialGradient>
					<path fill="url(#SVGID_37_)" d="M140.692,120.508c0.471,0,0.856,0.378,0.856,0.855c0,0.471-0.386,0.854-0.856,0.854
						c-0.475,0-0.856-0.384-0.856-0.854C139.836,120.888,140.218,120.508,140.692,120.508z"/>
				</g>
			</g>
			<g>
				<g>
					
						<radialGradient id="SVGID_38_" cx="-420.8408" cy="730.377" r="0.8572" gradientTransform="matrix(-0.7071 -0.7071 0.7071 -0.7071 -661.9976 335.5967)" gradientUnits="userSpaceOnUse">
						<stop  offset="0" style="stop-color:#050505"/>
						<stop  offset="0.4096" style="stop-color:#070707"/>
						<stop  offset="0.5603" style="stop-color:#0E0E0E"/>
						<stop  offset="0.6682" style="stop-color:#1A1A1A"/>
						<stop  offset="0.7552" style="stop-color:#2A2A2A"/>
						<stop  offset="0.8261" style="stop-color:#3F3F3F"/>
						<stop  offset="0.8632" style="stop-color:#454545"/>
						<stop  offset="0.9105" style="stop-color:#545454"/>
						<stop  offset="0.963" style="stop-color:#6E6E6E"/>
						<stop  offset="1" style="stop-color:#858585"/>
					</radialGradient>
					<path fill="url(#SVGID_38_)" d="M151.427,116.059c0.335-0.334,0.879-0.334,1.214,0c0.334,0.334,0.334,0.878,0,1.21
						c-0.335,0.333-0.879,0.333-1.214,0C151.096,116.937,151.096,116.393,151.427,116.059z"/>
				</g>
				<g>
					
						<radialGradient id="SVGID_39_" cx="-420.8394" cy="717.0898" r="0.8582" gradientTransform="matrix(-0.7071 -0.7071 0.7071 -0.7071 -661.9976 335.5967)" gradientUnits="userSpaceOnUse">
						<stop  offset="0" style="stop-color:#050505"/>
						<stop  offset="0.4096" style="stop-color:#070707"/>
						<stop  offset="0.5603" style="stop-color:#0E0E0E"/>
						<stop  offset="0.6682" style="stop-color:#1A1A1A"/>
						<stop  offset="0.7552" style="stop-color:#2A2A2A"/>
						<stop  offset="0.8261" style="stop-color:#3F3F3F"/>
						<stop  offset="0.8632" style="stop-color:#454545"/>
						<stop  offset="0.9105" style="stop-color:#545454"/>
						<stop  offset="0.963" style="stop-color:#6E6E6E"/>
						<stop  offset="1" style="stop-color:#858585"/>
					</radialGradient>
					<path fill="url(#SVGID_39_)" d="M142.029,125.455c0.335-0.333,0.879-0.333,1.214,0c0.334,0.334,0.334,0.875,0,1.212
						c-0.335,0.331-0.879,0.331-1.214,0C141.698,126.33,141.698,125.789,142.029,125.455z"/>
				</g>
			</g>
		</g>
	</g>
	
		<linearGradient id="SVGID_40_" gradientUnits="userSpaceOnUse" x1="182.1748" y1="105.418" x2="182.1748" y2="93.7793" gradientTransform="matrix(-1 0 0 1 195.2461 0)">
		<stop  offset="0.0109" style="stop-color:#ADA8BA"/>
		<stop  offset="0.169" style="stop-color:#96929F"/>
		<stop  offset="0.356" style="stop-color:#817F86"/>
		<stop  offset="0.5517" style="stop-color:#727174"/>
		<stop  offset="0.7595" style="stop-color:#696969"/>
		<stop  offset="1" style="stop-color:#666666"/>
	</linearGradient>
	<path fill="url(#SVGID_40_)" d="M5.361,105.417c0.325-1.559,0.833-2.951,1.536-4.038c1.42-2.2,6.798-4.938,13.508-7.6
		c0.727,3.426,0.827,8.306-3.775,9.971C12.893,105.104,8.643,105.426,5.361,105.417z"/>
	
		<linearGradient id="SVGID_41_" gradientUnits="userSpaceOnUse" x1="183.0547" y1="92.8555" x2="182.4323" y2="103.4351" gradientTransform="matrix(-1 0 0 1 195.2461 0)">
		<stop  offset="0" style="stop-color:#FFFFFF"/>
		<stop  offset="0.2017" style="stop-color:#FBFBFC"/>
		<stop  offset="0.4042" style="stop-color:#EFEFF2"/>
		<stop  offset="0.6066" style="stop-color:#DBDBE1"/>
		<stop  offset="0.6848" style="stop-color:#D1D1D9"/>
		<stop  offset="0.7216" style="stop-color:#D6D6DD"/>
		<stop  offset="0.8804" style="stop-color:#EAEAEC"/>
		<stop  offset="1" style="stop-color:#D1D1D9"/>
	</linearGradient>
	<path fill="url(#SVGID_41_)" d="M5.517,105.262c0.303-1.454,0.776-2.753,1.427-3.768c1.321-2.053,6.318-4.608,12.555-7.093
		c0.673,3.196,0.768,7.749-3.508,9.306C12.519,104.969,8.57,105.27,5.517,105.262z"/>
	
		<linearGradient id="SVGID_42_" gradientUnits="userSpaceOnUse" x1="8.9814" y1="101.2656" x2="8.9814" y2="89.9092" gradientTransform="matrix(-1 0 0 1 195.2461 0)">
		<stop  offset="0.0109" style="stop-color:#ADA8BA"/>
		<stop  offset="0.169" style="stop-color:#96929F"/>
		<stop  offset="0.356" style="stop-color:#817F86"/>
		<stop  offset="0.5517" style="stop-color:#727174"/>
		<stop  offset="0.7595" style="stop-color:#696969"/>
		<stop  offset="1" style="stop-color:#666666"/>
	</linearGradient>
	<path fill="url(#SVGID_42_)" d="M193.57,89.964v11.06c-4.763,0.237-14.61,0.591-14.61-0.582c0-1.543,6.452-8.382,8.232-9.704
		C188.422,89.82,191.681,89.855,193.57,89.964z"/>
	
		<linearGradient id="SVGID_43_" gradientUnits="userSpaceOnUse" x1="8.5405" y1="100.9536" x2="8.5405" y2="90.2725" gradientTransform="matrix(-1 0 0 1 195.2461 0)">
		<stop  offset="0" style="stop-color:#FFBF00"/>
		<stop  offset="0.0295" style="stop-color:#FFA900"/>
		<stop  offset="0.0981" style="stop-color:#FF7C00"/>
		<stop  offset="0.1593" style="stop-color:#FF5B00"/>
		<stop  offset="0.2102" style="stop-color:#FF4700"/>
		<stop  offset="0.2446" style="stop-color:#FF4000"/>
		<stop  offset="0.2452" style="stop-color:#FF5C1A"/>
		<stop  offset="0.2462" style="stop-color:#FF7B37"/>
		<stop  offset="0.2473" style="stop-color:#FF9750"/>
		<stop  offset="0.2485" style="stop-color:#FFAD64"/>
		<stop  offset="0.2499" style="stop-color:#FFBE74"/>
		<stop  offset="0.2516" style="stop-color:#FFC97F"/>
		<stop  offset="0.2541" style="stop-color:#FFD085"/>
		<stop  offset="0.2609" style="stop-color:#FFD287"/>
		<stop  offset="0.8587" style="stop-color:#FFEBBD"/>
		<stop  offset="0.9239" style="stop-color:#FFDB8F"/>
		<stop  offset="1" style="stop-color:#FF7F00"/>
	</linearGradient>
	<path fill="url(#SVGID_43_)" d="M193.517,90.325v10.402c-4.438,0.224-13.621,0.553-13.621-0.548c0-1.453,6.016-7.883,7.675-9.129
		C188.718,90.188,191.757,90.223,193.517,90.325z"/>
	<path fill="#666666" d="M133.018,69.88L133.018,69.88c12.169,2.036,25.772,8.174,25.772,10.751c0,0.027,0,0.057-0.005,0.083
		c-0.354,2.941-2.482,4.048-2.98,4.269c-0.322,0.004-76.323,1.139-76.323,1.139c-4.193,0.104-12.014,0.23-15.129,0.077
		c3.035-3.148,17.751-13.303,28.128-15.364C104.331,68.481,122.139,68.062,133.018,69.88z"/>
	
		<linearGradient id="SVGID_44_" gradientUnits="userSpaceOnUse" x1="31.3896" y1="77.3555" x2="123.1059" y2="77.3555" gradientTransform="matrix(-1 0 0 1 195.2461 0)">
		<stop  offset="0.0054" style="stop-color:#8C8C8C"/>
		<stop  offset="0.0318" style="stop-color:#7B7B7B"/>
		<stop  offset="0.0904" style="stop-color:#5C5C5C"/>
		<stop  offset="0.1566" style="stop-color:#404040"/>
		<stop  offset="0.2316" style="stop-color:#2A2A2A"/>
		<stop  offset="0.319" style="stop-color:#191919"/>
		<stop  offset="0.4272" style="stop-color:#0E0E0E"/>
		<stop  offset="0.5789" style="stop-color:#070707"/>
		<stop  offset="1" style="stop-color:#050505"/>
	</linearGradient>
	<path fill="url(#SVGID_44_)" d="M133.12,69.725L133.12,69.725c12.171,2.035,25.775,8.173,25.775,10.751
		c0,0.027-0.001,0.056-0.006,0.083c-0.353,2.938-2.485,4.049-2.979,4.269c-0.322,0.005-76.323,1.138-76.323,1.138
		c-4.195,0.105-12.017,0.23-15.132,0.078c3.036-3.147,17.752-13.305,28.128-15.363C104.436,68.326,122.241,67.906,133.12,69.725z"/>
	<g>
		<polygon fill="#FFFFFF" points="107.659,68.172 107.624,119.751 107.207,119.751 107.175,68.264 		"/>
	</g>
	<g>
		<polygon fill="#666666" points="108.004,68.034 107.969,120.027 107.556,120.027 107.52,68.125 		"/>
	</g>
	
		<linearGradient id="SVGID_45_" gradientUnits="userSpaceOnUse" x1="88.2065" y1="67.9932" x2="88.2065" y2="86.438" gradientTransform="matrix(-1 0 0 1 195.2461 0)">
		<stop  offset="0.0054" style="stop-color:#8C8C8C"/>
		<stop  offset="0.1129" style="stop-color:#727272"/>
		<stop  offset="0.3007" style="stop-color:#4B4B4B"/>
		<stop  offset="0.4866" style="stop-color:#2D2D2D"/>
		<stop  offset="0.6676" style="stop-color:#171717"/>
		<stop  offset="0.8413" style="stop-color:#090909"/>
		<stop  offset="1" style="stop-color:#050505"/>
	</linearGradient>
	<path fill="url(#SVGID_45_)" d="M110.035,86.348l-5.992,0.09c0.182-1.49,1.682-15.32,1.999-18.265
		c0.929-0.069,1.863-0.129,2.798-0.18L110.035,86.348z"/>
	
		<linearGradient id="SVGID_46_" gradientUnits="userSpaceOnUse" x1="53.9063" y1="68.8242" x2="53.9063" y2="85.8594" gradientTransform="matrix(-1 0 0 1 195.2461 0)">
		<stop  offset="0.0054" style="stop-color:#8C8C8C"/>
		<stop  offset="0.1129" style="stop-color:#727272"/>
		<stop  offset="0.3007" style="stop-color:#4B4B4B"/>
		<stop  offset="0.4866" style="stop-color:#2D2D2D"/>
		<stop  offset="0.6676" style="stop-color:#171717"/>
		<stop  offset="0.8413" style="stop-color:#090909"/>
		<stop  offset="1" style="stop-color:#050505"/>
	</linearGradient>
	<path fill="url(#SVGID_46_)" d="M137.52,69.68l12.022,16.079l-6.661,0.1c-2.899-5.077-7.582-13.261-9.744-17.035
		c0.18,0.026,0.362,0.054,0.537,0.083C134.895,69.111,136.188,69.372,137.52,69.68z"/>
	<path fill="#FFFFFF" d="M69.079,87.161c-0.164,4.839-0.806,24.053-0.806,28.402c0,1.526,0.416,2.685,1.233,3.436
		c1.199,1.1,2.88,0.958,2.896,0.955c0.231,0.005,20.908,0.485,38.883,0.141c13.172-0.252,14.624-3.383,16.63-7.715
		c0.731-1.573,1.559-3.358,3.063-5.18c4.301-5.199,10.034-5.948,13.461-6.396c1.023-0.134,1.834-0.24,2.323-0.426
		c0.29-0.11,0.54-0.505,0.72-1.142c0.913-3.195-0.081-11.308-0.813-12.27c-0.104-0.139-0.338-0.473-0.662-0.946l0.497-0.008
		c0.241,0.346,0.412,0.589,0.495,0.701c0.779,1.027,1.843,9.26,0.882,12.638c-0.223,0.791-0.545,1.256-0.973,1.418
		c-0.536,0.203-1.365,0.313-2.417,0.448c-3.367,0.44-8.999,1.178-13.194,6.252c-1.47,1.776-2.285,3.536-3.005,5.088
		c-1.993,4.301-3.566,7.697-17.001,7.954c-17.982,0.344-38.667-0.134-38.874-0.14c-0.052,0.008-1.854,0.164-3.19-1.062
		c-0.907-0.835-1.371-2.095-1.371-3.747c0-4.349,0.642-23.538,0.805-28.403C68.8,87.161,68.938,87.161,69.079,87.161z"/>
	<path fill="#666666" d="M69.079,86.944c-0.164,4.801-0.806,23.861-0.806,28.174c0,1.517,0.416,2.663,1.233,3.409
		c1.199,1.092,2.88,0.948,2.896,0.948c0.231,0.004,20.908,0.479,38.883,0.137c13.172-0.251,14.624-3.354,16.63-7.65
		c0.731-1.563,1.559-3.333,3.063-5.138c4.301-5.158,10.034-5.902,13.461-6.348c1.023-0.133,1.834-0.236,2.323-0.423
		c0.29-0.108,0.54-0.499,0.72-1.133c0.913-3.171-0.081-11.214-0.813-12.171c-0.104-0.137-0.338-0.468-0.662-0.938l0.497-0.006
		c0.241,0.342,0.412,0.582,0.495,0.694c0.779,1.019,1.843,9.186,0.882,12.536c-0.223,0.787-0.545,1.245-0.973,1.407
		c-0.536,0.201-1.365,0.31-2.417,0.445c-3.367,0.438-8.999,1.168-13.194,6.203c-1.47,1.762-2.285,3.506-3.005,5.046
		c-1.993,4.268-3.566,7.637-17.001,7.891c-17.982,0.343-38.667-0.134-38.874-0.139c-0.052,0.007-1.854,0.163-3.19-1.051
		c-0.907-0.828-1.371-2.08-1.371-3.72c0-4.315,0.642-23.349,0.805-28.174C68.8,86.944,68.938,86.944,69.079,86.944z"/>
	
		<linearGradient id="SVGID_47_" gradientUnits="userSpaceOnUse" x1="48.7412" y1="77.4497" x2="60.5508" y2="77.4497" gradientTransform="matrix(-1 0 0 1 195.2461 0)">
		<stop  offset="0.0054" style="stop-color:#8C8C8C"/>
		<stop  offset="0.0318" style="stop-color:#7B7B7B"/>
		<stop  offset="0.0904" style="stop-color:#5C5C5C"/>
		<stop  offset="0.1566" style="stop-color:#404040"/>
		<stop  offset="0.2316" style="stop-color:#2A2A2A"/>
		<stop  offset="0.319" style="stop-color:#191919"/>
		<stop  offset="0.4272" style="stop-color:#0E0E0E"/>
		<stop  offset="0.5789" style="stop-color:#070707"/>
		<stop  offset="1" style="stop-color:#050505"/>
	</linearGradient>
	<path fill="url(#SVGID_47_)" d="M146.505,85.805l-0.497,0.006c-2.21-3.185-9.864-14.57-11.313-16.724
		c0.185,0.036,0.37,0.071,0.557,0.108C136.915,71.666,144.497,82.92,146.505,85.805z"/>
	
		<linearGradient id="SVGID_48_" gradientUnits="userSpaceOnUse" x1="87.7969" y1="86.3906" x2="87.7969" y2="68.0649" gradientTransform="matrix(-1 0 0 1 195.2461 0)">
		<stop  offset="0.0054" style="stop-color:#8C8C8C"/>
		<stop  offset="0.3297" style="stop-color:#898989"/>
		<stop  offset="0.5301" style="stop-color:#818181"/>
		<stop  offset="0.6969" style="stop-color:#727272"/>
		<stop  offset="0.8452" style="stop-color:#5E5E5E"/>
		<stop  offset="0.9801" style="stop-color:#444444"/>
		<stop  offset="1" style="stop-color:#3F3F3F"/>
	</linearGradient>
	<path fill="url(#SVGID_48_)" d="M107.682,86.384l-0.463,0.007l-0.012-18.294c0.162-0.01,0.325-0.021,0.485-0.031L107.682,86.384z"
		/>
	
		<linearGradient id="SVGID_49_" gradientUnits="userSpaceOnUse" x1="87.4849" y1="86.3857" x2="87.4849" y2="68.0464" gradientTransform="matrix(-1 0 0 1 195.2461 0)">
		<stop  offset="0.0054" style="stop-color:#8C8C8C"/>
		<stop  offset="0.0318" style="stop-color:#7B7B7B"/>
		<stop  offset="0.0904" style="stop-color:#5C5C5C"/>
		<stop  offset="0.1566" style="stop-color:#404040"/>
		<stop  offset="0.2316" style="stop-color:#2A2A2A"/>
		<stop  offset="0.319" style="stop-color:#191919"/>
		<stop  offset="0.4272" style="stop-color:#0E0E0E"/>
		<stop  offset="0.5789" style="stop-color:#070707"/>
		<stop  offset="1" style="stop-color:#050505"/>
	</linearGradient>
	<path fill="url(#SVGID_49_)" d="M107.992,86.38l-0.46,0.006l-0.013-18.261l0.382-0.071c0.034-0.002,0.068-0.006,0.103-0.007
		L107.992,86.38z"/>
	<path fill="#3F3F3F" d="M74.303,86.983c0,0,0.504,1.63,0.733,2.167c0.229,0.537,2.076,1.817,0.302,1.936
		c-1.773,0.12-3.232,0.033-2.42-1.393c0.811-1.427-0.226-3.506-0.226-3.506L74.303,86.983z"/>
	<g>
		
			<linearGradient id="SVGID_50_" gradientUnits="userSpaceOnUse" x1="122.5947" y1="81.8906" x2="122.0926" y2="88.8783" gradientTransform="matrix(-1 0 0 1 195.2461 0)">
			<stop  offset="0" style="stop-color:#FFFFFF"/>
			<stop  offset="0.0889" style="stop-color:#ECECEF"/>
			<stop  offset="0.2108" style="stop-color:#D8D8DF"/>
			<stop  offset="0.2935" style="stop-color:#D1D1D9"/>
			<stop  offset="0.3894" style="stop-color:#D6D6DD"/>
			<stop  offset="0.5018" style="stop-color:#E4E4E8"/>
			<stop  offset="0.5924" style="stop-color:#F5F5F5"/>
			<stop  offset="0.675" style="stop-color:#F9F9F9"/>
			<stop  offset="0.7228" style="stop-color:#FFFFFF"/>
			<stop  offset="0.7826" style="stop-color:#E2E1E4"/>
			<stop  offset="0.8207" style="stop-color:#DEDEE2"/>
			<stop  offset="0.8859" style="stop-color:#F5F5F5"/>
			<stop  offset="1" style="stop-color:#D1D1D9"/>
		</linearGradient>
		<path fill="url(#SVGID_50_)" d="M74.811,82.916c0.182,0.622,0.493,2.048,0.703,2.769c0.209,0.723,0.568,1.989,0.218,2.272
			c-0.356,0.282-1.248,0.237-2.286,0.225c-1.038-0.014-2.61-0.052-3.181-1.321c-0.618-1.385,1.192-3.244,1.936-3.97
			c0.743-0.725,1.425-1.519,1.891-1.281C74.556,81.847,74.628,82.294,74.811,82.916z"/>
		<path fill="#3F3F3F" d="M72.352,82.446l-0.296,0.297c-1.786,1.739-2.448,3.152-1.977,4.2c0.629,1.41,2.339,1.431,3.362,1.445
			l0.293,0.003c0.976,0.017,1.748,0.029,2.125-0.273c0.392-0.312,0.233-1.185-0.149-2.49l-0.701-2.77l-0.059-0.208
			c-0.147-0.521-0.275-0.972-0.765-1.224C73.649,81.151,73.047,81.75,72.352,82.446z M73.739,87.978l-0.291-0.005
			c-0.985-0.012-2.47-0.03-2.991-1.199c-0.268-0.599-0.16-1.734,1.889-3.733l0.299-0.3c0.508-0.508,1.083-1.083,1.351-0.946
			c0.317,0.162,0.404,0.428,0.556,0.969l0.06,0.212l0.327,1.286l0.375,1.482c0.447,1.529,0.403,1.958,0.289,2.05
			C75.339,88.004,74.562,87.99,73.739,87.978z"/>
	</g>
	
		<linearGradient id="SVGID_51_" gradientUnits="userSpaceOnUse" x1="170.4375" y1="108.2842" x2="170.4375" y2="104.9668" gradientTransform="matrix(-1 0 0 1 195.2461 0)">
		<stop  offset="0" style="stop-color:#FFBF00"/>
		<stop  offset="0.0295" style="stop-color:#FFA900"/>
		<stop  offset="0.0981" style="stop-color:#FF7C00"/>
		<stop  offset="0.1593" style="stop-color:#FF5B00"/>
		<stop  offset="0.2102" style="stop-color:#FF4700"/>
		<stop  offset="0.2446" style="stop-color:#FF4000"/>
		<stop  offset="0.2452" style="stop-color:#FF5C1A"/>
		<stop  offset="0.2462" style="stop-color:#FF7B37"/>
		<stop  offset="0.2473" style="stop-color:#FF9750"/>
		<stop  offset="0.2485" style="stop-color:#FFAD64"/>
		<stop  offset="0.2499" style="stop-color:#FFBE74"/>
		<stop  offset="0.2516" style="stop-color:#FFC97F"/>
		<stop  offset="0.2541" style="stop-color:#FFD085"/>
		<stop  offset="0.2609" style="stop-color:#FFD287"/>
		<stop  offset="0.8587" style="stop-color:#FFEBBD"/>
		<stop  offset="0.9239" style="stop-color:#FFDB8F"/>
		<stop  offset="1" style="stop-color:#FF7F00"/>
	</linearGradient>
	<path fill="url(#SVGID_51_)" d="M21.799,107.04c0,0.687,0.557,1.243,1.245,1.243h3.528c0.688,0,1.245-0.557,1.245-1.243v-0.831
		c0-0.687-0.558-1.243-1.245-1.243h-3.528c-0.688,0-1.245,0.557-1.245,1.243V107.04z"/>
	<path fill="#8C8C8C" d="M23.044,104.757c-0.8,0-1.453,0.651-1.453,1.452v0.831c0,0.801,0.653,1.451,1.453,1.451h3.528
		c0.801,0,1.452-0.65,1.452-1.451v-0.831c0-0.801-0.651-1.452-1.452-1.452H23.044z M26.572,108.076h-3.528
		c-0.573,0-1.037-0.465-1.037-1.036v-0.831c0-0.572,0.464-1.038,1.037-1.038h3.528c0.571,0,1.036,0.466,1.036,1.038v0.831
		C27.607,107.611,27.143,108.076,26.572,108.076z"/>
</g>
</svg>
