<?xml version="1.0" encoding="utf-8"?>
<!-- Generator: Adobe Illustrator 16.0.0, SVG Export Plug-In . SVG Version: 6.00 Build 0)  -->
<!DOCTYPE svg PUBLIC "-//W3C//DTD SVG 1.1//EN" "http://www.w3.org/Graphics/SVG/1.1/DTD/svg11.dtd" [
	<!ENTITY ns_extend "http://ns.adobe.com/Extensibility/1.0/">
	<!ENTITY ns_ai "http://ns.adobe.com/AdobeIllustrator/10.0/">
	<!ENTITY ns_graphs "http://ns.adobe.com/Graphs/1.0/">
	<!ENTITY ns_vars "http://ns.adobe.com/Variables/1.0/">
	<!ENTITY ns_imrep "http://ns.adobe.com/ImageReplacement/1.0/">
	<!ENTITY ns_sfw "http://ns.adobe.com/SaveForWeb/1.0/">
	<!ENTITY ns_custom "http://ns.adobe.com/GenericCustomNamespace/1.0/">
	<!ENTITY ns_adobe_xpath "http://ns.adobe.com/XPath/1.0/">
]>
<svg version="1.1" id="Layer_1" xmlns:x="&ns_extend;" xmlns:i="&ns_ai;" xmlns:graph="&ns_graphs;"
	 xmlns="http://www.w3.org/2000/svg" xmlns:xlink="http://www.w3.org/1999/xlink" x="0px" y="0px" width="64px" height="64px"
	 viewBox="0 0 64 64" enable-background="new 0 0 64 64" xml:space="preserve">
<metadata>
	<sfw  xmlns="&ns_sfw;">
		<slices></slices>
		<sliceSourceBounds  height="64" width="56" y="68.5" x="71.5" bottomLeftOrigin="true"></sliceSourceBounds>
	</sfw>
</metadata>
<path fill="#F8C235" d="M58,8H40c0-4.418-3.582-8-8-8s-8,3.582-8,8H6c-1.104,0-2,0.896-2,2v52c0,1.105,0.896,2,2,2h52
	c1.105,0,2-0.895,2-2V10C60,8.896,59.105,8,58,8z M32,4c2.209,0,4,1.791,4,4s-1.791,4-4,4s-4-1.791-4-4S29.791,4,32,4z M56,60H8V12
	h8v6c0,1.105,0.895,2,2,2h28c1.105,0,2-0.895,2-2v-6h8V60z"/>
<path fill="#F8C235" d="M28,53.657L15.172,38.829l3.657-3.657l9.172,7.172l17.171-15.172l3.657,3.657L28,53.657z"/>
</svg>
