<?xml version="1.0" encoding="utf-8"?>
<!-- Generator: Adobe Illustrator 16.0.0, SVG Export Plug-In . SVG Version: 6.00 Build 0)  -->
<!DOCTYPE svg PUBLIC "-//W3C//DTD SVG 1.1//EN" "http://www.w3.org/Graphics/SVG/1.1/DTD/svg11.dtd" [
	<!ENTITY ns_extend "http://ns.adobe.com/Extensibility/1.0/">
	<!ENTITY ns_ai "http://ns.adobe.com/AdobeIllustrator/10.0/">
	<!ENTITY ns_graphs "http://ns.adobe.com/Graphs/1.0/">
	<!ENTITY ns_vars "http://ns.adobe.com/Variables/1.0/">
	<!ENTITY ns_imrep "http://ns.adobe.com/ImageReplacement/1.0/">
	<!ENTITY ns_sfw "http://ns.adobe.com/SaveForWeb/1.0/">
	<!ENTITY ns_custom "http://ns.adobe.com/GenericCustomNamespace/1.0/">
	<!ENTITY ns_adobe_xpath "http://ns.adobe.com/XPath/1.0/">
]>
<svg version="1.1" id="Layer_1" xmlns:x="&ns_extend;" xmlns:i="&ns_ai;" xmlns:graph="&ns_graphs;"
	 xmlns="http://www.w3.org/2000/svg" xmlns:xlink="http://www.w3.org/1999/xlink" x="0px" y="0px" width="200px" height="200px"
	 viewBox="0 0 200 200" enable-background="new 0 0 200 200" xml:space="preserve">
<metadata>
	<sfw  xmlns="&ns_sfw;">
		<slices></slices>
		<sliceSourceBounds  height="104.079" width="188.874" x="5.063" y="48.461" bottomLeftOrigin="true"></sliceSourceBounds>
	</sfw>
</metadata>
<g>
	<g>
		<path fill="#B2B2B2" d="M181.347,47.96c13.09,0,13.09,16.849,13.09,30.388v32.974c0,13.539,0,30.385-13.09,30.385l-170.14,0.396
			c-3.485,0-5.563-2.596-5.563-6.949c-0.056-1.561-0.479-15.719,1.377-19.246c1.787-3.395,12.895-14.393,14.156-15.633
			c4.871-5.312,48.34-52.314,59.61-52.314H181.347z"/>
		
			<linearGradient id="SVGID_1_" gradientUnits="userSpaceOnUse" x1="284.6074" y1="140.7158" x2="284.6074" y2="49.3501" gradientTransform="matrix(-1 0 0 1 384.6113 0)">
			<stop  offset="0" style="stop-color:#FFFFFF"/>
			<stop  offset="0.074" style="stop-color:#ECECEF"/>
			<stop  offset="0.1757" style="stop-color:#D8D8DF"/>
			<stop  offset="0.2446" style="stop-color:#D1D1D9"/>
			<stop  offset="0.3979" style="stop-color:#D6D6DC"/>
			<stop  offset="0.4293" style="stop-color:#FFFFFF"/>
			<stop  offset="0.6141" style="stop-color:#DEDEE2"/>
			<stop  offset="0.9686" style="stop-color:#F5F5F5"/>
			<stop  offset="1" style="stop-color:#D1D1D9"/>
		</linearGradient>
		<path fill="url(#SVGID_1_)" d="M22.154,101.264c0,0,47.647-51.914,58.633-51.914h100.56c10.985,0,11.7,12.982,11.7,28.998v32.974
			c0,16.014-0.715,28.998-11.7,28.998l-170.143,0.395c-3.07,0-4.171-2.488-4.171-5.561c0,0-0.52-15.295,1.216-18.6
			C9.987,113.258,22.154,101.264,22.154,101.264z"/>
		
			<linearGradient id="SVGID_2_" gradientUnits="userSpaceOnUse" x1="254.2168" y1="140.585" x2="254.2168" y2="49.3501" gradientTransform="matrix(-1 0 0 1 384.6113 0)">
			<stop  offset="0" style="stop-color:#FFFFFF"/>
			<stop  offset="0.074" style="stop-color:#ECECEF"/>
			<stop  offset="0.1757" style="stop-color:#D8D8DF"/>
			<stop  offset="0.2446" style="stop-color:#D1D1D9"/>
			<stop  offset="0.5225" style="stop-color:#E1E1E6"/>
			<stop  offset="0.9239" style="stop-color:#F5F5F5"/>
			<stop  offset="1" style="stop-color:#D1D1D9"/>
		</linearGradient>
		<path fill="url(#SVGID_2_)" d="M67.742,56.87c5.674-4.527,10.416-7.52,13.045-7.52h100.56c10.985,0,11.7,12.982,11.7,28.998
			v32.974c0,16.014-0.715,28.998-11.7,28.998l-113.605,0.264V56.87z"/>
		<path fill="#B2B2B2" d="M68.122,139.242c-0.405,0-0.732-0.449-0.732-1.004V55.999c0.492-0.333,0.979-0.656,1.463-0.978v83.217
			C68.852,138.793,68.525,139.242,68.122,139.242z"/>
		
			<linearGradient id="SVGID_3_" gradientUnits="userSpaceOnUse" x1="285.5986" y1="140.7158" x2="285.5986" y2="132.5928" gradientTransform="matrix(-1 0 0 1 384.6113 0)">
			<stop  offset="0.0054" style="stop-color:#8C8C8C"/>
			<stop  offset="0.0318" style="stop-color:#7B7B7B"/>
			<stop  offset="0.0904" style="stop-color:#5C5C5C"/>
			<stop  offset="0.1566" style="stop-color:#404040"/>
			<stop  offset="0.2316" style="stop-color:#2A2A2A"/>
			<stop  offset="0.319" style="stop-color:#191919"/>
			<stop  offset="0.4272" style="stop-color:#0E0E0E"/>
			<stop  offset="0.5789" style="stop-color:#070707"/>
			<stop  offset="1" style="stop-color:#050505"/>
		</linearGradient>
		<path fill="url(#SVGID_3_)" d="M191.047,132.592c-1.607,4.783-4.489,7.729-9.7,7.729l-170.143,0.395
			c-3.07,0-4.171-2.488-4.171-5.561c0,0-0.034-1.008-0.055-2.563H191.047z"/>
		<g>
			
				<linearGradient id="SVGID_4_" gradientUnits="userSpaceOnUse" x1="260.9395" y1="140.1387" x2="260.9395" y2="120.9609" gradientTransform="matrix(1 0 0 1 -211.3359 0)">
				<stop  offset="0" style="stop-color:#3F3F3F"/>
				<stop  offset="0.1364" style="stop-color:#353535"/>
				<stop  offset="0.698" style="stop-color:#121212"/>
				<stop  offset="1" style="stop-color:#050505"/>
			</linearGradient>
			<path fill="url(#SVGID_4_)" d="M32.288,140.139c0-10.596,7.75-19.178,17.317-19.178c9.562,0,17.315,8.582,17.315,19.178H32.288z"
				/>
			<g>
				
					<radialGradient id="SVGID_5_" cx="260.9375" cy="138.4385" r="13.6006" gradientTransform="matrix(1 0 0 1 -211.3359 0)" gradientUnits="userSpaceOnUse">
					<stop  offset="0" style="stop-color:#000000"/>
					<stop  offset="0.4184" style="stop-color:#020202"/>
					<stop  offset="0.5691" style="stop-color:#090909"/>
					<stop  offset="0.6765" style="stop-color:#141414"/>
					<stop  offset="0.7628" style="stop-color:#252525"/>
					<stop  offset="0.8364" style="stop-color:#3B3B3B"/>
					<stop  offset="0.8478" style="stop-color:#3F3F3F"/>
					<stop  offset="0.8803" style="stop-color:#454545"/>
					<stop  offset="0.9217" style="stop-color:#545454"/>
					<stop  offset="0.9676" style="stop-color:#6E6E6E"/>
					<stop  offset="1" style="stop-color:#858585"/>
				</radialGradient>
				<path fill="url(#SVGID_5_)" d="M63.202,138.439c0,7.508-6.092,13.6-13.598,13.6c-7.516,0-13.602-6.092-13.602-13.6
					c0-7.51,6.086-13.602,13.602-13.602C57.11,124.838,63.202,130.93,63.202,138.439z"/>
				
					<radialGradient id="SVGID_6_" cx="260.7754" cy="131.8916" r="10.2085" gradientTransform="matrix(1 0 0 1 -211.3359 0)" gradientUnits="userSpaceOnUse">
					<stop  offset="0" style="stop-color:#615E5E"/>
					<stop  offset="0.538" style="stop-color:#8A8A8A"/>
					<stop  offset="1" style="stop-color:#5E5C5C"/>
				</radialGradient>
				<path fill="url(#SVGID_6_)" d="M49.438,126.012c6.973,0,12.641,5.555,12.833,12.479c0-0.117,0.009-0.236,0.009-0.357
					c0-7.09-5.751-12.84-12.842-12.84c-7.091,0-12.838,5.75-12.838,12.84c0,0.121,0.007,0.24,0.007,0.357
					C36.797,131.566,42.467,126.012,49.438,126.012z"/>
				<g>
					
						<linearGradient id="SVGID_7_" gradientUnits="userSpaceOnUse" x1="260.9912" y1="146.8984" x2="260.9912" y2="129.9785" gradientTransform="matrix(1 0 0 1 -211.3359 0)">
						<stop  offset="0" style="stop-color:#BDBDBD"/>
						<stop  offset="0.08" style="stop-color:#A7A7A7"/>
						<stop  offset="0.1781" style="stop-color:#939393"/>
						<stop  offset="0.2446" style="stop-color:#8C8C8C"/>
						<stop  offset="0.7181" style="stop-color:#B6B6B6"/>
						<stop  offset="1" style="stop-color:#C9C9C9"/>
					</linearGradient>
					<path fill="url(#SVGID_7_)" d="M58.12,138.439c0,4.674-3.789,8.459-8.468,8.459c-4.67,0-8.46-3.785-8.46-8.459
						s3.79-8.461,8.46-8.461C54.331,129.979,58.12,133.766,58.12,138.439z"/>
					
						<linearGradient id="SVGID_8_" gradientUnits="userSpaceOnUse" x1="261.5596" y1="129.9785" x2="261.5596" y2="140.6309" gradientTransform="matrix(1 0 0 1 -211.3359 0)">
						<stop  offset="0" style="stop-color:#F5F5F5"/>
						<stop  offset="0.2541" style="stop-color:#D5D5D5"/>
						<stop  offset="0.5647" style="stop-color:#B4B4B4"/>
						<stop  offset="0.8245" style="stop-color:#A0A0A0"/>
						<stop  offset="1" style="stop-color:#999999"/>
					</linearGradient>
					<path fill="url(#SVGID_8_)" d="M49.652,129.979c-3.13,0-5.859,1.703-7.325,4.236c3.056,3.268,8.303,7.148,15.525,6.297
						c0.168-0.662,0.268-1.354,0.268-2.072C58.12,133.766,54.331,129.979,49.652,129.979z"/>
				</g>
				<path fill="#262626" d="M53.583,138.793c0,2.178-1.77,3.949-3.956,3.949c-2.184,0-3.952-1.771-3.952-3.949
					c0-2.182,1.768-3.951,3.952-3.951C51.813,134.842,53.583,136.611,53.583,138.793z"/>
				<g>
					
						<linearGradient id="SVGID_9_" gradientUnits="userSpaceOnUse" x1="260.9941" y1="142.0918" x2="260.9941" y2="134.7832" gradientTransform="matrix(1 0 0 1 -211.3359 0)">
						<stop  offset="0" style="stop-color:#3F3F3F"/>
						<stop  offset="0.1364" style="stop-color:#353535"/>
						<stop  offset="0.698" style="stop-color:#121212"/>
						<stop  offset="1" style="stop-color:#050505"/>
					</linearGradient>
					<path fill="url(#SVGID_9_)" d="M53.313,138.439c0,2.014-1.637,3.652-3.661,3.652c-2.015,0-3.646-1.639-3.646-3.652
						c0-2.018,1.631-3.656,3.646-3.656C51.675,134.783,53.313,136.422,53.313,138.439z"/>
					
						<linearGradient id="SVGID_10_" gradientUnits="userSpaceOnUse" x1="261.2383" y1="134.7832" x2="261.2383" y2="139.3809" gradientTransform="matrix(1 0 0 1 -211.3359 0)">
						<stop  offset="0" style="stop-color:#FFFFFF"/>
						<stop  offset="0.1038" style="stop-color:#E3E3E3"/>
						<stop  offset="0.3349" style="stop-color:#A9A9A9"/>
						<stop  offset="0.5482" style="stop-color:#7B7B7B"/>
						<stop  offset="0.737" style="stop-color:#5A5A5A"/>
						<stop  offset="0.894" style="stop-color:#464646"/>
						<stop  offset="1" style="stop-color:#3F3F3F"/>
					</linearGradient>
					<path fill="url(#SVGID_10_)" d="M49.652,134.783c-1.347,0-2.524,0.742-3.159,1.836c1.318,1.41,3.583,3.082,6.7,2.709
						c0.074-0.283,0.12-0.58,0.12-0.889C53.313,136.422,51.675,134.783,49.652,134.783z"/>
				</g>
				<g>
					<g>
						<g>
							
								<radialGradient id="SVGID_11_" cx="260.9922" cy="144.8936" r="0.8325" gradientTransform="matrix(1 0 0 1 -211.3359 0)" gradientUnits="userSpaceOnUse">
								<stop  offset="0" style="stop-color:#050505"/>
								<stop  offset="0.4096" style="stop-color:#070707"/>
								<stop  offset="0.5603" style="stop-color:#0E0E0E"/>
								<stop  offset="0.6682" style="stop-color:#1A1A1A"/>
								<stop  offset="0.7552" style="stop-color:#2A2A2A"/>
								<stop  offset="0.8261" style="stop-color:#3F3F3F"/>
								<stop  offset="0.8632" style="stop-color:#454545"/>
								<stop  offset="0.9105" style="stop-color:#545454"/>
								<stop  offset="0.963" style="stop-color:#6E6E6E"/>
								<stop  offset="1" style="stop-color:#858585"/>
							</radialGradient>
							<path fill="url(#SVGID_11_)" d="M50.488,144.898c0,0.457-0.373,0.828-0.836,0.828c-0.454,0-0.826-0.371-0.826-0.828
								c0-0.459,0.373-0.838,0.826-0.838C50.116,144.061,50.488,144.439,50.488,144.898z"/>
						</g>
						<g>
							
								<radialGradient id="SVGID_12_" cx="260.9922" cy="131.9834" r="0.8325" gradientTransform="matrix(1 0 0 1 -211.3359 0)" gradientUnits="userSpaceOnUse">
								<stop  offset="0" style="stop-color:#050505"/>
								<stop  offset="0.4096" style="stop-color:#070707"/>
								<stop  offset="0.5603" style="stop-color:#0E0E0E"/>
								<stop  offset="0.6682" style="stop-color:#1A1A1A"/>
								<stop  offset="0.7552" style="stop-color:#2A2A2A"/>
								<stop  offset="0.8261" style="stop-color:#3F3F3F"/>
								<stop  offset="0.8632" style="stop-color:#454545"/>
								<stop  offset="0.9105" style="stop-color:#545454"/>
								<stop  offset="0.963" style="stop-color:#6E6E6E"/>
								<stop  offset="1" style="stop-color:#858585"/>
							</radialGradient>
							<path fill="url(#SVGID_12_)" d="M50.488,131.988c0,0.451-0.373,0.828-0.836,0.828c-0.454,0-0.826-0.377-0.826-0.828
								c0-0.465,0.373-0.838,0.826-0.838C50.116,131.15,50.488,131.523,50.488,131.988z"/>
						</g>
					</g>
					<g>
						<g>
							
								<radialGradient id="SVGID_13_" cx="225.2002" cy="397.0059" r="0.8311" gradientTransform="matrix(0.7071 -0.7071 0.7071 0.7071 -385.7394 21.5219)" gradientUnits="userSpaceOnUse">
								<stop  offset="0" style="stop-color:#050505"/>
								<stop  offset="0.4096" style="stop-color:#070707"/>
								<stop  offset="0.5603" style="stop-color:#0E0E0E"/>
								<stop  offset="0.6682" style="stop-color:#1A1A1A"/>
								<stop  offset="0.7552" style="stop-color:#2A2A2A"/>
								<stop  offset="0.8261" style="stop-color:#3F3F3F"/>
								<stop  offset="0.8632" style="stop-color:#454545"/>
								<stop  offset="0.9105" style="stop-color:#545454"/>
								<stop  offset="0.963" style="stop-color:#6E6E6E"/>
								<stop  offset="1" style="stop-color:#858585"/>
							</radialGradient>
							<path fill="url(#SVGID_13_)" d="M54.811,142.416c0.324,0.324,0.324,0.854,0,1.174c-0.325,0.326-0.855,0.326-1.178,0
								c-0.321-0.32-0.321-0.85,0-1.174C53.958,142.092,54.486,142.092,54.811,142.416z"/>
						</g>
						<g>
							
								<radialGradient id="SVGID_14_" cx="225.1982" cy="384.0928" r="0.832" gradientTransform="matrix(0.7071 -0.7071 0.7071 0.7071 -385.7394 21.5219)" gradientUnits="userSpaceOnUse">
								<stop  offset="0" style="stop-color:#050505"/>
								<stop  offset="0.4096" style="stop-color:#070707"/>
								<stop  offset="0.5603" style="stop-color:#0E0E0E"/>
								<stop  offset="0.6682" style="stop-color:#1A1A1A"/>
								<stop  offset="0.7552" style="stop-color:#2A2A2A"/>
								<stop  offset="0.8261" style="stop-color:#3F3F3F"/>
								<stop  offset="0.8632" style="stop-color:#454545"/>
								<stop  offset="0.9105" style="stop-color:#545454"/>
								<stop  offset="0.963" style="stop-color:#6E6E6E"/>
								<stop  offset="1" style="stop-color:#858585"/>
							</radialGradient>
							<path fill="url(#SVGID_14_)" d="M45.682,133.287c0.325,0.32,0.325,0.85,0,1.172c-0.328,0.328-0.854,0.328-1.179,0
								c-0.326-0.322-0.326-0.852,0-1.172C44.828,132.959,45.354,132.959,45.682,133.287z"/>
						</g>
					</g>
					<g>
						<g>
							
								<radialGradient id="SVGID_15_" cx="21.5469" cy="549.7695" r="0.8315" gradientTransform="matrix(0 -1 1 0 -493.6563 159.9863)" gradientUnits="userSpaceOnUse">
								<stop  offset="0" style="stop-color:#050505"/>
								<stop  offset="0.4096" style="stop-color:#070707"/>
								<stop  offset="0.5603" style="stop-color:#0E0E0E"/>
								<stop  offset="0.6682" style="stop-color:#1A1A1A"/>
								<stop  offset="0.7552" style="stop-color:#2A2A2A"/>
								<stop  offset="0.8261" style="stop-color:#3F3F3F"/>
								<stop  offset="0.8632" style="stop-color:#454545"/>
								<stop  offset="0.9105" style="stop-color:#545454"/>
								<stop  offset="0.963" style="stop-color:#6E6E6E"/>
								<stop  offset="1" style="stop-color:#858585"/>
							</radialGradient>
							<circle fill="url(#SVGID_15_)" cx="56.115" cy="138.439" r="0.83"/>
						</g>
						<g>
							
								<radialGradient id="SVGID_16_" cx="21.5469" cy="536.8574" r="0.8315" gradientTransform="matrix(0 -1 1 0 -493.6563 159.9863)" gradientUnits="userSpaceOnUse">
								<stop  offset="0" style="stop-color:#050505"/>
								<stop  offset="0.4096" style="stop-color:#070707"/>
								<stop  offset="0.5603" style="stop-color:#0E0E0E"/>
								<stop  offset="0.6682" style="stop-color:#1A1A1A"/>
								<stop  offset="0.7552" style="stop-color:#2A2A2A"/>
								<stop  offset="0.8261" style="stop-color:#3F3F3F"/>
								<stop  offset="0.8632" style="stop-color:#454545"/>
								<stop  offset="0.9105" style="stop-color:#545454"/>
								<stop  offset="0.963" style="stop-color:#6E6E6E"/>
								<stop  offset="1" style="stop-color:#858585"/>
							</radialGradient>
							<path fill="url(#SVGID_16_)" d="M43.201,137.609c0.455,0,0.833,0.367,0.833,0.83c0,0.457-0.378,0.83-0.833,0.83
								c-0.459,0-0.833-0.373-0.833-0.83C42.368,137.98,42.742,137.609,43.201,137.609z"/>
						</g>
					</g>
					<g>
						<g>
							
								<radialGradient id="SVGID_17_" cx="-230.4609" cy="513.9463" r="0.8309" gradientTransform="matrix(-0.7071 -0.7071 0.7071 -0.7071 -472.1329 334.3898)" gradientUnits="userSpaceOnUse">
								<stop  offset="0" style="stop-color:#050505"/>
								<stop  offset="0.4096" style="stop-color:#070707"/>
								<stop  offset="0.5603" style="stop-color:#0E0E0E"/>
								<stop  offset="0.6682" style="stop-color:#1A1A1A"/>
								<stop  offset="0.7552" style="stop-color:#2A2A2A"/>
								<stop  offset="0.8261" style="stop-color:#3F3F3F"/>
								<stop  offset="0.8632" style="stop-color:#454545"/>
								<stop  offset="0.9105" style="stop-color:#545454"/>
								<stop  offset="0.963" style="stop-color:#6E6E6E"/>
								<stop  offset="1" style="stop-color:#858585"/>
							</radialGradient>
							<path fill="url(#SVGID_17_)" d="M53.633,133.287c0.323-0.322,0.853-0.328,1.178,0c0.324,0.326,0.324,0.85,0,1.172
								c-0.325,0.328-0.855,0.328-1.178,0C53.313,134.137,53.313,133.613,53.633,133.287z"/>
						</g>
						<g>
							
								<radialGradient id="SVGID_18_" cx="-230.457" cy="501.0332" r="0.8321" gradientTransform="matrix(-0.7071 -0.7071 0.7071 -0.7071 -472.1329 334.3898)" gradientUnits="userSpaceOnUse">
								<stop  offset="0" style="stop-color:#050505"/>
								<stop  offset="0.4096" style="stop-color:#070707"/>
								<stop  offset="0.5603" style="stop-color:#0E0E0E"/>
								<stop  offset="0.6682" style="stop-color:#1A1A1A"/>
								<stop  offset="0.7552" style="stop-color:#2A2A2A"/>
								<stop  offset="0.8261" style="stop-color:#3F3F3F"/>
								<stop  offset="0.8632" style="stop-color:#454545"/>
								<stop  offset="0.9105" style="stop-color:#545454"/>
								<stop  offset="0.963" style="stop-color:#6E6E6E"/>
								<stop  offset="1" style="stop-color:#858585"/>
							</radialGradient>
							<path fill="url(#SVGID_18_)" d="M44.503,142.416c0.325-0.324,0.851-0.324,1.179,0c0.325,0.324,0.325,0.854,0,1.174
								c-0.328,0.326-0.854,0.326-1.179,0C44.177,143.27,44.177,142.74,44.503,142.416z"/>
						</g>
					</g>
				</g>
			</g>
		</g>
		<g>
			
				<linearGradient id="SVGID_19_" gradientUnits="userSpaceOnUse" x1="364.9932" y1="140.1387" x2="364.9932" y2="120.9609" gradientTransform="matrix(1 0 0 1 -211.3359 0)">
				<stop  offset="0" style="stop-color:#3F3F3F"/>
				<stop  offset="0.1364" style="stop-color:#353535"/>
				<stop  offset="0.698" style="stop-color:#121212"/>
				<stop  offset="1" style="stop-color:#050505"/>
			</linearGradient>
			<path fill="url(#SVGID_19_)" d="M136.341,140.139c0-10.596,7.751-19.178,17.317-19.178c9.563,0,17.315,8.582,17.315,19.178
				H136.341z"/>
			<g>
				
					<radialGradient id="SVGID_20_" cx="364.9961" cy="138.4385" r="13.6001" gradientTransform="matrix(1 0 0 1 -211.3359 0)" gradientUnits="userSpaceOnUse">
					<stop  offset="0" style="stop-color:#000000"/>
					<stop  offset="0.4184" style="stop-color:#020202"/>
					<stop  offset="0.5691" style="stop-color:#090909"/>
					<stop  offset="0.6765" style="stop-color:#141414"/>
					<stop  offset="0.7628" style="stop-color:#252525"/>
					<stop  offset="0.8364" style="stop-color:#3B3B3B"/>
					<stop  offset="0.8478" style="stop-color:#3F3F3F"/>
					<stop  offset="0.8803" style="stop-color:#454545"/>
					<stop  offset="0.9217" style="stop-color:#545454"/>
					<stop  offset="0.9676" style="stop-color:#6E6E6E"/>
					<stop  offset="1" style="stop-color:#858585"/>
				</radialGradient>
				<path fill="url(#SVGID_20_)" d="M167.26,138.439c0,7.508-6.091,13.6-13.602,13.6c-7.51,0-13.599-6.092-13.599-13.6
					c0-7.51,6.089-13.602,13.599-13.602C161.169,124.838,167.26,130.93,167.26,138.439z"/>
				
					<radialGradient id="SVGID_21_" cx="364.832" cy="131.8916" r="10.2067" gradientTransform="matrix(1 0 0 1 -211.3359 0)" gradientUnits="userSpaceOnUse">
					<stop  offset="0" style="stop-color:#615E5E"/>
					<stop  offset="0.538" style="stop-color:#8A8A8A"/>
					<stop  offset="1" style="stop-color:#5E5C5C"/>
				</radialGradient>
				<path fill="url(#SVGID_21_)" d="M153.498,126.012c6.967,0,12.638,5.555,12.83,12.479c0-0.117,0.006-0.236,0.006-0.357
					c0-7.09-5.746-12.84-12.836-12.84c-7.092,0-12.841,5.75-12.841,12.84c0,0.121,0.003,0.24,0.003,0.357
					C140.854,131.566,146.524,126.012,153.498,126.012z"/>
				<g>
					
						<linearGradient id="SVGID_22_" gradientUnits="userSpaceOnUse" x1="365.0469" y1="146.8984" x2="365.0469" y2="129.9785" gradientTransform="matrix(1 0 0 1 -211.3359 0)">
						<stop  offset="0" style="stop-color:#BDBDBD"/>
						<stop  offset="0.08" style="stop-color:#A7A7A7"/>
						<stop  offset="0.1781" style="stop-color:#939393"/>
						<stop  offset="0.2446" style="stop-color:#8C8C8C"/>
						<stop  offset="0.7181" style="stop-color:#B6B6B6"/>
						<stop  offset="1" style="stop-color:#C9C9C9"/>
					</linearGradient>
					<path fill="url(#SVGID_22_)" d="M162.174,138.439c0,4.674-3.785,8.459-8.463,8.459c-4.671,0-8.462-3.785-8.462-8.459
						s3.791-8.461,8.462-8.461C158.389,129.979,162.174,133.766,162.174,138.439z"/>
					
						<linearGradient id="SVGID_23_" gradientUnits="userSpaceOnUse" x1="365.6152" y1="129.9785" x2="365.6152" y2="140.6309" gradientTransform="matrix(1 0 0 1 -211.3359 0)">
						<stop  offset="0" style="stop-color:#F5F5F5"/>
						<stop  offset="0.2541" style="stop-color:#D5D5D5"/>
						<stop  offset="0.5647" style="stop-color:#B4B4B4"/>
						<stop  offset="0.8245" style="stop-color:#A0A0A0"/>
						<stop  offset="1" style="stop-color:#999999"/>
					</linearGradient>
					<path fill="url(#SVGID_23_)" d="M153.711,129.979c-3.132,0-5.86,1.703-7.327,4.236c3.058,3.268,8.303,7.148,15.527,6.297
						c0.164-0.662,0.263-1.354,0.263-2.072C162.174,133.766,158.389,129.979,153.711,129.979z"/>
				</g>
				<path fill="#262626" d="M157.637,138.793c0,2.178-1.767,3.949-3.954,3.949c-2.183,0-3.947-1.771-3.947-3.949
					c0-2.182,1.765-3.951,3.947-3.951C155.87,134.842,157.637,136.611,157.637,138.793z"/>
				<g>
					
						<linearGradient id="SVGID_24_" gradientUnits="userSpaceOnUse" x1="365.0488" y1="142.0918" x2="365.0488" y2="134.7832" gradientTransform="matrix(1 0 0 1 -211.3359 0)">
						<stop  offset="0" style="stop-color:#3F3F3F"/>
						<stop  offset="0.1364" style="stop-color:#353535"/>
						<stop  offset="0.698" style="stop-color:#121212"/>
						<stop  offset="1" style="stop-color:#050505"/>
					</linearGradient>
					<path fill="url(#SVGID_24_)" d="M157.366,138.439c0,2.014-1.638,3.652-3.655,3.652c-2.016,0-3.65-1.639-3.65-3.652
						c0-2.018,1.635-3.656,3.65-3.656C155.729,134.783,157.366,136.422,157.366,138.439z"/>
					
						<linearGradient id="SVGID_25_" gradientUnits="userSpaceOnUse" x1="365.293" y1="134.7832" x2="365.293" y2="139.3809" gradientTransform="matrix(1 0 0 1 -211.3359 0)">
						<stop  offset="0" style="stop-color:#FFFFFF"/>
						<stop  offset="0.1038" style="stop-color:#E3E3E3"/>
						<stop  offset="0.3349" style="stop-color:#A9A9A9"/>
						<stop  offset="0.5482" style="stop-color:#7B7B7B"/>
						<stop  offset="0.737" style="stop-color:#5A5A5A"/>
						<stop  offset="0.894" style="stop-color:#464646"/>
						<stop  offset="1" style="stop-color:#3F3F3F"/>
					</linearGradient>
					<path fill="url(#SVGID_25_)" d="M153.711,134.783c-1.351,0-2.529,0.742-3.162,1.836c1.319,1.41,3.585,3.082,6.701,2.709
						c0.071-0.283,0.116-0.58,0.116-0.889C157.366,136.422,155.729,134.783,153.711,134.783z"/>
				</g>
				<g>
					<g>
						<g>
							
								<radialGradient id="SVGID_26_" cx="365.0488" cy="144.8936" r="0.832" gradientTransform="matrix(1 0 0 1 -211.3359 0)" gradientUnits="userSpaceOnUse">
								<stop  offset="0" style="stop-color:#050505"/>
								<stop  offset="0.4096" style="stop-color:#070707"/>
								<stop  offset="0.5603" style="stop-color:#0E0E0E"/>
								<stop  offset="0.6682" style="stop-color:#1A1A1A"/>
								<stop  offset="0.7552" style="stop-color:#2A2A2A"/>
								<stop  offset="0.8261" style="stop-color:#3F3F3F"/>
								<stop  offset="0.8632" style="stop-color:#454545"/>
								<stop  offset="0.9105" style="stop-color:#545454"/>
								<stop  offset="0.963" style="stop-color:#6E6E6E"/>
								<stop  offset="1" style="stop-color:#858585"/>
							</radialGradient>
							<path fill="url(#SVGID_26_)" d="M154.544,144.898c0,0.457-0.373,0.828-0.833,0.828c-0.455,0-0.83-0.371-0.83-0.828
								c0-0.459,0.375-0.838,0.83-0.838C154.171,144.061,154.544,144.439,154.544,144.898z"/>
						</g>
						<g>
							
								<radialGradient id="SVGID_27_" cx="365.0488" cy="131.9834" r="0.832" gradientTransform="matrix(1 0 0 1 -211.3359 0)" gradientUnits="userSpaceOnUse">
								<stop  offset="0" style="stop-color:#050505"/>
								<stop  offset="0.4096" style="stop-color:#070707"/>
								<stop  offset="0.5603" style="stop-color:#0E0E0E"/>
								<stop  offset="0.6682" style="stop-color:#1A1A1A"/>
								<stop  offset="0.7552" style="stop-color:#2A2A2A"/>
								<stop  offset="0.8261" style="stop-color:#3F3F3F"/>
								<stop  offset="0.8632" style="stop-color:#454545"/>
								<stop  offset="0.9105" style="stop-color:#545454"/>
								<stop  offset="0.963" style="stop-color:#6E6E6E"/>
								<stop  offset="1" style="stop-color:#858585"/>
							</radialGradient>
							<path fill="url(#SVGID_27_)" d="M154.544,131.988c0,0.451-0.373,0.828-0.833,0.828c-0.455,0-0.83-0.377-0.83-0.828
								c0-0.465,0.375-0.838,0.83-0.838C154.171,131.15,154.544,131.523,154.544,131.988z"/>
						</g>
					</g>
					<g>
						<g>
							
								<radialGradient id="SVGID_28_" cx="298.7988" cy="470.5654" r="0.8302" gradientTransform="matrix(0.7071 -0.7071 0.7071 0.7071 -385.7394 21.5219)" gradientUnits="userSpaceOnUse">
								<stop  offset="0" style="stop-color:#050505"/>
								<stop  offset="0.4096" style="stop-color:#070707"/>
								<stop  offset="0.5603" style="stop-color:#0E0E0E"/>
								<stop  offset="0.6682" style="stop-color:#1A1A1A"/>
								<stop  offset="0.7552" style="stop-color:#2A2A2A"/>
								<stop  offset="0.8261" style="stop-color:#3F3F3F"/>
								<stop  offset="0.8632" style="stop-color:#454545"/>
								<stop  offset="0.9105" style="stop-color:#545454"/>
								<stop  offset="0.963" style="stop-color:#6E6E6E"/>
								<stop  offset="1" style="stop-color:#858585"/>
							</radialGradient>
							<path fill="url(#SVGID_28_)" d="M158.865,142.416c0.326,0.324,0.326,0.854,0,1.174c-0.325,0.326-0.854,0.326-1.176,0
								c-0.323-0.32-0.323-0.85,0-1.174C158.018,142.092,158.54,142.092,158.865,142.416z"/>
						</g>
						<g>
							
								<radialGradient id="SVGID_29_" cx="298.7832" cy="457.667" r="0.8306" gradientTransform="matrix(0.7071 -0.7071 0.7071 0.7071 -385.7394 21.5219)" gradientUnits="userSpaceOnUse">
								<stop  offset="0" style="stop-color:#050505"/>
								<stop  offset="0.4096" style="stop-color:#070707"/>
								<stop  offset="0.5603" style="stop-color:#0E0E0E"/>
								<stop  offset="0.6682" style="stop-color:#1A1A1A"/>
								<stop  offset="0.7552" style="stop-color:#2A2A2A"/>
								<stop  offset="0.8261" style="stop-color:#3F3F3F"/>
								<stop  offset="0.8632" style="stop-color:#454545"/>
								<stop  offset="0.9105" style="stop-color:#545454"/>
								<stop  offset="0.963" style="stop-color:#6E6E6E"/>
								<stop  offset="1" style="stop-color:#858585"/>
							</radialGradient>
							<path fill="url(#SVGID_29_)" d="M149.735,133.287c0.325,0.32,0.325,0.85,0,1.172c-0.321,0.328-0.849,0.328-1.179,0
								c-0.323-0.322-0.323-0.852,0-1.172C148.887,132.959,149.414,132.959,149.735,133.287z"/>
						</g>
					</g>
					<g>
						<g>
							
								<radialGradient id="SVGID_30_" cx="21.5469" cy="653.8242" r="0.8306" gradientTransform="matrix(0 -1 1 0 -493.6563 159.9863)" gradientUnits="userSpaceOnUse">
								<stop  offset="0" style="stop-color:#050505"/>
								<stop  offset="0.4096" style="stop-color:#070707"/>
								<stop  offset="0.5603" style="stop-color:#0E0E0E"/>
								<stop  offset="0.6682" style="stop-color:#1A1A1A"/>
								<stop  offset="0.7552" style="stop-color:#2A2A2A"/>
								<stop  offset="0.8261" style="stop-color:#3F3F3F"/>
								<stop  offset="0.8632" style="stop-color:#454545"/>
								<stop  offset="0.9105" style="stop-color:#545454"/>
								<stop  offset="0.963" style="stop-color:#6E6E6E"/>
								<stop  offset="1" style="stop-color:#858585"/>
							</radialGradient>
							<path fill="url(#SVGID_30_)" d="M160.171,137.609c0.456,0,0.828,0.371,0.828,0.83c0,0.457-0.372,0.83-0.828,0.83
								c-0.461,0-0.833-0.373-0.833-0.83C159.338,137.98,159.71,137.609,160.171,137.609z"/>
						</g>
						<g>
							
								<radialGradient id="SVGID_31_" cx="21.5469" cy="640.9121" r="0.8311" gradientTransform="matrix(0 -1 1 0 -493.6563 159.9863)" gradientUnits="userSpaceOnUse">
								<stop  offset="0" style="stop-color:#050505"/>
								<stop  offset="0.4096" style="stop-color:#070707"/>
								<stop  offset="0.5603" style="stop-color:#0E0E0E"/>
								<stop  offset="0.6682" style="stop-color:#1A1A1A"/>
								<stop  offset="0.7552" style="stop-color:#2A2A2A"/>
								<stop  offset="0.8261" style="stop-color:#3F3F3F"/>
								<stop  offset="0.8632" style="stop-color:#454545"/>
								<stop  offset="0.9105" style="stop-color:#545454"/>
								<stop  offset="0.963" style="stop-color:#6E6E6E"/>
								<stop  offset="1" style="stop-color:#858585"/>
							</radialGradient>
							<path fill="url(#SVGID_31_)" d="M147.257,137.609c0.458,0,0.831,0.367,0.831,0.83c0,0.457-0.373,0.83-0.831,0.83
								c-0.461,0-0.832-0.373-0.832-0.83C146.425,137.98,146.796,137.609,147.257,137.609z"/>
						</g>
					</g>
					<g>
						<g>
							
								<radialGradient id="SVGID_32_" cx="-304.0308" cy="587.5127" r="0.8304" gradientTransform="matrix(-0.7071 -0.7071 0.7071 -0.7071 -472.1329 334.3898)" gradientUnits="userSpaceOnUse">
								<stop  offset="0" style="stop-color:#050505"/>
								<stop  offset="0.4096" style="stop-color:#070707"/>
								<stop  offset="0.5603" style="stop-color:#0E0E0E"/>
								<stop  offset="0.6682" style="stop-color:#1A1A1A"/>
								<stop  offset="0.7552" style="stop-color:#2A2A2A"/>
								<stop  offset="0.8261" style="stop-color:#3F3F3F"/>
								<stop  offset="0.8632" style="stop-color:#454545"/>
								<stop  offset="0.9105" style="stop-color:#545454"/>
								<stop  offset="0.963" style="stop-color:#6E6E6E"/>
								<stop  offset="1" style="stop-color:#858585"/>
							</radialGradient>
							<path fill="url(#SVGID_32_)" d="M157.689,133.287c0.322-0.322,0.851-0.328,1.176,0c0.326,0.326,0.326,0.85,0,1.172
								c-0.325,0.328-0.854,0.328-1.176,0C157.366,134.137,157.366,133.613,157.689,133.287z"/>
						</g>
						<g>
							
								<radialGradient id="SVGID_33_" cx="-304.0259" cy="574.6045" r="0.8314" gradientTransform="matrix(-0.7071 -0.7071 0.7071 -0.7071 -472.1329 334.3898)" gradientUnits="userSpaceOnUse">
								<stop  offset="0" style="stop-color:#050505"/>
								<stop  offset="0.4096" style="stop-color:#070707"/>
								<stop  offset="0.5603" style="stop-color:#0E0E0E"/>
								<stop  offset="0.6682" style="stop-color:#1A1A1A"/>
								<stop  offset="0.7552" style="stop-color:#2A2A2A"/>
								<stop  offset="0.8261" style="stop-color:#3F3F3F"/>
								<stop  offset="0.8632" style="stop-color:#454545"/>
								<stop  offset="0.9105" style="stop-color:#545454"/>
								<stop  offset="0.963" style="stop-color:#6E6E6E"/>
								<stop  offset="1" style="stop-color:#858585"/>
							</radialGradient>
							<path fill="url(#SVGID_33_)" d="M148.557,142.416c0.33-0.324,0.857-0.324,1.179,0c0.325,0.324,0.325,0.854,0,1.174
								c-0.321,0.326-0.849,0.326-1.179,0C148.233,143.27,148.233,142.74,148.557,142.416z"/>
						</g>
					</g>
				</g>
			</g>
		</g>
		
			<linearGradient id="SVGID_34_" gradientUnits="userSpaceOnUse" x1="341.752" y1="96.8608" x2="341.752" y2="63.9219" gradientTransform="matrix(-1 0 0 1 384.6113 0)">
			<stop  offset="0.0054" style="stop-color:#8C8C8C"/>
			<stop  offset="0.0318" style="stop-color:#7B7B7B"/>
			<stop  offset="0.0904" style="stop-color:#5C5C5C"/>
			<stop  offset="0.1566" style="stop-color:#404040"/>
			<stop  offset="0.2316" style="stop-color:#2A2A2A"/>
			<stop  offset="0.319" style="stop-color:#191919"/>
			<stop  offset="0.4272" style="stop-color:#0E0E0E"/>
			<stop  offset="0.5789" style="stop-color:#070707"/>
			<stop  offset="1" style="stop-color:#050505"/>
		</linearGradient>
		<path fill="url(#SVGID_34_)" d="M49.514,96.861H26.259c6.77-7.197,20.777-21.8,33.199-32.939v25.853
			C59.458,93.687,55.002,96.861,49.514,96.861z"/>
		
			<linearGradient id="SVGID_35_" gradientUnits="userSpaceOnUse" x1="264.2148" y1="102.9766" x2="264.2148" y2="107.207" gradientTransform="matrix(1 0 0 1 -211.3359 0)">
			<stop  offset="0" style="stop-color:#3F3F3F"/>
			<stop  offset="0.1364" style="stop-color:#353535"/>
			<stop  offset="0.698" style="stop-color:#121212"/>
			<stop  offset="1" style="stop-color:#050505"/>
		</linearGradient>
		<path fill="url(#SVGID_35_)" d="M58.353,106.281c0,0.51-0.412,0.926-0.921,0.926h-9.104c-0.509,0-0.924-0.416-0.924-0.926v-2.377
			c0-0.512,0.416-0.928,0.924-0.928h9.104c0.509,0,0.921,0.416,0.921,0.928V106.281z"/>
		
			<linearGradient id="SVGID_36_" gradientUnits="userSpaceOnUse" x1="264.2148" y1="105.9316" x2="264.2148" y2="103.207" gradientTransform="matrix(1 0 0 1 -211.3359 0)">
			<stop  offset="0" style="stop-color:#3F3F3F"/>
			<stop  offset="0.2375" style="stop-color:#424242"/>
			<stop  offset="0.4298" style="stop-color:#4C4C4C"/>
			<stop  offset="0.6063" style="stop-color:#5D5D5D"/>
			<stop  offset="0.7724" style="stop-color:#757575"/>
			<stop  offset="0.8859" style="stop-color:#8A8A8A"/>
			<stop  offset="1" style="stop-color:#5E5C5C"/>
		</linearGradient>
		<path fill="url(#SVGID_36_)" d="M57.951,105.334c0,0.332-0.382,0.598-0.86,0.598h-8.423c-0.474,0-0.859-0.266-0.859-0.598v-1.531
			c0-0.326,0.386-0.596,0.859-0.596h8.423c0.478,0,0.86,0.27,0.86,0.596V105.334z"/>
		<path fill="#FFFFFF" d="M30.703,128.746c3.662-8.227,11.876-13.32,20.056-11.785c1.387,0.258,2.688,0.697,3.906,1.285
			c0.086,0.031,0.178,0.057,0.265,0.084c-1.471-0.801-3.095-1.385-4.834-1.717c-9.356-1.748-18.623,4.664-20.707,14.318l0.286,0.053
			C29.976,130.211,30.325,129.471,30.703,128.746z"/>
		<path fill="#FFFFFF" d="M133.176,128.754c3.577-8.023,11.595-12.996,19.582-11.506c1.353,0.256,2.624,0.686,3.813,1.258
			c0.082,0.027,0.174,0.055,0.258,0.086c-1.437-0.785-3.021-1.357-4.722-1.678c-9.133-1.707-18.181,4.551-20.214,13.975l0.279,0.053
			C132.469,130.186,132.808,129.465,133.176,128.754z"/>
		<path fill="#B2B2B2" d="M25.493,111.463c1.054,0,1.908,0.857,1.908,1.908v0.811c0,1.053-0.854,1.906-1.908,1.906h-3.435
			c-1.054,0-1.911-0.854-1.911-1.906v-0.811c0-1.051,0.856-1.908,1.911-1.908H25.493z"/>
		
			<linearGradient id="SVGID_37_" gradientUnits="userSpaceOnUse" x1="-70.8784" y1="-358.9487" x2="-70.8784" y2="-362.1812" gradientTransform="matrix(1 0 0 -1 94.6543 -246.79)">
			<stop  offset="0" style="stop-color:#FFBF00"/>
			<stop  offset="0.0189" style="stop-color:#FFA900"/>
			<stop  offset="0.063" style="stop-color:#FF7C00"/>
			<stop  offset="0.1023" style="stop-color:#FF5B00"/>
			<stop  offset="0.135" style="stop-color:#FF4700"/>
			<stop  offset="0.1571" style="stop-color:#FF4000"/>
			<stop  offset="0.1905" style="stop-color:#FF4E0B"/>
			<stop  offset="0.4346" style="stop-color:#FFB15B"/>
			<stop  offset="0.8534" style="stop-color:#FF6D00"/>
			<stop  offset="1" style="stop-color:#FF7F00"/>
		</linearGradient>
		<path fill="url(#SVGID_37_)" d="M26.707,113.371c0-0.668-0.542-1.213-1.214-1.213h-3.435c-0.669,0-1.215,0.545-1.215,1.213v0.811
			c0,0.67,0.546,1.209,1.215,1.209h3.435c0.671,0,1.214-0.539,1.214-1.209V113.371z"/>
		<path fill="#B2B2B2" d="M193.047,97.96c0.768,0,1.39,0.626,1.39,1.393v11.969c0,3.711-0.034,7.645-0.281,11.295
			c-0.053,0.73-0.657,1.297-1.387,1.297h-2.101c-2.301,0-4.171-1.871-4.171-4.17v-17.611c0-2.297,1.87-4.172,4.171-4.172H193.047z"
			/>
		
			<linearGradient id="SVGID_38_" gradientUnits="userSpaceOnUse" x1="194.1445" y1="122.5264" x2="194.1445" y2="99.353" gradientTransform="matrix(-1 0 0 1 384.6113 0)">
			<stop  offset="0" style="stop-color:#FFBF00"/>
			<stop  offset="0.0189" style="stop-color:#FFA900"/>
			<stop  offset="0.063" style="stop-color:#FF7C00"/>
			<stop  offset="0.1023" style="stop-color:#FF5B00"/>
			<stop  offset="0.135" style="stop-color:#FF4700"/>
			<stop  offset="0.1571" style="stop-color:#FF4000"/>
			<stop  offset="0.1905" style="stop-color:#FF4E0B"/>
			<stop  offset="0.4346" style="stop-color:#FFB15B"/>
			<stop  offset="0.8534" style="stop-color:#FF6D00"/>
			<stop  offset="1" style="stop-color:#FF7F00"/>
		</linearGradient>
		<path fill="url(#SVGID_38_)" d="M190.668,99.353h2.379v11.969c0,3.973-0.046,7.756-0.278,11.203h-2.101
			c-1.534,0-2.78-1.248-2.78-2.781v-17.611C187.888,100.598,189.134,99.353,190.668,99.353z"/>
		<g>
			
				<linearGradient id="SVGID_39_" gradientUnits="userSpaceOnUse" x1="258.7393" y1="98.249" x2="258.7393" y2="61.7539" gradientTransform="matrix(-1 0 0 1 384.6113 0)">
				<stop  offset="0.0054" style="stop-color:#B2B2B2"/>
				<stop  offset="0.0152" style="stop-color:#C4C4C4"/>
				<stop  offset="0.0309" style="stop-color:#DADADA"/>
				<stop  offset="0.0494" style="stop-color:#EBEBEB"/>
				<stop  offset="0.0723" style="stop-color:#F6F6F6"/>
				<stop  offset="0.1045" style="stop-color:#FDFDFD"/>
				<stop  offset="0.1937" style="stop-color:#FFFFFF"/>
				<stop  offset="1" style="stop-color:#B2B2B2"/>
			</linearGradient>
			<path fill="url(#SVGID_39_)" d="M116.218,61.754c-2.965,0-5.375,2.412-5.375,5.374v25.744c0,2.965,2.41,5.377,5.375,5.377h19.307
				c2.964,0,5.377-2.412,5.377-5.377V67.128c0-2.962-2.413-5.374-5.377-5.374H116.218z M135.524,96.861h-19.307
				c-2.197,0-3.985-1.792-3.985-3.989V67.128c0-2.195,1.788-3.982,3.985-3.982h19.307c2.199,0,3.987,1.787,3.987,3.982v25.744
				C139.512,95.07,137.724,96.861,135.524,96.861z"/>
		</g>
		<g>
			
				<linearGradient id="SVGID_40_" gradientUnits="userSpaceOnUse" x1="222.127" y1="98.249" x2="222.127" y2="61.7539" gradientTransform="matrix(-1 0 0 1 384.6113 0)">
				<stop  offset="0.0054" style="stop-color:#B2B2B2"/>
				<stop  offset="0.0152" style="stop-color:#C4C4C4"/>
				<stop  offset="0.0309" style="stop-color:#DADADA"/>
				<stop  offset="0.0494" style="stop-color:#EBEBEB"/>
				<stop  offset="0.0723" style="stop-color:#F6F6F6"/>
				<stop  offset="0.1045" style="stop-color:#FDFDFD"/>
				<stop  offset="0.1937" style="stop-color:#FFFFFF"/>
				<stop  offset="1" style="stop-color:#B2B2B2"/>
			</linearGradient>
			<path fill="url(#SVGID_40_)" d="M152.832,61.754c-2.963,0-5.377,2.412-5.377,5.374v25.744c0,2.965,2.414,5.377,5.377,5.377
				h19.309c2.963,0,5.374-2.412,5.374-5.377V67.128c0-2.962-2.411-5.374-5.374-5.374H152.832z M172.141,96.861h-19.309
				c-2.195,0-3.985-1.792-3.985-3.989V67.128c0-2.195,1.79-3.982,3.985-3.982h19.309c2.196,0,3.981,1.787,3.981,3.982v25.744
				C176.122,95.07,174.337,96.861,172.141,96.861z"/>
		</g>
		<g>
			
				<linearGradient id="SVGID_41_" gradientUnits="userSpaceOnUse" x1="295.3535" y1="98.249" x2="295.3535" y2="61.7539" gradientTransform="matrix(-1 0 0 1 384.6113 0)">
				<stop  offset="0.0054" style="stop-color:#B2B2B2"/>
				<stop  offset="0.0152" style="stop-color:#C4C4C4"/>
				<stop  offset="0.0309" style="stop-color:#DADADA"/>
				<stop  offset="0.0494" style="stop-color:#EBEBEB"/>
				<stop  offset="0.0723" style="stop-color:#F6F6F6"/>
				<stop  offset="0.1045" style="stop-color:#FDFDFD"/>
				<stop  offset="0.1937" style="stop-color:#FFFFFF"/>
				<stop  offset="1" style="stop-color:#B2B2B2"/>
			</linearGradient>
			<path fill="url(#SVGID_41_)" d="M79.604,61.754c-2.964,0-5.375,2.412-5.375,5.374v25.744c0,2.965,2.412,5.377,5.375,5.377H98.91
				c2.963,0,5.377-2.412,5.377-5.377V67.128c0-2.962-2.414-5.374-5.377-5.374H79.604z M98.91,96.861H79.604
				c-2.197,0-3.985-1.792-3.985-3.989V67.128c0-2.195,1.788-3.982,3.985-3.982H98.91c2.198,0,3.986,1.787,3.986,3.982v25.744
				C102.896,95.07,101.108,96.861,98.91,96.861z"/>
		</g>
		
			<linearGradient id="SVGID_42_" gradientUnits="userSpaceOnUse" x1="200.8662" y1="112.4492" x2="317.4492" y2="112.4492" gradientTransform="matrix(-1 0 0 1 384.6113 0)">
			<stop  offset="0.0054" style="stop-color:#B2B2B2"/>
			<stop  offset="0.0152" style="stop-color:#C4C4C4"/>
			<stop  offset="0.0309" style="stop-color:#DADADA"/>
			<stop  offset="0.0494" style="stop-color:#EBEBEB"/>
			<stop  offset="0.0723" style="stop-color:#F6F6F6"/>
			<stop  offset="0.1045" style="stop-color:#FDFDFD"/>
			<stop  offset="0.1937" style="stop-color:#FFFFFF"/>
			<stop  offset="0.623" style="stop-color:#D9DBDC"/>
			<stop  offset="1" style="stop-color:#B2B2B2"/>
		</linearGradient>
		<path fill="url(#SVGID_42_)" d="M182.979,113.18c0.422,0,0.767-0.326,0.767-0.73l0,0c0-0.406-0.345-0.73-0.767-0.73H67.93
			c-0.425,0-0.768,0.324-0.768,0.73l0,0c0,0.404,0.343,0.73,0.768,0.73H182.979z"/>
		<path fill="#B2B2B2" d="M14.752,124.734c0,0-3.397,4.58-4.063,4.58H8.733c-0.663,0-1.202-0.568-1.202-1.268v-11.051
			c0-0.699,0.539-1.264,1.202-1.264h1.956c0.667,0,1.204,0.564,1.204,1.264L14.752,124.734z"/>
		
			<linearGradient id="SVGID_43_" gradientUnits="userSpaceOnUse" x1="218.5889" y1="122.5928" x2="225.3047" y2="122.5928" gradientTransform="matrix(1 0 0 1 -211.3359 0)">
			<stop  offset="0" style="stop-color:#FFFFFF"/>
			<stop  offset="0.074" style="stop-color:#ECECEF"/>
			<stop  offset="0.1757" style="stop-color:#D8D8DF"/>
			<stop  offset="0.2446" style="stop-color:#D1D1D9"/>
			<stop  offset="0.5537" style="stop-color:#E1E1E6"/>
			<stop  offset="1" style="stop-color:#F5F5F5"/>
		</linearGradient>
		<path fill="url(#SVGID_43_)" d="M13.969,124.553c0,0-3.16,4.059-3.779,4.059H8.371c-0.618,0-1.118-0.502-1.118-1.121v-9.799
			c0-0.619,0.5-1.117,1.118-1.117h1.818c0.62,0,1.122,0.498,1.122,1.117L13.969,124.553z"/>
	</g>
	<path fill="#8C8C8C" d="M42.476,87.49c0.84-0.004,1.519,0.727,1.522,1.633l0.02,10.689c0.06,0.47-0.07,0.931-0.357,1.291
		c-0.285,0.357-0.701,0.553-1.136,0.553l-1.329,0.002c-2.071,0.002-3.761-1.81-3.766-4.049l-0.012-6.052
		c-0.005-2.239,1.68-4.062,3.755-4.064L42.476,87.49z"/>
	
		<linearGradient id="SVGID_44_" gradientUnits="userSpaceOnUse" x1="342.7207" y1="100.2866" x2="342.7207" y2="87.9263" gradientTransform="matrix(-1 0.0019 0.0019 1 383.1591 -0.1338)">
		<stop  offset="0" style="stop-color:#FFFFFF"/>
		<stop  offset="0.074" style="stop-color:#ECECEF"/>
		<stop  offset="0.1757" style="stop-color:#D8D8DF"/>
		<stop  offset="0.2446" style="stop-color:#D1D1D9"/>
		<stop  offset="0.5537" style="stop-color:#E1E1E6"/>
		<stop  offset="1" style="stop-color:#F5F5F5"/>
	</linearGradient>
	<path fill="url(#SVGID_44_)" d="M41.256,88.395l1.863-0.002l0.021,12.129c0,0.076,0.02,0.15,0.028,0.23l-1.885,0.002
		c-1.762,0.006-3.193-1.224-3.196-2.741l-0.015-6.863C38.072,89.629,39.496,88.399,41.256,88.395z"/>
</g>
</svg>
