<?xml version="1.0" encoding="utf-8"?>
<!-- Generator: Adobe Illustrator 16.0.0, SVG Export Plug-In . SVG Version: 6.00 Build 0)  -->
<!DOCTYPE svg PUBLIC "-//W3C//DTD SVG 1.1//EN" "http://www.w3.org/Graphics/SVG/1.1/DTD/svg11.dtd" [
	<!ENTITY ns_extend "http://ns.adobe.com/Extensibility/1.0/">
	<!ENTITY ns_ai "http://ns.adobe.com/AdobeIllustrator/10.0/">
	<!ENTITY ns_graphs "http://ns.adobe.com/Graphs/1.0/">
	<!ENTITY ns_vars "http://ns.adobe.com/Variables/1.0/">
	<!ENTITY ns_imrep "http://ns.adobe.com/ImageReplacement/1.0/">
	<!ENTITY ns_sfw "http://ns.adobe.com/SaveForWeb/1.0/">
	<!ENTITY ns_custom "http://ns.adobe.com/GenericCustomNamespace/1.0/">
	<!ENTITY ns_adobe_xpath "http://ns.adobe.com/XPath/1.0/">
]>
<svg version="1.1" id="Layer_1" xmlns:x="&ns_extend;" xmlns:i="&ns_ai;" xmlns:graph="&ns_graphs;"
	 xmlns="http://www.w3.org/2000/svg" xmlns:xlink="http://www.w3.org/1999/xlink" x="0px" y="0px" width="200px" height="200px"
	 viewBox="0 0 200 200" enable-background="new 0 0 200 200" xml:space="preserve">
<metadata>
	<sfw  xmlns="&ns_sfw;">
		<slices></slices>
		<sliceSourceBounds  height="136.025" width="167.917" y="-168.013" x="16.042" bottomLeftOrigin="true"></sliceSourceBounds>
	</sfw>
</metadata>
<g>
	<path fill="#3F3F3F" d="M37.694,54.192l2.811-1.1c0.582-0.227,1.238,0.059,1.465,0.645l4.078,10.424
		c0.156,0.193,0.262,0.428,0.262,0.695v29.802c0,0.626-0.506,1.132-1.133,1.132h-3.016c-0.627,0-1.131-0.506-1.131-1.132V65.821
		l-3.977-10.162C36.825,55.075,37.112,54.419,37.694,54.192z"/>
	<g>
		<rect x="53.347" y="71.813" fill="#3F3F3F" width="7.65" height="12.036"/>
		<polygon fill="#3F3F3F" points="57.171,62.702 54.358,65.978 51.546,69.255 57.171,69.255 62.8,69.255 59.983,65.978 		"/>
		<g>
			<rect x="58.56" y="68.103" fill="#3F3F3F" width="0.936" height="4.836"/>
			<rect x="54.849" y="68.214" fill="#3F3F3F" width="0.936" height="4.836"/>
		</g>
		<rect x="57.565" y="71.813" fill="#8C8C8C" width="2.25" height="11.697"/>
		<polygon fill="#8C8C8C" points="58.089,69.255 57.114,62.772 57.171,62.702 57.364,62.928 60.663,69.255 		"/>
	</g>
	<path fill="#8C8C8C" d="M43.948,95.333V65.532c0-0.269-0.107-0.503-0.262-0.697l-4.078-10.424
		c-0.115-0.291-0.332-0.506-0.598-0.623l0.482-0.189c0.582-0.229,1.238,0.061,1.465,0.644l4.078,10.425
		c0.154,0.193,0.262,0.428,0.262,0.695v29.801c0,0.627-0.506,1.133-1.131,1.133h-0.791C43.712,96.101,43.948,95.75,43.948,95.333z"
		/>
	
		<radialGradient id="SVGID_1_" cx="148.7617" cy="80.1431" r="55.3134" gradientTransform="matrix(-1 0 0 1 232 0)" gradientUnits="userSpaceOnUse">
		<stop  offset="0" style="stop-color:#FFBF00"/>
		<stop  offset="0.3447" style="stop-color:#FFBB00"/>
		<stop  offset="0.6833" style="stop-color:#FFAF00"/>
		<stop  offset="0.8587" style="stop-color:#FFA600"/>
		<stop  offset="0.9837" style="stop-color:#FFA100"/>
	</radialGradient>
	<path fill="url(#SVGID_1_)" d="M30.063,79.985h45.488c1.611,0,4.393-39.527,4.393-39.527c0-4.679,3.791-8.471,8.471-8.471h47.997
		c4.68,0,8.471,3.792,8.471,8.471v79.371c0,4.678-3.791,8.47-8.471,8.47H30.063c-4.678,0-8.471-3.792-8.471-8.47V88.456
		C21.593,83.778,25.386,79.985,30.063,79.985z"/>
	<g>
		<g>
			<path fill="#FFFF94" d="M34.062,87.302c0,0.563,0.455,1.02,1.021,1.02h15.453c0.564,0,1.018-0.456,1.018-1.02l0,0
				c0-0.562-0.453-1.018-1.018-1.018H35.083C34.517,86.284,34.062,86.74,34.062,87.302L34.062,87.302z"/>
			<path fill="#3F3F3F" d="M33.896,87.556c0,0.566,0.453,1.02,1.018,1.02h15.453c0.564,0,1.021-0.453,1.021-1.02l0,0
				c0-0.563-0.457-1.018-1.021-1.018H34.913C34.349,86.538,33.896,86.993,33.896,87.556L33.896,87.556z"/>
		</g>
		<g>
			<path fill="#FFFF94" d="M34.062,90.741c0,0.563,0.455,1.021,1.021,1.021h15.453c0.564,0,1.018-0.459,1.018-1.021l0,0
				c0-0.563-0.453-1.019-1.018-1.019H35.083C34.517,89.723,34.062,90.178,34.062,90.741L34.062,90.741z"/>
			<path fill="#3F3F3F" d="M33.896,90.995c0,0.564,0.453,1.02,1.018,1.02h15.453c0.564,0,1.021-0.455,1.021-1.02l0,0
				c0-0.563-0.457-1.018-1.021-1.018H34.913C34.349,89.978,33.896,90.433,33.896,90.995L33.896,90.995z"/>
		</g>
		<g>
			<path fill="#FFFF94" d="M34.062,94.181c0,0.563,0.455,1.018,1.021,1.018h15.453c0.564,0,1.018-0.455,1.018-1.018l0,0
				c0-0.564-0.453-1.019-1.018-1.019H35.083C34.517,93.162,34.062,93.616,34.062,94.181L34.062,94.181z"/>
			<path fill="#3F3F3F" d="M33.896,94.433c0,0.566,0.453,1.021,1.018,1.021h15.453c0.564,0,1.021-0.454,1.021-1.021l0,0
				c0-0.561-0.457-1.02-1.021-1.02H34.913C34.349,93.413,33.896,93.872,33.896,94.433L33.896,94.433z"/>
		</g>
		<g>
			<path fill="#FFFF94" d="M34.062,97.62c0,0.561,0.455,1.019,1.021,1.019h15.453c0.564,0,1.018-0.458,1.018-1.019l0,0
				c0-0.564-0.453-1.018-1.018-1.018H35.083C34.517,96.603,34.062,97.056,34.062,97.62L34.062,97.62z"/>
			<path fill="#3F3F3F" d="M33.896,97.872c0,0.563,0.453,1.021,1.018,1.021h15.453c0.564,0,1.021-0.458,1.021-1.021l0,0
				c0-0.563-0.457-1.018-1.021-1.018H34.913C34.349,96.854,33.896,97.31,33.896,97.872L33.896,97.872z"/>
		</g>
	</g>
	
		<linearGradient id="SVGID_2_" gradientUnits="userSpaceOnUse" x1="149.3887" y1="146.9648" x2="149.3887" y2="124.8486" gradientTransform="matrix(-1 0 0 1 232 0)">
		<stop  offset="0" style="stop-color:#3F3F3F"/>
		<stop  offset="0.0222" style="stop-color:#5C5C5C"/>
		<stop  offset="0.0537" style="stop-color:#7F7F7F"/>
		<stop  offset="0.0707" style="stop-color:#8C8C8C"/>
		<stop  offset="0.0953" style="stop-color:#7B7B7B"/>
		<stop  offset="0.15" style="stop-color:#5C5C5C"/>
		<stop  offset="0.212" style="stop-color:#404040"/>
		<stop  offset="0.2819" style="stop-color:#2A2A2A"/>
		<stop  offset="0.3636" style="stop-color:#191919"/>
		<stop  offset="0.4647" style="stop-color:#0E0E0E"/>
		<stop  offset="0.6065" style="stop-color:#070707"/>
		<stop  offset="1" style="stop-color:#050505"/>
	</linearGradient>
	<path fill="url(#SVGID_2_)" d="M33.2,143.2c0,2.078,1.686,3.764,3.764,3.764h91.294c2.078,0,3.764-1.686,3.764-3.764v-14.588
		c0-2.079-1.686-3.765-3.764-3.765H36.964c-2.078,0-3.764,1.686-3.764,3.765V143.2z"/>
	<g>
		
			<radialGradient id="SVGID_3_" cx="92.5884" cy="123.4648" r="44.5476" gradientTransform="matrix(-1 0 0 1 232 0)" gradientUnits="userSpaceOnUse">
			<stop  offset="0" style="stop-color:#000000"/>
			<stop  offset="0.4103" style="stop-color:#020202"/>
			<stop  offset="0.5581" style="stop-color:#090909"/>
			<stop  offset="0.6634" style="stop-color:#141414"/>
			<stop  offset="0.748" style="stop-color:#252525"/>
			<stop  offset="0.8202" style="stop-color:#3B3B3B"/>
			<stop  offset="0.8315" style="stop-color:#3F3F3F"/>
			<stop  offset="1" style="stop-color:#858585"/>
		</radialGradient>
		<path fill="url(#SVGID_3_)" d="M96.7,112.917h0.174l1.506,0.686c0.754-3.154,1.861-6.169,3.281-9.002l-0.52-0.729
			c-0.721-0.56-0.916-1.631-0.41-2.51l4.38-7.58c0.547-0.948,1.707-1.313,2.584-0.808l0.152,0.087l0.967,1.354
			c2.203-2.318,4.662-4.389,7.338-6.16l-0.086-0.893c-0.344-0.846,0.023-1.87,0.9-2.377l7.578-4.377
			c0.951-0.549,2.139-0.283,2.646,0.594l0.088,0.149l0.16,1.646c3.018-0.893,6.174-1.459,9.434-1.652l0.373-0.817
			c0.123-0.905,0.953-1.609,1.967-1.609h8.754c1.098,0,1.994,0.824,1.994,1.838v0.173l-0.686,1.505
			c3.154,0.755,6.168,1.862,9.002,3.28l0.727-0.517c0.559-0.723,1.631-0.919,2.51-0.411l7.58,4.376
			c0.482,0.279,0.836,0.733,0.975,1.248c0.125,0.464,0.066,0.94-0.166,1.342l-0.088,0.151l-1.352,0.965
			c2.318,2.201,4.389,4.66,6.16,7.336l0.883-0.084c0.355-0.148,0.75-0.18,1.139-0.076c0.516,0.139,0.969,0.494,1.248,0.975
			l4.375,7.58c0.551,0.953,0.283,2.141-0.594,2.647l-0.15,0.087l-1.643,0.157c0.893,3.019,1.457,6.176,1.65,9.435l0.818,0.373
			c0.904,0.123,1.609,0.953,1.609,1.968v8.753c0,0.558-0.215,1.093-0.592,1.469c-0.34,0.34-0.783,0.526-1.246,0.525h-0.174
			l-1.502-0.685c-0.756,3.153-1.863,6.169-3.283,9.001c0.357,0.502,0.57,0.799,0.574,0.803c0.266,0.229,0.48,0.512,0.576,0.867
			c0.043,0.164,0.064,0.335,0.064,0.507c0,0.364-0.098,0.733-0.285,1.06l-4.377,7.581c-0.277,0.481-0.732,0.837-1.248,0.976
			c-0.463,0.123-0.941,0.064-1.342-0.168l-0.15-0.088l-0.965-1.352c-2.201,2.318-4.66,4.391-7.336,6.161l0.084,0.884
			c0.146,0.355,0.18,0.75,0.076,1.139c-0.139,0.514-0.494,0.967-0.975,1.246l-7.58,4.377c-0.482,0.277-1.055,0.359-1.568,0.221
			c-0.463-0.125-0.848-0.414-1.08-0.816l-0.086-0.15l-0.158-1.642c-3.018,0.893-6.176,1.459-9.434,1.651l-0.373,0.818
			c-0.123,0.904-0.953,1.609-1.969,1.609h-8.754c-1.098,0-1.992-0.824-1.992-1.838v-0.174l0.684-1.504
			c-3.152-0.754-6.168-1.861-9.002-3.281c-0.5,0.357-0.797,0.568-0.803,0.572c-0.229,0.266-0.512,0.48-0.867,0.576
			c-0.514,0.138-1.084,0.058-1.566-0.221l-7.58-4.376c-0.48-0.278-0.836-0.731-0.975-1.245c-0.125-0.465-0.064-0.941,0.168-1.344
			l0.086-0.15l1.354-0.966c-2.32-2.202-4.391-4.659-6.162-7.337l-0.883,0.086c-0.357,0.146-0.752,0.178-1.142,0.073
			c-0.514-0.138-0.967-0.493-1.246-0.976l-4.375-7.578c-0.277-0.482-0.359-1.053-0.221-1.565c0.125-0.464,0.412-0.849,0.814-1.081
			l0.152-0.086l1.641-0.158c-0.891-3.019-1.457-6.176-1.65-9.435l-0.82-0.374c-0.902-0.123-1.607-0.954-1.607-1.969v-8.753
			C94.864,113.812,95.688,112.919,96.7,112.917z"/>
		
			<linearGradient id="SVGID_4_" gradientUnits="userSpaceOnUse" x1="92.5874" y1="141.2441" x2="92.5874" y2="97.856" gradientTransform="matrix(-1 0 0 1 232 0)">
			<stop  offset="0" style="stop-color:#BFBFBF"/>
			<stop  offset="0.0606" style="stop-color:#A9A9A9"/>
			<stop  offset="0.1701" style="stop-color:#898989"/>
			<stop  offset="0.2885" style="stop-color:#6E6E6E"/>
			<stop  offset="0.4169" style="stop-color:#595959"/>
			<stop  offset="0.5605" style="stop-color:#4A4A4A"/>
			<stop  offset="0.7313" style="stop-color:#424242"/>
			<stop  offset="1" style="stop-color:#3F3F3F"/>
		</linearGradient>
		<circle fill="url(#SVGID_4_)" cx="139.413" cy="123.464" r="22.206"/>
		
			<radialGradient id="SVGID_5_" cx="92.5879" cy="123.4648" r="19.5845" gradientTransform="matrix(-1 0 0 1 232 0)" gradientUnits="userSpaceOnUse">
			<stop  offset="0.0056" style="stop-color:#FF8000"/>
			<stop  offset="0.1124" style="stop-color:#FFA600"/>
			<stop  offset="0.4011" style="stop-color:#FFAA00"/>
			<stop  offset="0.6788" style="stop-color:#FFB500"/>
			<stop  offset="0.9511" style="stop-color:#FFC900"/>
			<stop  offset="1" style="stop-color:#FFCD00"/>
		</radialGradient>
		<circle fill="url(#SVGID_5_)" cx="139.412" cy="123.466" r="19.584"/>
		<g>
			
				<linearGradient id="SVGID_6_" gradientUnits="userSpaceOnUse" x1="504.3594" y1="129.5713" x2="504.3594" y2="117.3584" gradientTransform="matrix(1 0 0 1 -364.9473 0)">
				<stop  offset="0" style="stop-color:#3F3F3F"/>
				<stop  offset="0.1364" style="stop-color:#353535"/>
				<stop  offset="0.698" style="stop-color:#121212"/>
				<stop  offset="1" style="stop-color:#050505"/>
			</linearGradient>
			<path fill="url(#SVGID_6_)" d="M145.518,123.466c0,3.369-2.732,6.105-6.107,6.105c-3.373,0-6.104-2.736-6.104-6.105
				c0-3.371,2.73-6.107,6.104-6.107C142.785,117.358,145.518,120.095,145.518,123.466z"/>
			
				<linearGradient id="SVGID_7_" gradientUnits="userSpaceOnUse" x1="504.7715" y1="117.3584" x2="504.7715" y2="125.0439" gradientTransform="matrix(1 0 0 1 -364.9473 0)">
				<stop  offset="0" style="stop-color:#FFFFFF"/>
				<stop  offset="0.1038" style="stop-color:#E3E3E3"/>
				<stop  offset="0.3349" style="stop-color:#A9A9A9"/>
				<stop  offset="0.5482" style="stop-color:#7B7B7B"/>
				<stop  offset="0.737" style="stop-color:#5A5A5A"/>
				<stop  offset="0.894" style="stop-color:#464646"/>
				<stop  offset="1" style="stop-color:#3F3F3F"/>
			</linearGradient>
			<path fill="url(#SVGID_7_)" d="M139.41,117.358c-2.258,0-4.227,1.234-5.279,3.059c2.201,2.355,5.986,5.156,11.193,4.541
				c0.121-0.48,0.193-0.979,0.193-1.492C145.518,120.095,142.785,117.358,139.41,117.358z"/>
		</g>
		
			<linearGradient id="SVGID_8_" gradientUnits="userSpaceOnUse" x1="92.6328" y1="119.1514" x2="94.5634" y2="79.4311" gradientTransform="matrix(-1 0 0 1 232 0)">
			<stop  offset="0" style="stop-color:#5E5C5C"/>
			<stop  offset="0.3948" style="stop-color:#605E5E"/>
			<stop  offset="0.6124" style="stop-color:#686666"/>
			<stop  offset="0.7869" style="stop-color:#757374"/>
			<stop  offset="0.9376" style="stop-color:#878687"/>
			<stop  offset="1" style="stop-color:#919092"/>
		</linearGradient>
		<path fill="url(#SVGID_8_)" d="M139.422,84.614c21.086,0,38.238,16.344,38.82,36.707c0-0.344,0.021-0.693,0.021-1.055
			c0-20.848-17.393-37.761-38.842-37.761c-21.461,0-38.86,16.913-38.86,37.761c0,0.361,0.025,0.711,0.025,1.055
			C101.163,100.958,118.322,84.614,139.422,84.614z"/>
	</g>
	<g>
		
			<radialGradient id="SVGID_9_" cx="185.4102" cy="137.4648" r="30.5479" gradientTransform="matrix(-1 0 0 1 232 0)" gradientUnits="userSpaceOnUse">
			<stop  offset="0" style="stop-color:#000000"/>
			<stop  offset="0.4103" style="stop-color:#020202"/>
			<stop  offset="0.5581" style="stop-color:#090909"/>
			<stop  offset="0.6634" style="stop-color:#141414"/>
			<stop  offset="0.748" style="stop-color:#252525"/>
			<stop  offset="0.8202" style="stop-color:#3B3B3B"/>
			<stop  offset="0.8315" style="stop-color:#3F3F3F"/>
			<stop  offset="1" style="stop-color:#858585"/>
		</radialGradient>
		<path fill="url(#SVGID_9_)" d="M17.302,130.231h0.121l1.031,0.471c0.516-2.164,1.277-4.23,2.25-6.174l-0.357-0.498
			c-0.494-0.385-0.627-1.119-0.279-1.721l3.002-5.199c0.375-0.65,1.17-0.899,1.773-0.555l0.104,0.061l0.662,0.928
			c1.51-1.59,3.197-3.01,5.031-4.225l-0.059-0.611c-0.236-0.58,0.016-1.283,0.617-1.631l5.199-3.001
			c0.65-0.376,1.465-0.193,1.813,0.407l0.061,0.103l0.109,1.128c2.07-0.612,4.234-1,6.469-1.133l0.256-0.561
			c0.084-0.62,0.654-1.104,1.35-1.104h6.002c0.754,0,1.369,0.565,1.369,1.262v0.117l-0.471,1.031
			c2.162,0.518,4.229,1.278,6.172,2.25l0.5-0.354c0.381-0.496,1.117-0.631,1.719-0.283l5.199,3.002
			c0.33,0.191,0.574,0.503,0.668,0.855c0.086,0.318,0.045,0.645-0.113,0.92l-0.061,0.104l-0.928,0.662
			c1.592,1.51,3.01,3.196,4.225,5.031l0.605-0.059c0.244-0.102,0.514-0.123,0.781-0.051c0.354,0.094,0.664,0.338,0.855,0.668
			l3,5.197c0.377,0.653,0.195,1.467-0.408,1.814l-0.102,0.06l-1.125,0.109c0.611,2.069,0.998,4.233,1.131,6.47l0.563,0.254
			c0.619,0.086,1.102,0.654,1.102,1.352v6c0,0.383-0.148,0.75-0.406,1.009c-0.232,0.232-0.537,0.361-0.854,0.36h-0.119l-1.031-0.471
			c-0.518,2.164-1.277,4.23-2.25,6.174c0.246,0.342,0.391,0.547,0.393,0.549c0.182,0.158,0.33,0.352,0.396,0.596
			c0.029,0.112,0.043,0.23,0.043,0.347c0,0.25-0.066,0.503-0.195,0.728l-3,5.197c-0.191,0.33-0.504,0.575-0.857,0.669
			c-0.318,0.085-0.645,0.044-0.92-0.114l-0.104-0.06l-0.662-0.927c-1.508,1.588-3.195,3.01-5.029,4.225l0.059,0.605
			c0.1,0.244,0.123,0.515,0.051,0.78c-0.094,0.353-0.338,0.663-0.668,0.856l-5.199,3c-0.33,0.191-0.723,0.246-1.074,0.152
			c-0.318-0.087-0.582-0.285-0.74-0.561l-0.059-0.104l-0.109-1.125c-2.07,0.612-4.234,1-6.471,1.133l-0.254,0.561
			c-0.084,0.62-0.654,1.104-1.35,1.104h-6.002c-0.754,0-1.367-0.565-1.367-1.262v-0.117l0.469-1.031
			c-2.162-0.518-4.229-1.278-6.172-2.25c-0.344,0.244-0.549,0.389-0.551,0.393c-0.158,0.18-0.352,0.329-0.596,0.395
			c-0.352,0.094-0.744,0.039-1.074-0.152l-5.197-3c-0.33-0.191-0.574-0.502-0.668-0.854c-0.086-0.318-0.045-0.646,0.113-0.922
			l0.059-0.104l0.928-0.662c-1.59-1.51-3.01-3.195-4.225-5.031l-0.605,0.06c-0.244,0.101-0.516,0.122-0.781,0.05
			c-0.354-0.095-0.664-0.338-0.854-0.668l-3.002-5.197c-0.189-0.33-0.246-0.723-0.152-1.073c0.088-0.319,0.285-0.582,0.561-0.741
			l0.104-0.061l1.125-0.107c-0.611-2.07-0.998-4.234-1.131-6.471l-0.563-0.255c-0.619-0.085-1.104-0.655-1.104-1.351v-6.002
			C16.042,130.846,16.608,130.232,17.302,130.231z"/>
		
			<linearGradient id="SVGID_10_" gradientUnits="userSpaceOnUse" x1="185.4082" y1="149.6572" x2="185.4082" y2="119.9036" gradientTransform="matrix(-1 0 0 1 232 0)">
			<stop  offset="0" style="stop-color:#BFBFBF"/>
			<stop  offset="0.0606" style="stop-color:#A9A9A9"/>
			<stop  offset="0.1701" style="stop-color:#898989"/>
			<stop  offset="0.2885" style="stop-color:#6E6E6E"/>
			<stop  offset="0.4169" style="stop-color:#595959"/>
			<stop  offset="0.5605" style="stop-color:#4A4A4A"/>
			<stop  offset="0.7313" style="stop-color:#424242"/>
			<stop  offset="1" style="stop-color:#3F3F3F"/>
		</linearGradient>
		<circle fill="url(#SVGID_10_)" cx="46.591" cy="137.464" r="15.227"/>
		
			<radialGradient id="SVGID_11_" cx="185.4092" cy="137.4648" r="13.4292" gradientTransform="matrix(-1 0 0 1 232 0)" gradientUnits="userSpaceOnUse">
			<stop  offset="0.0056" style="stop-color:#FF8000"/>
			<stop  offset="0.1124" style="stop-color:#FFA600"/>
			<stop  offset="0.4011" style="stop-color:#FFAA00"/>
			<stop  offset="0.6788" style="stop-color:#FFB500"/>
			<stop  offset="0.9511" style="stop-color:#FFC900"/>
			<stop  offset="1" style="stop-color:#FFCD00"/>
		</radialGradient>
		<circle fill="url(#SVGID_11_)" cx="46.591" cy="137.465" r="13.43"/>
		<g>
			
				<linearGradient id="SVGID_12_" gradientUnits="userSpaceOnUse" x1="411.5381" y1="141.6523" x2="411.5381" y2="133.2773" gradientTransform="matrix(1 0 0 1 -364.9473 0)">
				<stop  offset="0" style="stop-color:#3F3F3F"/>
				<stop  offset="0.1364" style="stop-color:#353535"/>
				<stop  offset="0.698" style="stop-color:#121212"/>
				<stop  offset="1" style="stop-color:#050505"/>
			</linearGradient>
			<circle fill="url(#SVGID_12_)" cx="46.591" cy="137.466" r="4.188"/>
			
				<linearGradient id="SVGID_13_" gradientUnits="userSpaceOnUse" x1="411.8223" y1="133.2773" x2="411.8223" y2="138.5488" gradientTransform="matrix(1 0 0 1 -364.9473 0)">
				<stop  offset="0" style="stop-color:#FFFFFF"/>
				<stop  offset="0.1038" style="stop-color:#E3E3E3"/>
				<stop  offset="0.3349" style="stop-color:#A9A9A9"/>
				<stop  offset="0.5482" style="stop-color:#7B7B7B"/>
				<stop  offset="0.737" style="stop-color:#5A5A5A"/>
				<stop  offset="0.894" style="stop-color:#464646"/>
				<stop  offset="1" style="stop-color:#3F3F3F"/>
			</linearGradient>
			<path fill="url(#SVGID_13_)" d="M46.589,133.277c-1.549,0-2.898,0.846-3.619,2.098c1.508,1.616,4.104,3.536,7.674,3.114
				c0.084-0.33,0.135-0.672,0.135-1.023C50.778,135.153,48.903,133.277,46.589,133.277z"/>
		</g>
		
			<linearGradient id="SVGID_14_" gradientUnits="userSpaceOnUse" x1="185.4404" y1="134.5059" x2="186.7642" y2="107.27" gradientTransform="matrix(-1 0 0 1 232 0)">
			<stop  offset="0" style="stop-color:#5E5C5C"/>
			<stop  offset="0.3948" style="stop-color:#605E5E"/>
			<stop  offset="0.6124" style="stop-color:#686666"/>
			<stop  offset="0.7869" style="stop-color:#757374"/>
			<stop  offset="0.9376" style="stop-color:#878687"/>
			<stop  offset="1" style="stop-color:#919092"/>
		</linearGradient>
		<path fill="url(#SVGID_14_)" d="M46.597,110.823c14.461,0,26.221,11.207,26.621,25.171c0-0.235,0.014-0.474,0.014-0.724
			c0-14.295-11.926-25.893-26.635-25.893c-14.717,0-26.646,11.598-26.646,25.893c0,0.25,0.018,0.488,0.018,0.724
			C20.362,122.03,32.128,110.823,46.597,110.823z"/>
	</g>
	<g>
		<path fill="#3F3F3F" d="M85.663,47.177c0-4.245,3.441-7.686,7.686-7.686h43.56c0.695,0,1.365,0.101,2.006,0.273
			c0.355,0.885,0.557,1.848,0.557,2.858v32.382c-0.523-0.018-1.043-0.039-1.568-0.039c-24.949,0-45.177,20.226-45.177,45.176
			c0,0.735,0.021,1.467,0.057,2.195H77.976C77.282,122.337,85.663,47.177,85.663,47.177z"/>
		<g>
			
				<linearGradient id="SVGID_15_" gradientUnits="userSpaceOnUse" x1="123.2969" y1="119.1992" x2="123.2969" y2="45.7646" gradientTransform="matrix(-1 0 0 1 232 0)">
				<stop  offset="0" style="stop-color:#FFFFFF"/>
				<stop  offset="0.074" style="stop-color:#ECECEF"/>
				<stop  offset="0.1757" style="stop-color:#D8D8DF"/>
				<stop  offset="0.2446" style="stop-color:#D1D1D9"/>
				<stop  offset="0.4862" style="stop-color:#D6D6DD"/>
				<stop  offset="0.7922" style="stop-color:#E6E6E9"/>
				<stop  offset="1" style="stop-color:#F5F5F5"/>
			</linearGradient>
			<path fill="url(#SVGID_15_)" d="M134.611,45.765c0,2.424,0,19.847,0,26.223c-25.207,1.58-45.349,21.923-46.616,47.211
				c-2.236,0-2.881,0-5.201,0c1.092-12.409,4.863-47.254,7.393-69.932l0.029-0.26v-0.262c0-1.644,1.338-2.98,2.98-2.98
				C93.196,45.765,130.736,45.765,134.611,45.765z"/>
			
				<linearGradient id="SVGID_16_" gradientUnits="userSpaceOnUse" x1="119.6025" y1="45.7651" x2="119.6025" y2="81.5347" gradientTransform="matrix(-1 0 0 1 232 0)">
				<stop  offset="0" style="stop-color:#FFFFFF"/>
				<stop  offset="0.0865" style="stop-color:#FBFBFC"/>
				<stop  offset="0.6312" style="stop-color:#E7E7EA"/>
				<stop  offset="1" style="stop-color:#E0E0E3"/>
			</linearGradient>
			<path fill="url(#SVGID_16_)" d="M90.185,49.284c0-0.006,0.002-0.013,0.002-0.018l0.029-0.26v-0.262c0-1.644,1.338-2.98,2.98-2.98
				c0,0,37.54,0,41.415,0v26.223c-9.799,0.613-18.826,4.073-26.281,9.547C99.034,71.396,93.433,58.649,90.185,49.284z"/>
		</g>
	</g>
</g>
</svg>
